<svg width="551" height="347" viewBox="0 0 551 347" fill="none" xmlns="http://www.w3.org/2000/svg">
<g clip-path="url(#clip0)">
<path d="M525.428 346.297H59.7188C55.5773 346.297 51.6054 344.652 48.677 341.723C45.7485 338.795 44.1033 334.823 44.1033 330.681C212.923 311.061 378.57 311.061 541.044 330.681C541.044 334.823 539.398 338.795 536.47 341.723C533.541 344.652 529.57 346.297 525.428 346.297Z" fill="#CCCCCC"/>
<path d="M541.044 331.6L44.1033 330.681L101.697 233.773L101.972 233.314V19.7398C101.972 17.1475 102.483 14.5805 103.475 12.1855C104.467 9.79043 105.921 7.61424 107.754 5.78119C109.587 3.94813 111.763 2.49411 114.158 1.50217C116.553 0.510227 119.12 -0.000216551 121.712 6.89172e-08H460.679C463.271 -0.000216551 465.838 0.510227 468.233 1.50217C470.628 2.49411 472.804 3.94813 474.637 5.78119C476.471 7.61424 477.925 9.79043 478.917 12.1855C479.908 14.5805 480.419 17.1475 480.419 19.7398V234.784L541.044 331.6Z" fill="#E6E6E6"/>
<path d="M121.262 13.7784C119.558 13.7803 117.923 14.4584 116.718 15.6638C115.512 16.8692 114.834 18.5036 114.832 20.2083V214.943C114.834 216.648 115.512 218.282 116.718 219.487C117.923 220.693 119.558 221.371 121.262 221.373H463.885C465.59 221.371 467.224 220.693 468.429 219.487C469.635 218.282 470.313 216.648 470.315 214.943V20.2083C470.313 18.5036 469.635 16.8693 468.429 15.6639C467.224 14.4585 465.59 13.7804 463.885 13.7784H121.262Z" fill="white"/>
<path d="M123.514 247.092C122.987 247.093 122.472 247.245 122.028 247.529C121.585 247.813 121.231 248.218 121.01 248.696L103.264 287.276C103.071 287.696 102.986 288.157 103.018 288.618C103.05 289.079 103.198 289.525 103.447 289.914C103.696 290.303 104.039 290.623 104.445 290.845C104.85 291.067 105.305 291.183 105.767 291.183H478.965C479.434 291.183 479.896 291.063 480.306 290.834C480.717 290.606 481.062 290.276 481.309 289.876C481.555 289.477 481.696 289.02 481.717 288.551C481.738 288.082 481.639 287.615 481.429 287.195L462.139 248.616C461.911 248.157 461.56 247.771 461.124 247.502C460.689 247.233 460.187 247.091 459.675 247.092L123.514 247.092Z" fill="#CCCCCC"/>
<path d="M291.196 10.5634C293.479 10.5634 295.329 8.71279 295.329 6.42992C295.329 4.14704 293.479 2.2964 291.196 2.2964C288.913 2.2964 287.062 4.14704 287.062 6.42992C287.062 8.71279 288.913 10.5634 291.196 10.5634Z" fill="white"/>
<path d="M254.513 298.532C253.908 298.533 253.319 298.733 252.838 299.101C252.357 299.47 252.011 299.986 251.853 300.571L247.401 317.105C247.291 317.513 247.277 317.941 247.359 318.356C247.441 318.771 247.617 319.162 247.875 319.498C248.132 319.833 248.463 320.105 248.842 320.293C249.222 320.48 249.639 320.577 250.062 320.577H334.72C335.159 320.577 335.592 320.472 335.982 320.271C336.373 320.069 336.709 319.778 336.964 319.42C337.219 319.062 337.384 318.648 337.447 318.213C337.509 317.779 337.467 317.335 337.323 316.92L331.6 300.386C331.412 299.845 331.061 299.375 330.594 299.043C330.127 298.711 329.569 298.532 328.996 298.532H254.513Z" fill="#CCCCCC"/>
<path d="M480.419 230.099V233.774H101.697L101.982 233.314V230.099H480.419Z" fill="#CCCCCC"/>
<path d="M433.673 238.516C433.526 238.516 433.382 238.565 433.265 238.655C433.148 238.744 433.064 238.87 433.025 239.012L431.941 243.039C431.915 243.138 431.911 243.242 431.931 243.344C431.951 243.445 431.994 243.54 432.057 243.621C432.119 243.703 432.2 243.769 432.292 243.815C432.385 243.861 432.486 243.884 432.589 243.884H453.204C453.311 243.884 453.417 243.859 453.512 243.81C453.607 243.761 453.689 243.69 453.751 243.602C453.813 243.515 453.853 243.415 453.869 243.309C453.884 243.203 453.873 243.095 453.838 242.994L452.445 238.967C452.399 238.836 452.313 238.721 452.2 238.64C452.086 238.559 451.95 238.516 451.811 238.516H433.673Z" fill="#CCCCCC"/>
<path d="M403.572 238.516C403.425 238.516 403.281 238.565 403.164 238.655C403.047 238.744 402.963 238.87 402.924 239.012L401.84 243.039C401.813 243.138 401.81 243.242 401.83 243.344C401.85 243.445 401.893 243.54 401.956 243.621C402.018 243.703 402.099 243.769 402.191 243.815C402.284 243.861 402.385 243.884 402.488 243.884H423.103C423.21 243.884 423.316 243.859 423.411 243.81C423.506 243.761 423.588 243.69 423.65 243.602C423.712 243.515 423.752 243.415 423.767 243.309C423.783 243.203 423.772 243.095 423.737 242.994L422.344 238.967C422.298 238.836 422.212 238.721 422.099 238.64C421.985 238.559 421.849 238.516 421.709 238.516H403.572Z" fill="#CCCCCC"/>
<path d="M316.363 264.099H317.979L314.747 48.1312H313.131L313.196 52.4398H276.983L277.047 48.1312H275.431L272.2 264.099H273.816L274.025 250.096H316.153L316.363 264.099ZM314.034 108.451H276.145L276.539 82.0613H313.639L314.034 108.451ZM314.058 110.067L314.453 136.457H275.726L276.12 110.067H314.058ZM314.477 138.073L314.872 164.463H275.307L275.701 138.073H314.477ZM314.896 166.079L315.291 192.469H274.887L275.282 166.079H314.896ZM315.315 194.084L315.71 220.475H274.468L274.863 194.084H315.315ZM313.22 54.0555L313.615 80.4456H276.564L276.958 54.0555H313.22ZM274.049 248.48L274.444 222.09H315.734L316.129 248.48H274.049Z" fill="#3F3D56"/>
<path d="M287.085 122.518C301.636 122.518 313.431 110.722 313.431 96.1714C313.431 81.6208 301.636 69.8252 287.085 69.8252C272.535 69.8252 260.739 81.6208 260.739 96.1714C260.739 110.722 272.535 122.518 287.085 122.518Z" fill="#2F2E41"/>
<path d="M302.582 114.379L294.706 115.805L297.261 129.916L305.137 128.49L302.582 114.379Z" fill="#2F2E41"/>
<path d="M286.831 117.23L278.955 118.656L281.509 132.767L289.385 131.341L286.831 117.23Z" fill="#2F2E41"/>
<path d="M285.69 135.737C288.501 133.356 290.056 130.572 289.164 129.517C288.271 128.463 285.268 129.539 282.457 131.919C279.646 134.3 278.091 137.084 278.984 138.139C279.877 139.193 282.879 138.117 285.69 135.737Z" fill="#2F2E41"/>
<path d="M301.114 132.945C303.925 130.564 305.48 127.779 304.587 126.725C303.694 125.671 300.692 126.746 297.881 129.127C295.07 131.508 293.515 134.292 294.407 135.346C295.3 136.401 298.303 135.325 301.114 132.945Z" fill="#2F2E41"/>
<path d="M285.241 98.7314C290.214 98.7314 294.245 94.7 294.245 89.727C294.245 84.754 290.214 80.7226 285.241 80.7226C280.268 80.7226 276.236 84.754 276.236 89.727C276.236 94.7 280.268 98.7314 285.241 98.7314Z" fill="white"/>
<path d="M281.54 89.5008C283.198 89.5008 284.542 88.1571 284.542 86.4994C284.542 84.8417 283.198 83.498 281.54 83.498C279.882 83.498 278.539 84.8417 278.539 86.4994C278.539 88.1571 279.882 89.5008 281.54 89.5008Z" fill="#3F3D56"/>
<path d="M307.869 67.5096C308.265 57.7559 299.859 49.4944 289.093 49.0571C278.327 48.6198 269.278 56.1722 268.882 65.9259C268.486 75.6797 275.969 77.8958 286.735 78.3331C297.501 78.7705 307.473 77.2633 307.869 67.5096Z" fill="#1890FF"/>
<path d="M275.598 94.3147C276.109 92.0885 270.774 88.9661 263.682 87.3406C256.591 85.7152 250.428 86.2022 249.918 88.4284C249.408 90.6546 254.743 93.777 261.834 95.4025C268.926 97.028 275.088 96.541 275.598 94.3147Z" fill="#2F2E41"/>
<path d="M327.315 102.915C327.825 100.689 322.49 97.5666 315.399 95.9411C308.307 94.3156 302.145 94.8026 301.635 97.0288C301.124 99.255 306.459 102.377 313.551 104.003C320.642 105.628 326.805 105.141 327.315 102.915Z" fill="#2F2E41"/>
<path d="M294.321 106.554C294.463 107.33 294.451 108.126 294.285 108.897C294.119 109.668 293.803 110.399 293.354 111.048C292.906 111.697 292.334 112.251 291.671 112.678C291.008 113.106 290.267 113.399 289.491 113.54C288.715 113.681 287.919 113.668 287.148 113.502C286.377 113.335 285.647 113.018 284.998 112.569C284.35 112.12 283.796 111.547 283.369 110.884C282.942 110.221 282.65 109.48 282.51 108.704L282.507 108.693C281.917 105.43 284.439 104.276 287.702 103.685C290.964 103.095 293.731 103.292 294.321 106.554Z" fill="white"/>
<path d="M197.852 185.653C200.515 178.686 200.9 172.361 198.713 171.525C196.526 170.689 192.595 175.659 189.932 182.626C187.27 189.592 186.884 195.917 189.071 196.753C191.258 197.589 195.189 192.619 197.852 185.653Z" fill="#2F2E41"/>
<path d="M195.588 208.86C197.977 194.137 187.978 180.264 173.255 177.875C158.532 175.486 144.659 185.484 142.27 200.208C139.881 214.931 149.879 228.804 164.603 231.193C179.326 233.582 193.199 223.584 195.588 208.86Z" fill="#2F2E41"/>
<path d="M164.826 225.73H156.622V240.431H164.826V225.73Z" fill="#2F2E41"/>
<path d="M181.236 225.73H173.031V240.431H181.236V225.73Z" fill="#2F2E41"/>
<path d="M163.459 243.165C167.235 243.165 170.296 242.017 170.296 240.601C170.296 239.185 167.235 238.037 163.459 238.037C159.683 238.037 156.622 239.185 156.622 240.601C156.622 242.017 159.683 243.165 163.459 243.165Z" fill="#2F2E41"/>
<path d="M179.869 242.824C183.645 242.824 186.706 241.676 186.706 240.26C186.706 238.843 183.645 237.695 179.869 237.695C176.093 237.695 173.031 238.843 173.031 240.26C173.031 241.676 176.093 242.824 179.869 242.824Z" fill="#2F2E41"/>
<path d="M142.731 179.418C140.55 169.651 147.521 159.783 158.301 157.376C169.081 154.969 179.587 160.934 181.768 170.701C183.949 180.467 176.804 184.069 166.025 186.476C155.245 188.883 144.911 189.184 142.731 179.418Z" fill="#1890FF"/>
<path d="M150.71 197.789C151.714 195.674 147.064 191.368 140.326 188.172C133.587 184.976 127.311 184.1 126.308 186.216C125.305 188.331 129.954 192.637 136.692 195.833C143.431 199.029 149.707 199.905 150.71 197.789Z" fill="#2F2E41"/>
<path d="M51.9875 258.888C66.9035 258.888 78.9953 246.797 78.9953 231.881C78.9953 216.965 66.9035 204.873 51.9875 204.873C37.0716 204.873 24.9798 216.965 24.9798 231.881C24.9798 246.797 37.0716 258.888 51.9875 258.888Z" fill="#2F2E41"/>
<path d="M47.8851 253.077H39.6802V267.777H47.8851V253.077Z" fill="#2F2E41"/>
<path d="M64.2949 253.077H56.09V267.777H64.2949V253.077Z" fill="#2F2E41"/>
<path d="M46.5176 270.512C50.2938 270.512 53.355 269.364 53.355 267.948C53.355 266.532 50.2938 265.384 46.5176 265.384C42.7414 265.384 39.6802 266.532 39.6802 267.948C39.6802 269.364 42.7414 270.512 46.5176 270.512Z" fill="#2F2E41"/>
<path d="M62.9274 270.17C66.7036 270.17 69.7648 269.022 69.7648 267.606C69.7648 266.19 66.7036 265.042 62.9274 265.042C59.1512 265.042 56.09 266.19 56.09 267.606C56.09 269.022 59.1512 270.17 62.9274 270.17Z" fill="#2F2E41"/>
<path d="M52.6713 234.274C57.7692 234.274 61.9018 230.141 61.9018 225.043C61.9018 219.945 57.7692 215.813 52.6713 215.813C47.5734 215.813 43.4408 219.945 43.4408 225.043C43.4408 230.141 47.5734 234.274 52.6713 234.274Z" fill="white"/>
<path d="M52.6712 228.12C54.3705 228.12 55.7481 226.742 55.7481 225.043C55.7481 223.344 54.3705 221.966 52.6712 221.966C50.972 221.966 49.5944 223.344 49.5944 225.043C49.5944 226.742 50.972 228.12 52.6712 228.12Z" fill="#3F3D56"/>
<path d="M25.789 206.764C23.6083 196.998 30.5793 187.129 41.3592 184.722C52.1391 182.315 62.6458 188.281 64.8265 198.047C67.0073 207.814 59.863 211.416 49.0831 213.823C38.3032 216.23 27.9698 216.531 25.789 206.764Z" fill="#E6E6E6"/>
<path d="M71.6802 135.395C74.3429 128.428 74.7286 122.103 72.5416 121.267C70.3546 120.431 66.4232 125.401 63.7605 132.368C61.0977 139.334 60.7121 145.659 62.8991 146.495C65.086 147.331 69.0175 142.361 71.6802 135.395Z" fill="#2F2E41"/>
<path d="M69.4161 158.602C71.8053 143.879 61.8066 130.006 47.0832 127.617C32.3598 125.228 18.4873 135.226 16.098 149.95C13.7087 164.673 23.7075 178.546 38.4309 180.935C53.1543 183.324 67.0268 173.326 69.4161 158.602Z" fill="#2F2E41"/>
<path d="M38.6546 175.472H30.4497V190.172H38.6546V175.472Z" fill="#2F2E41"/>
<path d="M55.0643 175.472H46.8594V190.172H55.0643V175.472Z" fill="#2F2E41"/>
<path d="M37.2871 192.907C41.0633 192.907 44.1245 191.759 44.1245 190.343C44.1245 188.927 41.0633 187.779 37.2871 187.779C33.5109 187.779 30.4497 188.927 30.4497 190.343C30.4497 191.759 33.5109 192.907 37.2871 192.907Z" fill="#2F2E41"/>
<path d="M53.6969 192.566C57.4731 192.566 60.5343 191.418 60.5343 190.001C60.5343 188.585 57.4731 187.437 53.6969 187.437C49.9207 187.437 46.8594 188.585 46.8594 190.001C46.8594 191.418 49.9207 192.566 53.6969 192.566Z" fill="#2F2E41"/>
<path d="M43.4408 156.669C48.5386 156.669 52.6713 152.536 52.6713 147.439C52.6713 142.341 48.5386 138.208 43.4408 138.208C38.3429 138.208 34.2102 142.341 34.2102 147.439C34.2102 152.536 38.3429 156.669 43.4408 156.669Z" fill="white"/>
<path d="M43.4408 150.515C45.1401 150.515 46.5176 149.138 46.5176 147.439C46.5176 145.739 45.1401 144.362 43.4408 144.362C41.7415 144.362 40.364 145.739 40.364 147.439C40.364 149.138 41.7415 150.515 43.4408 150.515Z" fill="#3F3D56"/>
<path d="M16.5586 129.16C14.3778 119.393 21.3488 109.525 32.1287 107.117C42.9086 104.71 53.4153 110.676 55.5961 120.443C57.7768 130.209 50.6326 133.811 39.8527 136.218C29.0728 138.625 18.7393 138.926 16.5586 129.16Z" fill="#1890FF"/>
<path d="M24.5385 147.531C25.5418 145.416 20.8925 141.11 14.154 137.914C7.41548 134.718 1.13949 133.842 0.136175 135.957C-0.867136 138.073 3.78217 142.379 10.5207 145.575C17.2592 148.771 23.5352 149.646 24.5385 147.531Z" fill="#2F2E41"/>
<path d="M29.4909 164.019C29.4909 166.663 36.297 171.882 43.8494 171.882C51.4018 171.882 58.483 164.44 58.483 161.797C58.483 159.154 51.4018 162.31 43.8494 162.31C36.2971 162.31 29.4909 161.376 29.4909 164.019Z" fill="white"/>
<path d="M69.31 51.1522C68.8112 51.1527 68.333 51.3511 67.9803 51.7038C67.6276 52.0565 67.4292 52.5347 67.4287 53.0335V130.795C67.4292 131.293 67.6276 131.772 67.9803 132.124C68.333 132.477 68.8112 132.675 69.31 132.676H249.289C249.788 132.675 250.266 132.477 250.619 132.124C250.971 131.772 251.17 131.293 251.17 130.795V53.0335C251.17 52.5347 250.971 52.0565 250.619 51.7038C250.266 51.3511 249.788 51.1527 249.289 51.1522H69.31Z" fill="#1890FF"/>
<path d="M117.907 110.176C127.993 110.176 136.169 102 136.169 91.914C136.169 81.8282 127.993 73.652 117.907 73.652C107.821 73.652 99.6452 81.8282 99.6452 91.914C99.6452 102 107.821 110.176 117.907 110.176Z" fill="white"/>
<path d="M159.124 89.4843C158.564 89.4935 158.03 89.7225 157.637 90.122C157.244 90.5214 157.024 91.0592 157.024 91.6195C157.024 92.1798 157.244 92.7176 157.637 93.1171C158.03 93.5165 158.564 93.7455 159.124 93.7547H216.784C217.064 93.7595 217.343 93.709 217.604 93.6061C217.865 93.5031 218.103 93.3498 218.305 93.1547C218.507 92.9597 218.668 92.7268 218.78 92.4694C218.891 92.212 218.951 91.9351 218.956 91.6546C218.96 91.3741 218.91 91.0954 218.806 90.8344C218.703 90.5735 218.55 90.3355 218.354 90.1339C218.159 89.9324 217.926 89.7713 217.669 89.6598C217.411 89.5483 217.134 89.4887 216.854 89.4843C216.83 89.4839 216.807 89.4839 216.784 89.4843H159.124Z" fill="white"/>
<path d="M159.124 77.1133C158.564 77.1225 158.03 77.3515 157.637 77.7509C157.244 78.1503 157.024 78.6882 157.024 79.2485C157.024 79.8087 157.244 80.3466 157.637 80.746C158.03 81.1454 158.564 81.3744 159.124 81.3836H187.918C188.198 81.3885 188.477 81.338 188.738 81.235C188.999 81.1321 189.237 80.9787 189.439 80.7837C189.641 80.5886 189.802 80.3558 189.914 80.0984C190.025 79.841 190.085 79.5641 190.09 79.2835C190.095 79.003 190.044 78.7243 189.941 78.4633C189.837 78.2024 189.684 77.9644 189.489 77.7628C189.294 77.5613 189.06 77.4002 188.803 77.2887C188.545 77.1773 188.269 77.1176 187.988 77.1133C187.965 77.1129 187.941 77.1129 187.918 77.1133H159.124Z" fill="white"/>
<path d="M159.124 102.444C158.564 102.454 158.03 102.683 157.637 103.082C157.244 103.482 157.024 104.019 157.024 104.58C157.024 105.14 157.244 105.678 157.637 106.077C158.03 106.477 158.564 106.706 159.124 106.715H216.784C217.064 106.72 217.343 106.669 217.604 106.566C217.865 106.463 218.103 106.31 218.305 106.115C218.507 105.92 218.668 105.687 218.78 105.43C218.891 105.172 218.951 104.895 218.956 104.615C218.96 104.334 218.91 104.056 218.806 103.795C218.703 103.534 218.55 103.296 218.354 103.094C218.159 102.892 217.926 102.731 217.669 102.62C217.411 102.508 217.134 102.449 216.854 102.444C216.83 102.444 216.807 102.444 216.784 102.444H159.124Z" fill="white"/>
<path d="M439.156 246.28C441.343 245.444 440.958 239.119 438.295 232.152C435.632 225.186 431.701 220.216 429.514 221.052C427.326 221.888 427.712 228.213 430.375 235.179C433.038 242.146 436.969 247.116 439.156 246.28Z" fill="#2F2E41"/>
<path d="M457.98 286.363C472.704 283.974 482.702 270.102 480.313 255.378C477.924 240.655 464.051 230.656 449.328 233.045C434.605 235.435 424.606 249.307 426.995 264.031C429.385 278.754 443.257 288.753 457.98 286.363Z" fill="#2F2E41"/>
<path d="M465.961 280.901H457.756L459.362 298.505L465.975 296.709L465.961 280.901Z" fill="#2F2E41"/>
<path d="M448.074 280.946H439.87L441.475 298.551L447.79 296.709L448.074 280.946Z" fill="#2F2E41"/>
<path d="M441.242 299.378C445.008 299.103 447.977 297.735 447.874 296.323C447.771 294.91 444.634 293.989 440.868 294.264C437.101 294.539 434.132 295.907 434.235 297.32C434.338 298.732 437.475 299.654 441.242 299.378Z" fill="#2F2E41"/>
<path d="M452.971 262.098C458.069 262.098 462.201 257.965 462.201 252.867C462.201 247.769 458.069 243.637 452.971 243.637C447.873 243.637 443.74 247.769 443.74 252.867C443.74 257.965 447.873 262.098 452.971 262.098Z" fill="white"/>
<path d="M452.971 255.944C454.67 255.944 456.048 254.567 456.048 252.867C456.048 251.168 454.67 249.79 452.971 249.79C451.271 249.79 449.894 251.168 449.894 252.867C449.894 254.567 451.271 255.944 452.971 255.944Z" fill="#3F3D56"/>
<path d="M485.602 243.421C490.033 237.422 492.099 231.431 490.215 230.04C488.332 228.649 483.214 232.384 478.783 238.383C474.352 244.382 472.287 250.373 474.17 251.764C476.053 253.155 481.172 249.42 485.602 243.421Z" fill="#2F2E41"/>
<path d="M440.477 273.63C440.477 271.452 446.087 267.15 452.311 267.15C458.536 267.15 464.372 273.283 464.372 275.462C464.372 277.64 458.536 275.039 452.311 275.039C446.087 275.039 440.477 275.809 440.477 273.63Z" fill="white"/>
<path d="M529.388 237.386L381.551 216.891C380.398 216.73 379.356 216.118 378.654 215.19C377.952 214.262 377.647 213.093 377.805 211.94L394.425 92.0553C394.586 90.9027 395.198 89.8611 396.126 89.1589C397.054 88.4568 398.223 88.1515 399.376 88.3099L547.213 108.804C548.365 108.966 549.407 109.577 550.109 110.505C550.811 111.434 551.116 112.602 550.958 113.755L534.338 233.64C534.177 234.793 533.566 235.834 532.637 236.537C531.709 237.239 530.541 237.544 529.388 237.386Z" fill="#1890FF"/>
<path d="M476.426 199.971L400.951 189.508C400.856 189.496 400.763 189.476 400.672 189.447L444.94 132.564C445.211 132.209 445.572 131.933 445.985 131.763C446.398 131.593 446.849 131.536 447.291 131.597C447.733 131.659 448.152 131.836 448.503 132.112C448.854 132.388 449.126 132.752 449.29 133.167L467.495 177.982L468.367 180.126L476.426 199.971Z" fill="white"/>
<path opacity="0.2" d="M476.426 199.971L450.657 196.399L465.854 179.778L466.948 178.581L467.495 177.982L468.368 180.127L476.426 199.971Z" fill="black"/>
<path d="M518.45 205.797L453.17 196.747L468.368 180.126L469.461 178.929L489.265 157.269C489.607 156.943 490.014 156.693 490.459 156.536C490.904 156.378 491.377 156.315 491.848 156.352C492.319 156.389 492.776 156.524 493.191 156.749C493.607 156.974 493.97 157.284 494.257 157.659C494.329 157.764 494.395 157.874 494.453 157.988L518.45 205.797Z" fill="white"/>
<path d="M477.344 151.875C483.578 151.875 488.631 146.821 488.631 140.587C488.631 134.353 483.578 129.299 477.344 129.299C471.109 129.299 466.056 134.353 466.056 140.587C466.056 146.821 471.109 151.875 477.344 151.875Z" fill="white"/>
<path d="M415.563 99.4202L401.897 97.5257L400.003 111.191L413.668 113.086L415.563 99.4202Z" fill="#3F3D56"/>
<path d="M479.853 234.588C482.034 224.822 475.062 214.953 464.283 212.546C453.503 210.139 442.996 216.105 440.815 225.871C438.634 235.638 445.779 239.24 456.559 241.647C467.338 244.054 477.672 244.354 479.853 234.588Z" fill="#F2F2F2"/>
<path d="M459.235 299.335C463.001 299.06 465.97 297.691 465.867 296.279C465.764 294.867 462.627 293.945 458.861 294.22C455.094 294.496 452.125 295.864 452.228 297.276C452.331 298.689 455.468 299.61 459.235 299.335Z" fill="#2F2E41"/>
</g>
<defs>
<clipPath id="clip0">
<rect width="551" height="346.297" fill="white"/>
</clipPath>
</defs>
</svg>
