<svg width="512" height="512" viewBox="0 0 512 512" fill="none" xmlns="http://www.w3.org/2000/svg">
<g clip-path="url(#clip0)">
<path d="M161.098 173.504H75.0121C64.6311 173.504 56.1851 181.95 56.1851 192.331V260.293C56.1851 270.674 64.6311 279.12 75.0121 279.12H161.097C171.478 279.12 179.924 270.674 179.924 260.293V192.331C179.924 181.95 171.479 173.504 161.098 173.504V173.504ZM164.924 192.331V218.812H125.554V188.503H161.097C163.208 188.504 164.924 190.221 164.924 192.331ZM71.1851 260.293V192.331C71.1851 190.221 72.9021 188.504 75.0121 188.504H110.554V264.12H75.0121C72.9021 264.12 71.1851 262.403 71.1851 260.293ZM161.098 264.12H125.555V233.812H164.925V260.292C164.924 262.403 163.208 264.12 161.098 264.12Z" fill="#1890FF"/>
<path d="M56.1851 365.768C56.1851 369.911 59.5431 373.268 63.6851 373.268H284.387C288.529 373.268 291.887 369.911 291.887 365.768C291.887 361.625 288.529 358.268 284.387 358.268H63.6851C59.5431 358.268 56.1851 361.625 56.1851 365.768Z" fill="#1890FF"/>
<path d="M63.6851 386.834C59.5431 386.834 56.1851 390.191 56.1851 394.334C56.1851 398.477 59.5431 401.834 63.6851 401.834H174.036C178.178 401.834 181.536 398.477 181.536 394.334C181.536 390.191 178.178 386.834 174.036 386.834H63.6851Z" fill="#1890FF"/>
<path d="M196.878 329.987V311.855C196.878 307.712 193.52 304.355 189.378 304.355C185.236 304.355 181.878 307.712 181.878 311.855V329.987C181.878 334.13 185.236 337.487 189.378 337.487C193.52 337.487 196.878 334.13 196.878 329.987Z" fill="#1890FF"/>
<path d="M231.159 329.987V311.855C231.159 307.712 227.801 304.355 223.659 304.355C219.517 304.355 216.159 307.712 216.159 311.855V329.987C216.159 334.13 219.517 337.487 223.659 337.487C227.801 337.487 231.159 334.13 231.159 329.987Z" fill="#1890FF"/>
<path d="M265.438 329.987V311.855C265.438 307.712 262.08 304.355 257.938 304.355C253.796 304.355 250.438 307.712 250.438 311.855V329.987C250.438 334.13 253.796 337.487 257.938 337.487C262.08 337.487 265.438 334.13 265.438 329.987Z" fill="#1890FF"/>
<path d="M299.719 329.987V311.855C299.719 307.712 296.361 304.355 292.219 304.355C288.077 304.355 284.719 307.712 284.719 311.855V329.987C284.719 334.13 288.077 337.487 292.219 337.487C296.361 337.487 299.719 334.13 299.719 329.987Z" fill="#1890FF"/>
<path d="M341.852 311.855V329.987C341.852 334.13 345.21 337.487 349.352 337.487C353.494 337.487 356.852 334.13 356.852 329.987V311.855C356.852 307.712 353.494 304.355 349.352 304.355C345.21 304.355 341.852 307.713 341.852 311.855Z" fill="#1890FF"/>
<path d="M376.132 311.855V329.987C376.132 334.13 379.49 337.487 383.632 337.487C387.774 337.487 391.132 334.13 391.132 329.987V311.855C391.132 307.712 387.774 304.355 383.632 304.355C379.49 304.355 376.132 307.713 376.132 311.855Z" fill="#1890FF"/>
<path d="M410.412 311.855V329.987C410.412 334.13 413.77 337.487 417.912 337.487C422.054 337.487 425.412 334.13 425.412 329.987V311.855C425.412 307.712 422.054 304.355 417.912 304.355C413.77 304.355 410.412 307.713 410.412 311.855Z" fill="#1890FF"/>
<path d="M63.6851 337.487C67.8271 337.487 71.1851 334.13 71.1851 329.987V311.855C71.1851 307.712 67.8271 304.355 63.6851 304.355C59.5431 304.355 56.1851 307.712 56.1851 311.855V329.987C56.1851 334.13 59.5431 337.487 63.6851 337.487Z" fill="#1890FF"/>
<path d="M105.465 329.987V311.855C105.465 307.712 102.107 304.355 97.965 304.355C93.823 304.355 90.465 307.712 90.465 311.855V329.987C90.465 334.13 93.823 337.487 97.965 337.487C102.107 337.487 105.465 334.13 105.465 329.987Z" fill="#1890FF"/>
<path d="M139.745 329.987V311.855C139.745 307.712 136.387 304.355 132.245 304.355C128.103 304.355 124.745 307.712 124.745 311.855V329.987C124.745 334.13 128.103 337.487 132.245 337.487C136.387 337.487 139.745 334.13 139.745 329.987Z" fill="#1890FF"/>
<path d="M512 141.825C512 99.8109 477.819 65.6309 435.806 65.6309C398.175 65.6309 366.85 93.0589 360.719 128.969H166.65C162.508 128.969 159.15 132.326 159.15 136.469C159.15 140.612 162.508 143.969 166.65 143.969H359.642C360.789 185.258 394.867 218.003 435.777 218.018C435.787 218.018 435.796 218.019 435.806 218.019C435.816 218.019 435.806 218.019 435.806 218.019C435.814 218.019 435.822 218.018 435.831 218.018C446.787 218.014 457.409 215.604 466.597 211.539V337.666C466.597 341.809 469.955 345.166 474.097 345.166C478.239 345.166 481.597 341.809 481.597 337.666V202.679C500.048 188.761 512 166.664 512 141.825ZM435.806 80.6309C469.549 80.6309 497 108.083 497 141.825C497 175.632 469.471 203.018 435.806 203.018C401.403 203.018 373.27 174.383 374.675 139.346C376.245 105.646 403.771 80.6309 435.806 80.6309V80.6309Z" fill="#1890FF"/>
<path d="M415.059 170.69C417.598 174.804 423.318 175.48 426.745 172.055L475.255 123.544C478.184 120.614 478.184 115.866 475.255 112.937C472.326 110.009 467.577 110.009 464.649 112.937L422.844 154.743L406.668 128.531C404.494 125.006 399.872 123.913 396.347 126.087C392.822 128.263 391.728 132.884 393.903 136.408L415.059 170.69Z" fill="#1890FF"/>
<path d="M474.097 365.166C469.955 365.166 466.597 368.523 466.597 372.666V403.598C466.597 418.911 454.139 431.369 438.825 431.369H42.772C27.458 431.369 15 418.911 15 403.598V171.741C15 156.428 27.458 143.969 42.772 143.969H131.65C135.792 143.969 139.15 140.612 139.15 136.469C139.15 132.326 135.792 128.969 131.65 128.969H42.772C19.188 128.969 0 148.156 0 171.741V403.597C0 427.181 19.188 446.368 42.772 446.368H438.825C462.409 446.368 481.597 427.18 481.597 403.597V372.665C481.597 368.523 478.239 365.166 474.097 365.166V365.166Z" fill="#1890FF"/>
<path d="M434.485 267.589V245.418C434.485 239.061 429.312 233.888 422.954 233.888H346.364C340.006 233.888 334.833 239.061 334.833 245.418V267.589C334.833 273.947 340.006 279.12 346.364 279.12H422.954C429.312 279.12 434.485 273.947 434.485 267.589V267.589ZM419.485 264.12H349.832V248.888H419.485V264.12Z" fill="#1890FF"/>
</g>
<defs>
<clipPath id="clip0">
<rect width="512" height="512" fill="white"/>
</clipPath>
</defs>
</svg>
