<svg width="502" height="502" viewBox="0 0 502 502" fill="none" xmlns="http://www.w3.org/2000/svg">
<g clip-path="url(#clip0)">
<path d="M501.8 270.1C501.2 256.2 487.6 245.1 461.3 237.1C440.9 231 415 227.3 387 226.7V120C386.9 118.2 386.4 116.5 385.5 115C382.7 102.9 369.2 93.0999 345.3 85.8999C322.8 79.0999 293.4 75.3999 262.5 75.3999C231.7 75.3999 202.6 79.0999 180.5 85.8999C162.4 91.4999 140.7 101.9 140.7 119.8C140.7 120.9 140.8 122 141 123.1L142.1 168.7C77.1 156.3 14.4 199 2.1 263.9C0.7 271.3 0 278.7 0 286.2C0 352.2 53.7 405.9 119.7 405.9C147.2 405.9 173.8 396.5 195.1 379.1C213.8 383.5 235.8 385.9 259.1 386.1C264.2 413.8 324.2 426.5 380.1 426.5C410.9 426.5 440 422.7 462.1 415.8C480.2 410.2 501.9 399.7 501.9 381.8V272C501.9 271.4 501.9 270.7 501.8 270.1ZM366.1 175.3C366.1 176.6 361.3 183.5 339.6 190.1C319.3 196.2 291.2 199.8 262.6 199.8C237.9 199.8 213.7 197.2 194.5 192.3C194.2 192.2 194 192.2 193.7 192.1C184.2 184.6 173.7 178.6 162.4 174.4L161.7 146.2C168.6 149.7 175.8 152.5 183.3 154.5C205 160.8 233.1 164.2 262.6 164.2C293.4 164.2 322.9 160.5 345.4 153.7C352.9 151.5 360.2 148.6 367.1 145V171.2C366 172.6 366.1 173.9 366.1 175.3ZM186.5 105.2C206.7 98.9999 233.7 95.4999 262.5 95.4999C291.1 95.4999 319.2 98.9999 339.5 105.2C361.2 111.8 366 118.6 366 119.9C366 121.3 361.1 128.2 339.4 134.7C319.1 140.8 291.1 144.3 262.5 144.3C234.9 144.3 208.7 141.1 188.8 135.3C167.3 129.1 161.3 122.3 160.8 120.1C160.8 119.9 160.7 119.9 160.7 119.9C160.8 118 165.4 111.6 186.5 105.2ZM186.8 360C146.1 397 83 394.1 46 353.4C9 312.7 11.9 249.6 52.6 212.6C70.9 195.9 94.9 186.7 119.7 186.7C129.7 186.7 139.6 188.2 149.2 191.1C183.9 201.9 210 230.7 217.4 266.2C218.7 272.8 219.4 279.6 219.4 286.3C219.5 314.4 207.6 341.1 186.8 360ZM212.2 362.2C220.3 352.3 226.8 341.2 231.4 329.3C239.9 330 248.7 330.5 257.9 330.6V332.4L258.5 366.3C243 366.1 227.5 364.7 212.2 362.2ZM238.9 274.4C244.7 274.8 250.8 275 257 275.1L257.6 310.5C250.6 310.4 243.7 310.1 237.1 309.6C238.6 301.9 239.4 294 239.4 286.2C239.4 282.3 239.2 278.4 238.9 274.4ZM263.5 255.2C263.2 255.2 262.8 255.2 262.5 255.2C252.9 255.2 243.6 254.8 235 254.2C231.2 240.8 225.2 228.2 217.1 217C232.1 218.9 247.2 219.9 262.4 219.9C293.3 219.9 322.8 216.2 345.3 209.4C352.8 207.2 360 204.3 366.9 200.8V227C324 228.2 279.9 237.2 263.5 255.2ZM276.7 271.1C276.7 271 276.7 270.9 276.8 270.7C277.7 268 284.8 261.4 305.5 255.6C324.9 250.1 350.2 247.1 376.8 247.1H378.5C407.1 247.1 435.1 250.4 455.5 256.6C476.8 263 481.8 269.6 481.9 271.1V271.2C481.8 272.7 476.8 279.6 454.6 286.2C434.1 292.3 407.1 295.6 378.6 295.6C351 295.6 324.8 292.4 304.9 286.7C283.4 280.5 277.5 273.6 276.9 271.5C276.7 271.1 276.7 271.1 276.7 271.1ZM456.3 396.8C436.1 403.1 409 406.6 380.2 406.6C351.3 406.6 324.3 403.2 304.3 397.1C283.2 390.6 278.8 383.9 278.8 382.4C278.8 382.3 278.8 382.3 278.8 382.2L278.3 353.2C286.3 357.1 294.6 360.1 303.2 362.3C324.2 367.8 350.9 370.9 378.3 370.9C409.2 370.9 438.5 367.2 460.9 360.4C468.2 358.2 475.2 355.3 481.9 351.9V381.9H482C482 383.3 477.4 390.2 456.3 396.8ZM482.1 323.2H482C482 324.2 481.4 325.4 481.4 326.5C481.4 327.9 476.7 334.7 455.1 341.3C434.6 347.5 407.3 350.9 378.4 350.9C323 350.9 285.7 338.4 277.9 328.7L277.8 320.3L277.4 297.3C284.4 300.8 291.7 303.6 299.2 305.7C320.9 312 349 315.4 378.5 315.4C408.9 315.4 437.9 311.8 460.2 305.2C467.8 303.1 475.1 300.2 482.1 296.6V323.2V323.2Z" fill="#1890FF"/>
<path d="M156.1 300.4C151.5 284.1 136.6 272.9 119.7 272.9C109.9 272.9 101.9 265 101.9 255.2C102 245.3 109.9 237.4 119.7 237.4C129.5 237.4 137.5 245.4 137.5 255.2C137.5 260.7 142 265.2 147.5 265.2C153 265.2 157.5 260.7 157.5 255.2C157.5 238.3 146.3 223.4 130 218.8V214.3C130 208.8 125.5 204.3 120 204.3C114.5 204.3 110 208.8 110 214.3V218.6C89.9 224 77.9 244.7 83.3 264.8C87.7 281.3 102.6 292.8 119.7 292.8C129.5 292.8 137.5 300.7 137.5 310.5C137.5 320.3 129.6 328.3 119.8 328.3C110 328.3 102 320.4 102 310.6C102 305.1 97.5 300.6 92 300.6C86.5 300.6 82 305.1 82 310.6C82.1 327.7 93.5 342.6 110 347.1V355.8C110 361.3 114.5 365.8 120 365.8C125.5 365.8 130 361.3 130 355.8V347C150.1 341.3 161.8 320.5 156.1 300.4Z" fill="#1890FF"/>
</g>
<defs>
<clipPath id="clip0">
<rect width="501.9" height="501.9" fill="white"/>
</clipPath>
</defs>
</svg>
