<svg width="93" height="92" viewBox="0 0 93 92" fill="none" xmlns="http://www.w3.org/2000/svg">
<path d="M92.9409 46C92.9409 71.4051 72.2853 92 46.8052 92C21.3252 92 0.669556 71.4051 0.669556 46C0.669556 20.5949 21.3252 0 46.8052 0C72.2853 0 92.9409 20.5949 92.9409 46ZM11.1793 46C11.1793 65.6178 27.1296 81.5212 46.8052 81.5212C66.4809 81.5212 82.4312 65.6178 82.4312 46C82.4312 26.3822 66.4809 10.4788 46.8052 10.4788C27.1296 10.4788 11.1793 26.3822 11.1793 46Z" fill="#F7F5FF"/>
<path d="M46.8052 3.99998C46.8052 1.79084 48.5994 -0.0179793 50.8003 0.17276C56.1279 0.634474 61.3449 2.0172 66.2147 4.26887C72.2966 7.08101 77.6908 11.1809 82.0217 16.2832C86.3526 21.3856 89.5163 27.3677 91.2924 33.8132C93.0685 40.2587 93.4144 47.0127 92.306 53.605C91.1977 60.1974 88.6617 66.4697 84.8746 71.9853C81.0874 77.501 76.1402 82.1275 70.3772 85.5427C64.6143 88.9579 58.174 91.0798 51.5049 91.7607C46.1676 92.3056 40.7863 91.9171 35.6014 90.623C33.4552 90.0873 32.3472 87.7887 33.0704 85.6983L33.882 83.3527C34.6034 81.2676 36.8744 80.1841 39.0278 80.6644C42.7605 81.497 46.612 81.7266 50.4343 81.3364C55.5842 80.8106 60.5574 79.1721 65.0075 76.5348C69.4577 73.8976 73.278 70.3251 76.2024 66.0659C79.1268 61.8067 81.0851 56.9632 81.941 51.8726C82.7968 46.782 82.5297 41.5665 81.1582 36.5893C79.7867 31.6121 77.3437 26.9927 73.9994 23.0527C70.6551 19.1127 66.4897 15.9467 61.7932 13.7752C58.3095 12.1644 54.5956 11.1295 50.7969 10.7024C48.6016 10.4556 46.8052 8.68792 46.8052 6.47878V3.99998Z" fill="url(#paint0_linear)"/>
<path d="M43.298 47.25C44.2898 47.25 45.2593 46.9568 46.084 46.4074C46.9087 45.8579 47.5514 45.0771 47.931 44.1634C48.3105 43.2498 48.4098 42.2445 48.2163 41.2746C48.0228 40.3046 47.5452 39.4137 46.8439 38.7145C46.1426 38.0152 45.249 37.539 44.2763 37.3461C43.3035 37.1531 42.2952 37.2522 41.3789 37.6306C40.4626 38.009 39.6794 38.6499 39.1283 39.4722C38.5773 40.2944 38.2832 41.2611 38.2832 42.25C38.2845 43.5757 38.8133 44.8467 39.7534 45.7841C40.6936 46.7215 41.9684 47.2487 43.298 47.25ZM43.298 39.75C43.7939 39.75 44.2786 39.8966 44.691 40.1713C45.1033 40.446 45.4247 40.8365 45.6145 41.2933C45.8042 41.7501 45.8539 42.2528 45.7571 42.7377C45.6604 43.2227 45.4216 43.6681 45.0709 44.0178C44.7203 44.3674 44.2735 44.6055 43.7871 44.702C43.3007 44.7984 42.7966 44.7489 42.3384 44.5597C41.8803 44.3705 41.4887 44.0501 41.2131 43.6389C40.9376 43.2278 40.7906 42.7445 40.7906 42.25C40.7915 41.5872 41.0559 40.9519 41.526 40.4832C41.996 40.0146 42.6332 39.7509 43.298 39.75Z" fill="#1890FF"/>
<path d="M62.8855 50.4625C63.2994 49.9099 63.5759 49.2672 63.6923 48.5873C63.8087 47.9074 63.7618 47.2097 63.5553 46.5514L62.7594 43.9697C62.3858 42.7452 61.6262 41.6734 60.5934 40.9133C59.5605 40.1532 58.3095 39.7453 57.0258 39.75H51.4004C51.0679 39.75 50.749 39.8817 50.5139 40.1162C50.2788 40.3506 50.1467 40.6685 50.1467 41C50.1467 41.3316 50.2788 41.6495 50.5139 41.8839C50.749 42.1183 51.0679 42.25 51.4004 42.25H57.0258C57.7728 42.2475 58.5007 42.485 59.1017 42.9274C59.7026 43.3698 60.1445 43.9935 60.362 44.706L61.1578 47.2867C61.2457 47.5713 61.2653 47.8725 61.2151 48.1661C61.1649 48.4597 61.0464 48.7375 60.869 48.977C60.6916 49.2166 60.4603 49.4114 60.1936 49.5456C59.927 49.6799 59.6325 49.7499 59.3338 49.75H47.8389C47.8034 49.75 47.7737 49.7672 47.7386 49.7702C47.6544 49.7669 47.573 49.75 47.4875 49.75H39.6269C38.2337 49.745 36.8761 50.188 35.7554 51.0132C34.6348 51.8385 33.811 53.0021 33.4062 54.3313L32.4702 57.3625C32.2516 58.0719 32.2029 58.8225 32.3281 59.5541C32.4533 60.2856 32.7489 60.9777 33.1911 61.5746C33.6334 62.1715 34.2099 62.6567 34.8743 62.9911C35.5388 63.3255 36.2727 63.4998 37.017 63.5H50.0965C50.8409 63.4999 51.5748 63.3256 52.2394 62.9913C52.9039 62.6569 53.4804 62.1717 53.9227 61.5748C54.365 60.9778 54.6606 60.2858 54.7859 59.5542C54.9111 58.8226 54.8624 58.0719 54.6438 57.3625L53.7084 54.3315C53.4715 53.5767 53.0984 52.8713 52.6076 52.25H59.3338C60.0254 52.2532 60.7079 52.0929 61.3253 51.7821C61.9427 51.4714 62.4774 51.0192 62.8855 50.4625ZM51.906 60.089C51.6981 60.3727 51.4257 60.6031 51.1111 60.7615C50.7966 60.9198 50.4489 61.0016 50.0965 61H37.017C36.6649 61 36.3178 60.9176 36.0035 60.7594C35.6893 60.6012 35.4166 60.3718 35.2075 60.0894C34.9984 59.807 34.8586 59.4797 34.7995 59.1337C34.7404 58.7876 34.7636 58.4326 34.8671 58.0971L35.8025 55.0661C36.051 54.249 36.5573 53.5335 37.2462 53.0262C37.9351 52.5188 38.7698 52.2466 39.6263 52.25H47.4869C48.3433 52.2466 49.178 52.5188 49.8669 53.0262C50.5558 53.5335 51.0621 54.249 51.3106 55.0661L52.246 58.0971C52.3515 58.4324 52.3756 58.7877 52.3165 59.1341C52.2574 59.4804 52.1167 59.8078 51.906 60.0894V60.089Z" fill="#1890FF"/>
<path d="M53.9543 37.25C54.8221 37.25 55.6705 36.9934 56.3921 36.5127C57.1137 36.0319 57.6761 35.3487 58.0082 34.5492C58.3403 33.7498 58.4272 32.8701 58.2579 32.0215C58.0886 31.1728 57.6707 30.3933 57.057 29.7814C56.4434 29.1696 55.6615 28.7529 54.8103 28.5841C53.9592 28.4153 53.0769 28.5019 52.2751 28.833C51.4733 29.1642 50.788 29.7249 50.3059 30.4444C49.8238 31.1638 49.5664 32.0097 49.5664 32.875C49.5678 34.0349 50.0305 35.1469 50.8531 35.967C51.6757 36.7872 52.791 37.2486 53.9543 37.25ZM53.9543 31C54.3262 31 54.6898 31.11 54.9991 31.316C55.3083 31.522 55.5494 31.8149 55.6917 32.1575C55.834 32.5001 55.8713 32.8771 55.7987 33.2408C55.7261 33.6045 55.547 33.9386 55.284 34.2008C55.021 34.463 54.686 34.6416 54.3212 34.714C53.9564 34.7863 53.5783 34.7492 53.2347 34.6073C52.891 34.4654 52.5973 34.225 52.3907 33.9167C52.1841 33.6083 52.0738 33.2458 52.0738 32.875C52.0743 32.3779 52.2726 31.9013 52.6252 31.5498C52.9777 31.1983 53.4557 31.0006 53.9543 31Z" fill="#1890FF"/>
<defs>
<linearGradient id="paint0_linear" x1="62.8953" y1="0.158936" x2="62.8953" y2="92" gradientUnits="userSpaceOnUse">
<stop stop-color="#1890FF"/>
<stop offset="1" stop-color="#1890FF"/>
</linearGradient>
</defs>
</svg>
