<svg width="93" height="92" viewBox="0 0 93 92" fill="none" xmlns="http://www.w3.org/2000/svg">
<path d="M92.9409 46C92.9409 71.4051 72.2853 92 46.8052 92C21.3252 92 0.669556 71.4051 0.669556 46C0.669556 20.5949 21.3252 0 46.8052 0C72.2853 0 92.9409 20.5949 92.9409 46ZM11.1793 46C11.1793 65.6178 27.1296 81.5212 46.8052 81.5212C66.4809 81.5212 82.4312 65.6178 82.4312 46C82.4312 26.3822 66.4809 10.4788 46.8052 10.4788C27.1296 10.4788 11.1793 26.3822 11.1793 46Z" fill="#F7F5FF"/>
<path d="M43.2978 47.25C44.2897 47.25 45.2592 46.9568 46.0839 46.4074C46.9085 45.8579 47.5513 45.0771 47.9309 44.1634C48.3104 43.2498 48.4097 42.2445 48.2162 41.2746C48.0227 40.3046 47.5451 39.4137 46.8438 38.7145C46.1425 38.0152 45.2489 37.539 44.2762 37.3461C43.3034 37.1531 42.2951 37.2522 41.3788 37.6306C40.4624 38.009 39.6792 38.6499 39.1282 39.4722C38.5772 40.2944 38.2831 41.2611 38.2831 42.25C38.2844 43.5757 38.8131 44.8467 39.7533 45.7841C40.6935 46.7215 41.9682 47.2487 43.2978 47.25ZM43.2978 39.75C43.7937 39.75 44.2785 39.8966 44.6909 40.1713C45.1032 40.446 45.4246 40.8365 45.6143 41.2933C45.8041 41.7501 45.8538 42.2528 45.757 42.7377C45.6603 43.2227 45.4215 43.6681 45.0708 44.0178C44.7201 44.3674 44.2734 44.6055 43.787 44.702C43.3006 44.7984 42.7965 44.7489 42.3383 44.5597C41.8801 44.3705 41.4885 44.0501 41.213 43.6389C40.9375 43.2278 40.7905 42.7445 40.7905 42.25C40.7914 41.5872 41.0558 40.9519 41.5258 40.4832C41.9959 40.0146 42.6331 39.7509 43.2978 39.75Z" fill="#1890FF"/>
<path d="M62.8855 50.4625C63.2993 49.9099 63.5758 49.2672 63.6923 48.5873C63.8087 47.9074 63.7617 47.2097 63.5552 46.5514L62.7593 43.9697C62.3857 42.7452 61.6261 41.6734 60.5933 40.9133C59.5605 40.1532 58.3094 39.7453 57.0257 39.75H51.4003C51.0678 39.75 50.7489 39.8817 50.5138 40.1162C50.2787 40.3506 50.1466 40.6685 50.1466 41C50.1466 41.3316 50.2787 41.6495 50.5138 41.8839C50.7489 42.1183 51.0678 42.25 51.4003 42.25H57.0257C57.7727 42.2475 58.5007 42.485 59.1016 42.9274C59.7025 43.3698 60.1445 43.9935 60.3619 44.706L61.1578 47.2867C61.2456 47.5713 61.2652 47.8725 61.2151 48.1661C61.1649 48.4597 61.0463 48.7375 60.8689 48.977C60.6915 49.2166 60.4602 49.4114 60.1936 49.5456C59.927 49.6799 59.6325 49.7499 59.3338 49.75H47.8388C47.8034 49.75 47.7737 49.7672 47.7386 49.7702C47.6543 49.7669 47.5729 49.75 47.4874 49.75H39.6268C38.2337 49.745 36.876 50.188 35.7554 51.0132C34.6348 51.8385 33.8109 53.0021 33.4062 54.3313L32.4702 57.3625C32.2515 58.0719 32.2029 58.8225 32.3281 59.5541C32.4533 60.2856 32.7489 60.9777 33.1911 61.5746C33.6333 62.1715 34.2098 62.6567 34.8743 62.9911C35.5387 63.3255 36.2726 63.4998 37.0169 63.5H50.0965C50.8408 63.4999 51.5748 63.3256 52.2393 62.9913C52.9038 62.6569 53.4804 62.1717 53.9227 61.5748C54.3649 60.9778 54.6606 60.2858 54.7858 59.5542C54.911 58.8226 54.8624 58.0719 54.6437 57.3625L53.7084 54.3315C53.4714 53.5767 53.0983 52.8713 52.6075 52.25H59.3338C60.0254 52.2532 60.7078 52.0929 61.3252 51.7821C61.9426 51.4714 62.4773 51.0192 62.8855 50.4625V50.4625ZM51.9059 60.089C51.698 60.3727 51.4256 60.6031 51.1111 60.7615C50.7965 60.9198 50.4488 61.0016 50.0965 61H37.0169C36.6649 61 36.3177 60.9176 36.0035 60.7594C35.6892 60.6012 35.4165 60.3718 35.2074 60.0894C34.9983 59.807 34.8586 59.4797 34.7995 59.1337C34.7403 58.7876 34.7635 58.4326 34.8671 58.0971L35.8025 55.0661C36.0509 54.249 36.5573 53.5335 37.2462 53.0262C37.9351 52.5188 38.7698 52.2466 39.6262 52.25H47.4868C48.3433 52.2466 49.1779 52.5188 49.8668 53.0262C50.5557 53.5335 51.062 54.249 51.3106 55.0661L52.2459 58.0971C52.3514 58.4324 52.3756 58.7877 52.3165 59.1341C52.2574 59.4804 52.1167 59.8078 51.9059 60.0894V60.089Z" fill="#1890FF"/>
<path d="M53.9542 37.25C54.822 37.25 55.6704 36.9934 56.392 36.5127C57.1136 36.0319 57.676 35.3487 58.0081 34.5492C58.3402 33.7498 58.4271 32.8701 58.2578 32.0215C58.0885 31.1728 57.6706 30.3933 57.0569 29.7814C56.4432 29.1696 55.6614 28.7529 54.8102 28.5841C53.959 28.4153 53.0768 28.5019 52.275 28.833C51.4732 29.1642 50.7879 29.7249 50.3058 30.4444C49.8236 31.1638 49.5663 32.0097 49.5663 32.875C49.5677 34.0349 50.0304 35.1469 50.853 35.967C51.6756 36.7872 52.7909 37.2486 53.9542 37.25ZM53.9542 31C54.3261 31 54.6897 31.11 54.9989 31.316C55.3082 31.522 55.5492 31.8149 55.6916 32.1575C55.8339 32.5001 55.8711 32.8771 55.7986 33.2408C55.726 33.6045 55.5469 33.9386 55.2839 34.2008C55.0209 34.463 54.6858 34.6416 54.3211 34.714C53.9563 34.7863 53.5782 34.7492 53.2345 34.6073C52.8909 34.4654 52.5972 34.225 52.3906 33.9167C52.1839 33.6083 52.0737 33.2458 52.0737 32.875C52.0742 32.3779 52.2725 31.9013 52.6251 31.5498C52.9776 31.1983 53.4556 31.0006 53.9542 31Z" fill="#1890FF"/>
</svg>
