<svg width="371" height="301" viewBox="0 0 371 301" fill="none" xmlns="http://www.w3.org/2000/svg">
<g clip-path="url(#clip0)">
<path d="M58.8944 0L34.3786 47.8178H39.3275V86.8113H14.3865L0.0178223 114.837L178.056 206.117L236.933 91.2803L58.8944 0Z" fill="#F2F2F2"/>
<path d="M326.673 31.1062H53.7181V168.048H326.673V31.1062Z" fill="#3F3D56"/>
<path opacity="0.3" d="M293.482 80.3123H92.0155V80.7765H293.482V80.3123Z" fill="#1890FF"/>
<path opacity="0.3" d="M293.714 91.9172H92.2474V92.3814H293.714V91.9172Z" fill="#1890FF"/>
<path opacity="0.3" d="M293.714 115.128H92.2474V115.592H293.714V115.128Z" fill="#1890FF"/>
<path opacity="0.3" d="M293.714 125.34H92.2474V125.805H293.714V125.34Z" fill="#1890FF"/>
<path opacity="0.3" d="M293.714 103.523H92.2474V103.987H293.714V103.523Z" fill="#1890FF"/>
<path d="M263.077 300.348C310.762 300.348 349.42 296.814 349.42 292.456C349.42 288.098 310.762 284.564 263.077 284.564C215.391 284.564 176.734 288.098 176.734 292.456C176.734 296.814 215.391 300.348 263.077 300.348Z" fill="#3F3D56"/>
<path d="M97.837 125.677L97.1964 125.005L127.185 96.422L153.62 115.437L174.997 91.7362L184.371 99.7039L209.869 84.4045L238.193 103.441L282.646 78.1562L283.104 78.963L238.152 104.533L209.842 85.5042L184.277 100.843L175.082 93.0272L153.752 116.676L127.267 97.6257L97.837 125.677Z" fill="#1890FF"/>
<path opacity="0.4" d="M355.222 40.3904C363.811 40.3904 370.773 33.4279 370.773 24.8393C370.773 16.2508 363.811 9.28833 355.222 9.28833C346.634 9.28833 339.671 16.2508 339.671 24.8393C339.671 33.4279 346.634 40.3904 355.222 40.3904Z" fill="#1890FF"/>
<path opacity="0.4" d="M326.441 43.1755C332.466 43.1755 337.35 38.2914 337.35 32.2666C337.35 26.2418 332.466 21.3577 326.441 21.3577C320.417 21.3577 315.532 26.2418 315.532 32.2666C315.532 38.2914 320.417 43.1755 326.441 43.1755Z" fill="#1890FF"/>
<path opacity="0.4" d="M312.979 238.144C316.184 238.144 318.782 235.546 318.782 232.341C318.782 229.136 316.184 226.538 312.979 226.538C309.774 226.538 307.177 229.136 307.177 232.341C307.177 235.546 309.774 238.144 312.979 238.144Z" fill="#1890FF"/>
<path opacity="0.4" d="M214.102 266.924C216.538 266.924 218.512 264.95 218.512 262.514C218.512 260.079 216.538 258.104 214.102 258.104C211.667 258.104 209.693 260.079 209.693 262.514C209.693 264.95 211.667 266.924 214.102 266.924Z" fill="#1890FF"/>
<path opacity="0.4" d="M199.248 209.827C202.453 209.827 205.051 207.229 205.051 204.024C205.051 200.819 202.453 198.221 199.248 198.221C196.043 198.221 193.445 200.819 193.445 204.024C193.445 207.229 196.043 209.827 199.248 209.827Z" fill="#1890FF"/>
<path d="M282.341 86.579C285.674 86.579 288.376 83.8771 288.376 80.5442C288.376 77.2114 285.674 74.5095 282.341 74.5095C279.008 74.5095 276.307 77.2114 276.307 80.5442C276.307 83.8771 279.008 86.579 282.341 86.579Z" fill="#1890FF"/>
<path d="M243.131 189.85L238.015 190.418C238.015 190.418 235.741 200.65 238.015 214.292C240.289 227.934 243.131 241.576 243.131 241.576C243.131 241.576 245.404 285.914 246.541 286.482C247.678 287.05 257.91 290.461 258.478 287.05C259.047 283.64 259.047 205.766 259.047 205.766L267.004 243.282C267.004 243.282 268.141 290.461 270.415 290.461C272.689 290.461 280.078 289.893 280.078 285.914C280.078 281.935 281.784 229.639 281.784 229.639C281.784 229.639 281.215 190.987 278.941 189.85C276.668 188.713 243.131 189.85 243.131 189.85Z" fill="#2F2E41"/>
<path d="M247.678 284.777C247.678 284.777 242.562 284.208 241.425 284.777C240.289 285.345 238.583 289.324 241.425 291.598C244.268 293.872 251.657 297.282 253.931 297.282C255.508 297.212 257.054 296.826 258.478 296.145L257.341 286.482L247.678 284.777Z" fill="#2F2E41"/>
<path d="M270.415 287.619L270.984 295.577C270.984 295.577 278.373 296.713 278.942 295.577C279.51 294.44 285.194 291.598 285.763 291.029C286.331 290.461 286.9 284.208 283.489 283.64C280.079 283.071 278.942 284.777 278.942 284.777L270.415 287.619Z" fill="#2F2E41"/>
<path d="M222.667 142.102C222.667 142.102 209.025 155.176 210.731 161.997C212.436 168.818 226.078 188.713 226.078 188.713C226.078 188.713 239.152 195.534 240.857 188.713C242.562 181.892 231.762 183.597 231.762 183.597L223.236 163.134L232.899 149.492L222.667 142.102Z" fill="#FFB8B8"/>
<path d="M283.624 122.212C283.624 122.212 296.052 114.22 295.764 108.73C295.477 103.239 287.985 85.9279 287.985 85.9279C287.985 85.9279 282.124 73.7427 279.794 78.7226C277.464 83.7024 282.856 89.0033 282.856 89.0033L286.337 105.985L276.878 115.009L283.624 122.212Z" fill="#FFB8B8"/>
<path d="M252.794 110.839C258.445 110.839 263.026 106.258 263.026 100.607C263.026 94.9564 258.445 90.3755 252.794 90.3755C247.143 90.3755 242.562 94.9564 242.562 100.607C242.562 106.258 247.143 110.839 252.794 110.839Z" fill="#FFB8B8"/>
<path d="M247.678 106.86L249.383 117.66L261.889 115.386C261.889 115.386 261.32 104.586 261.32 103.449C261.32 102.312 247.678 106.86 247.678 106.86Z" fill="#FFB8B8"/>
<path d="M247.11 117.66C247.11 117.66 261.32 114.249 263.026 115.386C264.731 116.523 273.257 117.66 273.257 117.66L282.92 132.439L280.078 151.197C280.078 151.197 279.51 181.323 280.647 186.439C281.784 191.555 288.036 192.123 274.963 193.26C261.889 194.397 259.615 192.692 250.52 194.966C241.425 197.239 234.036 193.829 236.31 191.555C238.583 189.281 242.562 152.902 238.015 149.492C233.467 146.081 231.762 128.46 231.762 128.46C231.762 128.46 247.11 120.502 247.11 117.66Z" fill="#D0CDE1"/>
<path d="M271.552 119.365L273.257 117.66L276.668 114.249C276.668 114.249 287.752 119.081 287.184 120.786C286.615 122.491 282.92 132.439 282.92 132.439L277.805 134.144L271.552 119.365Z" fill="#D0CDE1"/>
<path d="M238.583 129.597L231.762 128.46C231.762 128.46 226.646 134.144 224.941 136.418C223.236 138.691 219.825 144.376 219.825 144.376L231.762 152.902L240.857 143.239L238.583 129.597Z" fill="#D0CDE1"/>
<path d="M256.365 88.2112L256.26 87.3915C255.564 87.3876 254.873 87.4963 254.212 87.7133C254.144 87.2191 254.188 86.716 254.338 86.2404C253.667 86.4131 253.027 86.6912 252.443 87.0644L252.03 85.5686L246.347 88.3691C244.308 89.3744 242.157 90.4791 240.991 92.4314C239.691 94.608 239.917 97.4052 240.806 99.7796C241.694 102.154 243.171 104.255 244.355 106.497C244.804 107.461 245.344 108.38 245.968 109.242C248.112 111.916 252.288 112.456 255.312 110.842C256.463 110.288 257.38 109.344 257.901 108.178C258.122 107.454 258.294 106.717 258.418 105.971C258.792 104.443 259.227 101.289 260.468 100.323C261.014 99.8974 262.097 101.307 262.549 100.784C263.712 99.4376 263.468 97.3617 262.746 95.736C262.052 94.1033 261.242 92.5228 260.321 91.0068C259.931 90.3974 256.352 88.1129 256.365 88.2112Z" fill="#2F2E41"/>
<path d="M35.6139 53.3882H5.90454V83.0976H35.6139V53.3882Z" fill="#3F3D56"/>
</g>
<defs>
<clipPath id="clip0">
<rect width="370.755" height="300.348" fill="white" transform="translate(0.0178223)"/>
</clipPath>
</defs>
</svg>
