<svg width="93" height="92" viewBox="0 0 93 92" fill="none" xmlns="http://www.w3.org/2000/svg">
<path d="M36.7758 58.5H55.5811C56.5783 58.4989 57.5343 58.1035 58.2394 57.4004C58.9445 56.6974 59.3411 55.7442 59.3422 54.75V44.75C59.3422 44.4185 59.2101 44.1005 58.975 43.8661C58.7399 43.6317 58.421 43.5 58.0885 43.5C57.756 43.5 57.4371 43.6317 57.202 43.8661C56.9669 44.1005 56.8348 44.4185 56.8348 44.75V54.75C56.8345 55.0814 56.7023 55.3992 56.4673 55.6336C56.2323 55.8679 55.9135 55.9997 55.5811 56H36.7758C36.4434 55.9997 36.1247 55.8679 35.8897 55.6336C35.6546 55.3992 35.5224 55.0814 35.5221 54.75V37.25C35.5224 36.9186 35.6546 36.6008 35.8897 36.3664C36.1247 36.1321 36.4434 36.0003 36.7758 36H48.059C48.3915 36 48.7104 35.8683 48.9455 35.6339C49.1806 35.3995 49.3127 35.0815 49.3127 34.75C49.3127 34.4185 49.1806 34.1005 48.9455 33.8661C48.7104 33.6317 48.3915 33.5 48.059 33.5H36.7758C35.7787 33.5011 34.8227 33.8965 34.1176 34.5996C33.4125 35.3026 33.0159 36.2558 33.0148 37.25V54.75C33.0159 55.7442 33.4125 56.6974 34.1176 57.4004C34.8227 58.1035 35.7787 58.4989 36.7758 58.5Z" fill="#1890FF"/>
<path d="M58.0885 28.5C56.8487 28.5 55.6368 28.8666 54.6059 29.5533C53.5751 30.2401 52.7717 31.2162 52.2972 32.3582C51.8228 33.5003 51.6986 34.7569 51.9405 35.9693C52.1824 37.1817 52.7794 38.2953 53.6561 39.1694C54.5327 40.0435 55.6496 40.6388 56.8656 40.8799C58.0815 41.1211 59.3419 40.9973 60.4873 40.5242C61.6327 40.0512 62.6117 39.2501 63.3005 38.2223C63.9893 37.1945 64.3569 35.9861 64.3569 34.75C64.355 33.093 63.6939 31.5044 62.5188 30.3327C61.3437 29.1611 59.7504 28.502 58.0885 28.5ZM58.0885 38.5C57.3446 38.5 56.6175 38.2801 55.999 37.868C55.3805 37.456 54.8984 36.8703 54.6137 36.1851C54.3291 35.4998 54.2546 34.7458 54.3997 34.0184C54.5448 33.291 54.903 32.6228 55.429 32.0983C55.955 31.5739 56.6252 31.2168 57.3548 31.0721C58.0843 30.9274 58.8406 31.0016 59.5278 31.2855C60.215 31.5693 60.8024 32.0499 61.2157 32.6666C61.629 33.2833 61.8496 34.0083 61.8496 34.75C61.8485 35.7442 61.4519 36.6974 60.7468 37.4004C60.0417 38.1035 59.0857 38.4989 58.0885 38.5Z" fill="#1890FF"/>
<path d="M39.2832 41H45.5517C45.8842 41 46.203 40.8683 46.4382 40.6339C46.6733 40.3995 46.8053 40.0815 46.8053 39.75C46.8053 39.4185 46.6733 39.1005 46.4382 38.8661C46.203 38.6317 45.8842 38.5 45.5517 38.5H39.2832C38.9507 38.5 38.6318 38.6317 38.3967 38.8661C38.1616 39.1005 38.0295 39.4185 38.0295 39.75C38.0295 40.0815 38.1616 40.3995 38.3967 40.6339C38.6318 40.8683 38.9507 41 39.2832 41Z" fill="#1890FF"/>
<path d="M38.0295 44.75C38.0295 45.0815 38.1616 45.3995 38.3967 45.6339C38.6318 45.8683 38.9507 46 39.2832 46H50.5664C50.8989 46 51.2178 45.8683 51.4529 45.6339C51.688 45.3995 51.8201 45.0815 51.8201 44.75C51.8201 44.4185 51.688 44.1005 51.4529 43.8661C51.2178 43.6317 50.8989 43.5 50.5664 43.5H39.2832C38.9507 43.5 38.6318 43.6317 38.3967 43.8661C38.1616 44.1005 38.0295 44.4185 38.0295 44.75Z" fill="#1890FF"/>
<path d="M92.9409 46C92.9409 71.4051 72.2853 92 46.8052 92C21.3252 92 0.669556 71.4051 0.669556 46C0.669556 20.5949 21.3252 0 46.8052 0C72.2853 0 92.9409 20.5949 92.9409 46ZM11.1793 46C11.1793 65.6178 27.1296 81.5212 46.8052 81.5212C66.4809 81.5212 82.4312 65.6178 82.4312 46C82.4312 26.3822 66.4809 10.4788 46.8052 10.4788C27.1296 10.4788 11.1793 26.3822 11.1793 46Z" fill="#F7F5FF"/>
</svg>
