<svg width="512" height="512" viewBox="0 0 512 512" fill="none" xmlns="http://www.w3.org/2000/svg">
<path d="M479.977 263.386C479.822 261.376 478.915 259.499 477.436 258.13C475.957 256.76 474.016 256 472 256H357.21L351.99 151.6C351.887 149.55 351.001 147.618 349.514 146.203C348.026 144.789 346.052 144 344 144H288V104C288.004 92.4802 285.243 81.1278 279.949 70.8967C274.654 60.6656 266.982 51.8547 257.576 45.2045C248.169 38.5542 237.304 34.2589 225.893 32.6795C214.482 31.1001 202.859 32.2826 192 36.1279C181.141 32.2826 169.518 31.1001 158.107 32.6795C146.696 34.2589 135.831 38.5542 126.424 45.2045C117.018 51.8547 109.345 60.6656 104.051 70.8967C98.7571 81.1278 95.996 92.4802 96 104V144H40C37.9475 144 35.9736 144.789 34.4864 146.203C32.9992 147.618 32.1126 149.55 32.01 151.6L16.01 471.6C15.9558 472.683 16.1223 473.765 16.4993 474.782C16.8764 475.799 17.4562 476.728 18.2035 477.513C18.9507 478.299 19.8499 478.925 20.8464 479.352C21.8428 479.779 22.9158 480 24 480H488C489.102 480 490.193 479.772 491.203 479.331C492.213 478.89 493.121 478.244 493.87 477.436C494.619 476.627 495.193 475.672 495.556 474.631C495.918 473.59 496.062 472.485 495.977 471.386L479.977 263.386ZM456 438.422L473.052 464H438.952L456 438.422ZM477.676 442.091L463.762 421.221L448.84 272H464.592L477.676 442.091ZM432.76 272L447.76 421.946L430.2 448.28L416.639 272H432.76ZM341.19 256H326.133L320.485 160H336.385L341.19 256ZM304.457 160L310.105 256H293.205L288.405 160H304.457ZM216 47.9999C230.847 48.0168 245.081 53.9222 255.579 64.4206C266.078 74.919 271.983 89.153 272 104V144H240V104C240 93.2737 237.6 82.6835 232.975 73.0055C228.35 63.3275 221.618 54.8071 213.273 48.0689C214.177 48.0259 215.085 47.9999 216 47.9999ZM192 53.4139C201.568 57.9615 209.652 65.1266 215.315 74.0794C220.979 83.0322 223.99 93.4062 224 104V144H160V104C160.01 93.4062 163.021 83.0322 168.685 74.0794C174.348 65.1266 182.432 57.9615 192 53.4139V53.4139ZM112 104C112.017 89.153 117.922 74.919 128.421 64.4206C138.919 53.9222 153.153 48.0168 168 47.9999C168.915 47.9999 169.823 48.0259 170.727 48.0689C162.381 54.807 155.649 63.3273 151.025 73.0053C146.4 82.6833 144 93.2737 144 104V144H112V104ZM208.592 464H32.41L47.61 160H96V211.719L75.562 225.344C74.4663 226.074 73.5679 227.064 72.9465 228.225C72.3252 229.386 72 230.683 72 232V296C72 298.122 72.8429 300.156 74.3432 301.657C75.8434 303.157 77.8783 304 80 304H128C130.122 304 132.157 303.157 133.657 301.657C135.157 300.156 136 298.122 136 296V232C136 230.683 135.675 229.386 135.053 228.225C134.432 227.064 133.534 226.074 132.438 225.344L112 211.719V160H224V184C224 186.122 224.843 188.156 226.343 189.657C227.843 191.157 229.878 192 232 192C234.122 192 236.157 191.157 237.657 189.657C239.157 188.156 240 186.122 240 184V160H272.39L277.19 256H232C229.984 256 228.043 256.76 226.564 258.13C225.085 259.499 224.178 261.376 224.023 263.386L208.592 464ZM104 225.615L120 236.281V288H88V236.281L104 225.615ZM239.408 272H400.592L415.361 464H224.639L239.408 272Z" fill="#E6E6E6"/>
<path d="M360 304C357.878 304 355.843 304.843 354.343 306.343C352.843 307.843 352 309.878 352 312V376C351.993 382.363 349.462 388.463 344.963 392.963C340.463 397.462 334.363 399.993 328 400H312C305.637 399.993 299.537 397.462 295.037 392.963C290.538 388.463 288.007 382.363 288 376V312C288 309.878 287.157 307.843 285.657 306.343C284.157 304.843 282.122 304 280 304C277.878 304 275.843 304.843 274.343 306.343C272.843 307.843 272 309.878 272 312V376C272.012 386.605 276.23 396.772 283.729 404.271C291.228 411.77 301.395 415.988 312 416H328C338.605 415.988 348.772 411.77 356.271 404.271C363.77 396.772 367.988 386.605 368 376V312C368 309.878 367.157 307.843 365.657 306.343C364.157 304.843 362.122 304 360 304Z" fill="#E6E6E6"/>
</svg>
