<svg width="32" height="32" viewBox="0 0 32 32" fill="none" xmlns="http://www.w3.org/2000/svg">
<path d="M16 14.4C15.6836 14.4 15.3742 14.4938 15.1111 14.6696C14.848 14.8455 14.6429 15.0953 14.5218 15.3877C14.4007 15.6801 14.369 16.0018 14.4307 16.3121C14.4925 16.6225 14.6449 16.9076 14.8686 17.1314C15.0924 17.3551 15.3775 17.5075 15.6879 17.5693C15.9982 17.631 16.3199 17.5993 16.6123 17.4782C16.9047 17.3571 17.1545 17.152 17.3304 16.8889C17.5062 16.6258 17.6 16.3164 17.6 16C17.6 15.5756 17.4314 15.1687 17.1314 14.8686C16.8313 14.5686 16.4244 14.4 16 14.4ZM16 0C12.8355 0 9.74207 0.938383 7.11088 2.69649C4.4797 4.45459 2.42894 6.95344 1.21793 9.87706C0.00693254 12.8007 -0.309921 16.0177 0.307443 19.1214C0.924806 22.2251 2.44866 25.0761 4.6863 27.3137C6.92394 29.5513 9.77487 31.0752 12.8786 31.6926C15.9823 32.3099 19.1993 31.9931 22.1229 30.7821C25.0466 29.5711 27.5454 27.5203 29.3035 24.8891C31.0616 22.2579 32 19.1645 32 16C32 13.8988 31.5861 11.8183 30.7821 9.87706C29.978 7.93585 28.7994 6.17203 27.3137 4.68629C25.828 3.20055 24.0641 2.022 22.1229 1.21793C20.1817 0.413852 18.1012 0 16 0ZM17.6 28.688V24C17.6 23.5756 17.4314 23.1687 17.1314 22.8686C16.8313 22.5686 16.4244 22.4 16 22.4C15.5757 22.4 15.1687 22.5686 14.8686 22.8686C14.5686 23.1687 14.4 23.5756 14.4 24V28.688C11.584 28.3309 8.96653 27.0478 6.95934 25.0407C4.95216 23.0335 3.66912 20.416 3.31201 17.6H8C8.42435 17.6 8.83132 17.4314 9.13138 17.1314C9.43143 16.8313 9.60001 16.4243 9.60001 16C9.60001 15.5756 9.43143 15.1687 9.13138 14.8686C8.83132 14.5686 8.42435 14.4 8 14.4H3.31201C3.66912 11.584 4.95216 8.96652 6.95934 6.95933C8.96653 4.95215 11.584 3.66911 14.4 3.312V8C14.4 8.42434 14.5686 8.83131 14.8686 9.13137C15.1687 9.43143 15.5757 9.6 16 9.6C16.4244 9.6 16.8313 9.43143 17.1314 9.13137C17.4314 8.83131 17.6 8.42434 17.6 8V3.312C20.416 3.66911 23.0335 4.95215 25.0407 6.95933C27.0478 8.96652 28.3309 11.584 28.688 14.4H24C23.5757 14.4 23.1687 14.5686 22.8686 14.8686C22.5686 15.1687 22.4 15.5756 22.4 16C22.4 16.4243 22.5686 16.8313 22.8686 17.1314C23.1687 17.4314 23.5757 17.6 24 17.6H28.688C28.3309 20.416 27.0478 23.0335 25.0407 25.0407C23.0335 27.0478 20.416 28.3309 17.6 28.688Z" fill="#1890FF"/>
</svg>
