<svg width="32" height="32" viewBox="0 0 32 32" fill="none" xmlns="http://www.w3.org/2000/svg">
<path d="M11.2 27.2C11.4091 27.1975 11.6156 27.154 11.808 27.072C12.0019 26.991 12.1805 26.8773 12.336 26.736C12.4084 26.6573 12.4727 26.5715 12.528 26.48C12.5913 26.3983 12.64 26.3063 12.672 26.208C12.7293 26.1192 12.7725 26.022 12.8 25.92C12.8079 25.8135 12.8079 25.7065 12.8 25.6C12.7975 25.3909 12.754 25.1844 12.672 24.992C12.6001 24.7934 12.4855 24.6131 12.3362 24.4638C12.1869 24.3145 12.0066 24.1999 11.808 24.128C11.5184 23.9937 11.1952 23.9491 10.88 24L10.592 24.096C10.4937 24.128 10.4017 24.1767 10.32 24.24C10.2285 24.2953 10.1427 24.3596 10.064 24.432C9.91833 24.5842 9.80415 24.7636 9.728 24.96C9.64181 25.1623 9.59824 25.3801 9.6 25.6C9.6 26.0243 9.76857 26.4313 10.0686 26.7314C10.3687 27.0314 10.7757 27.2 11.2 27.2ZM5.264 26.736C5.41952 26.8773 5.5981 26.991 5.792 27.072C5.98436 27.154 6.19092 27.1975 6.4 27.2H6.704C6.80998 27.1852 6.91273 27.1527 7.008 27.104C7.10996 27.069 7.20681 27.0206 7.296 26.96L7.536 26.768C7.67733 26.6125 7.79097 26.4339 7.872 26.24C7.96661 26.0404 8.01057 25.8206 8 25.6C8.00785 25.4935 8.00785 25.3865 8 25.28C7.98249 25.1798 7.95013 25.0827 7.904 24.992C7.87205 24.8937 7.82333 24.8017 7.76 24.72C7.70472 24.6285 7.64039 24.5427 7.568 24.464C7.343 24.242 7.05728 24.0916 6.7469 24.0318C6.43652 23.972 6.11538 24.0055 5.824 24.128C5.6276 24.2042 5.44817 24.3183 5.296 24.464C5.22361 24.5427 5.15928 24.6285 5.104 24.72C5.04067 24.8017 4.99195 24.8937 4.96 24.992C4.89147 25.0787 4.83744 25.176 4.8 25.28C4.79215 25.3865 4.79215 25.4935 4.8 25.6C4.80253 25.8091 4.84601 26.0156 4.928 26.208C5.00903 26.4019 5.12267 26.5805 5.264 26.736ZM27.2 0H4.8C3.52696 0 2.30606 0.505713 1.40589 1.40589C0.505713 2.30606 0 3.52696 0 4.8V27.2C0 28.473 0.505713 29.6939 1.40589 30.5941C2.30606 31.4943 3.52696 32 4.8 32H27.2C28.473 32 29.6939 31.4943 30.5941 30.5941C31.4943 29.6939 32 28.473 32 27.2V4.8C32 3.52696 31.4943 2.30606 30.5941 1.40589C29.6939 0.505713 28.473 0 27.2 0ZM28.8 27.2C28.8 27.6243 28.6314 28.0313 28.3314 28.3314C28.0313 28.6314 27.6243 28.8 27.2 28.8H4.8C4.37565 28.8 3.96869 28.6314 3.66863 28.3314C3.36857 28.0313 3.2 27.6243 3.2 27.2V22.4H28.8V27.2ZM28.8 19.2H3.2V12.8H9.6C9.81057 12.8012 10.0193 12.7609 10.2143 12.6812C10.4092 12.6016 10.5865 12.4843 10.736 12.336L12.8 10.336L17.28 15.456C17.4245 15.6207 17.6014 15.754 17.7995 15.8476C17.9977 15.9412 18.213 15.9931 18.432 16C18.6426 16.0012 18.8513 15.9609 19.0463 15.8812C19.2412 15.8016 19.4185 15.6843 19.568 15.536L22.256 12.8H28.8V19.2ZM28.8 9.6H21.6C21.3894 9.59878 21.1807 9.63914 20.9858 9.71877C20.7908 9.79839 20.6135 9.91571 20.464 10.064L18.48 12.064L14 6.944C13.8503 6.78414 13.6695 6.65671 13.4685 6.56959C13.2676 6.48247 13.051 6.43752 12.832 6.43752C12.613 6.43752 12.3964 6.48247 12.1955 6.56959C11.9945 6.65671 11.8137 6.78414 11.664 6.944L8.944 9.6H3.2V4.8C3.2 4.37565 3.36857 3.96869 3.66863 3.66863C3.96869 3.36857 4.37565 3.2 4.8 3.2H27.2C27.6243 3.2 28.0313 3.36857 28.3314 3.66863C28.6314 3.96869 28.8 4.37565 28.8 4.8V9.6Z" fill="#1890FF"/>
</svg>
