<svg width="26" height="32" viewBox="0 0 26 32" fill="none" xmlns="http://www.w3.org/2000/svg">
<path d="M25.3987 2.63819C25.21 2.48778 24.9893 2.38095 24.7531 2.32556C24.5169 2.27016 24.2711 2.26761 24.0337 2.31809C22.2973 2.67652 20.5048 2.68108 18.7665 2.33151C17.0282 1.98194 15.381 1.28563 13.9262 0.285458C13.6542 0.099596 13.3311 0 13 0C12.6689 0 12.3458 0.099596 12.0738 0.285458C10.619 1.28563 8.97175 1.98194 7.23347 2.33151C5.4952 2.68108 3.70267 2.67652 1.96626 2.31809C1.72891 2.26761 1.48309 2.27016 1.24687 2.32556C1.01065 2.38095 0.790044 2.48778 0.601259 2.63819C0.412725 2.78883 0.260856 2.97916 0.156809 3.19519C0.0527628 3.41123 -0.000816059 3.64748 9.39491e-06 3.88658V15.8103C-0.00143529 18.105 0.553765 20.3669 1.61938 22.4075C2.68499 24.4481 4.23017 26.2085 6.12625 27.542L12.0575 31.7033C12.3327 31.8963 12.6622 32 13 32C13.3378 32 13.6673 31.8963 13.9425 31.7033L19.8737 27.542C21.7698 26.2085 23.315 24.4481 24.3806 22.4075C25.4462 20.3669 26.0014 18.105 26 15.8103V3.88658C26.0008 3.64748 25.9472 3.41123 25.8432 3.19519C25.7391 2.97916 25.5873 2.78883 25.3987 2.63819ZM22.75 15.8103C22.7512 17.5945 22.3198 19.3531 21.4917 20.94C20.6635 22.5268 19.4626 23.8958 17.9887 24.9332L13 28.4383L8.01125 24.9332C6.53744 23.8958 5.33648 22.5268 4.50832 20.94C3.68017 19.3531 3.24876 17.5945 3.25001 15.8103V5.72716C6.6567 6.01434 10.0686 5.23584 13 3.50247C15.9314 5.23584 19.3433 6.01434 22.75 5.72716V15.8103ZM15.5025 12.1452L11.1313 16.4665L9.685 15.0261C9.37901 14.7247 8.96399 14.5554 8.53125 14.5554C8.09851 14.5554 7.6835 14.7247 7.3775 15.0261C7.07151 15.3275 6.89961 15.7362 6.89961 16.1624C6.89961 16.5886 7.07151 16.9974 7.3775 17.2988L9.9775 19.8596C10.1286 20.0096 10.3083 20.1287 10.5063 20.2099C10.7043 20.2912 10.9167 20.333 11.1313 20.333C11.3458 20.333 11.5582 20.2912 11.7562 20.2099C11.9542 20.1287 12.1339 20.0096 12.285 19.8596L17.875 14.4019C18.181 14.1005 18.3529 13.6917 18.3529 13.2655C18.3529 12.8393 18.181 12.4305 17.875 12.1292C17.569 11.8278 17.154 11.6585 16.7212 11.6585C16.2885 11.6585 15.8735 11.8278 15.5675 12.1292L15.5025 12.1452Z" fill="#1890FF"/>
</svg>
