<svg width="410" height="287" viewBox="0 0 410 287" fill="none" xmlns="http://www.w3.org/2000/svg">
<g clip-path="url(#clip0)">
<path d="M362 279.676L355.141 279.676L351.879 253.224L362.001 253.224L362 279.676Z" fill="#FFB8B8"/>
<path d="M363.748 286.324L341.635 286.323V286.043C341.636 283.761 342.543 281.572 344.157 279.957C345.771 278.343 347.96 277.437 350.242 277.437H350.243L363.749 277.437L363.748 286.324Z" fill="#2F2E41"/>
<path d="M392.267 262.816L387.816 268.033L365.576 253.345L372.146 245.646L392.267 262.816Z" fill="#FFB8B8"/>
<path d="M398.459 265.801L384.106 282.622L383.893 282.44C382.156 280.958 381.08 278.848 380.9 276.572C380.72 274.297 381.451 272.043 382.932 270.306L382.933 270.306L391.699 260.032L398.459 265.801Z" fill="#2F2E41"/>
<path d="M313.305 149.59L311.171 169.277L397.466 168.046L359.832 106.725L329.105 105.622L313.305 149.59Z" fill="#2F2E41"/>
<path opacity="0.28" d="M313.305 149.59L311.171 169.277L397.466 168.046L359.832 106.725L329.105 105.622L313.305 149.59Z" fill="black"/>
<path d="M330.275 152.97L327.228 170.984V187.085L351.791 195.103C351.791 195.103 348.916 257.646 352.749 261.63L352.655 271.246L363.371 271.733L363.458 264.965L368.001 214.38L370.677 177.24L366.339 149.081L330.275 152.97Z" fill="#2F2E41"/>
<path d="M349.305 168.476L327.228 187.085C327.228 187.085 325.936 220.66 329.217 224.598C332.035 227.98 368.689 257.15 368.689 257.15C368.689 257.15 375.203 263.126 378.854 263.221C382.505 263.316 386.751 255.659 386.751 255.659L378.296 249.235C378.296 249.235 356.392 228.79 349.889 220.661C347.264 217.379 347.264 217.051 347.264 217.051L348.16 203.406L357.184 178.082L349.305 168.476Z" fill="#2F2E41"/>
<path d="M325.866 79.3375L316.348 78.4579L307.714 79.8967L289.432 79.9026L287.874 93.153L304.558 96.8864L308.624 94.8938L325.571 101.351L325.866 79.3375Z" fill="#2F2E41"/>
<path d="M337.235 79.2961C337.235 79.2961 357.436 77.4033 362.029 81.0126C366.623 84.6219 376.467 156.152 376.467 156.152L337.235 158.366L330.202 153.527L332.198 117.816L337.235 79.2961Z" fill="#CCCCCC"/>
<path d="M343.401 78.8505L321.118 79.3395L300.342 173.214L316.749 176.824L343.401 78.8505Z" fill="#2F2E41"/>
<path d="M359.242 78.057L376.795 83.5508L375.798 122.121L397.467 168.234L371.993 170.918L351.858 121.124L359.242 78.057Z" fill="#2F2E41"/>
<path d="M388.186 172.918C388.801 172.377 389.291 171.707 389.619 170.956C389.947 170.204 390.107 169.39 390.087 168.571C390.066 167.751 389.867 166.946 389.502 166.212C389.137 165.478 388.615 164.833 387.974 164.322L391.505 152.003L384.542 148.032L379.8 165.498C379.013 166.632 378.67 168.016 378.836 169.386C379.001 170.757 379.663 172.019 380.697 172.933C381.731 173.848 383.064 174.352 384.444 174.349C385.825 174.346 387.156 173.837 388.186 172.918Z" fill="#FFB8B8"/>
<path d="M366.623 84.6219L377.009 83.721C377.009 83.721 386.333 93.4731 388.454 101.024C390.576 108.575 392.873 132.199 392.873 132.199L391.914 166.76L379.774 158.516L378.96 128.789L366.623 84.6219Z" fill="#2F2E41"/>
<path d="M364.117 67.2509C368.018 60.1162 365.395 51.1707 358.261 47.2705C351.126 43.3703 342.181 45.9924 338.28 53.1271C334.38 60.2618 337.002 69.2073 344.137 73.1075C351.272 77.0076 360.217 74.3855 364.117 67.2509Z" fill="#FFB8B8"/>
<path d="M349.558 54.0425C347.626 53.5962 345.621 54.0908 343.664 54.4115C341.708 54.7321 339.552 54.8378 337.897 53.7462C336.675 52.94 335.923 51.6063 335.217 50.3234C334.923 49.8653 334.727 49.351 334.641 48.8132C334.558 47.8644 335.162 46.9988 335.802 46.2943C338.78 43.0218 343.13 41.2308 347.517 40.6618C351.135 40.1226 354.832 40.574 358.214 41.9681C361.544 43.4288 364.407 46.1037 365.717 49.4965C366.32 51.2329 366.696 53.0399 366.837 54.8726C367.035 56.2211 367.06 57.5893 366.913 58.9441C366.736 59.9485 366.472 60.9356 366.124 61.8939L363.955 68.4431C363.799 69.062 363.507 69.6386 363.102 70.1313C362.893 70.3727 362.612 70.54 362.301 70.6082C361.989 70.6764 361.664 70.6419 361.374 70.5099C361.548 69.7985 361.574 69.0592 361.452 68.3372C361.384 67.9774 361.21 67.6462 360.952 67.3862C360.694 67.1262 360.364 66.9494 360.005 66.8785C359.206 66.7936 358.523 67.4134 357.764 67.6803C357.417 67.7832 357.053 67.8167 356.693 67.7789C356.333 67.7411 355.984 67.6328 355.666 67.4602C355.348 67.2875 355.067 67.0538 354.839 66.7726C354.611 66.4913 354.441 66.1679 354.338 65.8208C354.317 65.7508 354.299 65.6801 354.284 65.6087C354.164 64.8599 354.366 64.0583 354.082 63.3552C353.749 62.5314 352.867 62.0997 352.205 61.5078C351.601 60.9499 351.168 60.2312 350.958 59.4359C350.748 58.6406 350.769 57.802 351.02 57.0185C351.197 56.4734 351.698 56.2256 351.598 55.5995C351.466 54.778 350.255 54.2037 349.558 54.0425Z" fill="#2F2E41"/>
<path d="M185.874 116.278H0V0H185.874V116.278Z" fill="white"/>
<path d="M185.874 116.278H0V0H185.874V116.278ZM0.848743 115.429H185.025V0.848743H0.848743V115.429Z" fill="#3F3D56"/>
<path d="M163.171 277.326H57.0779V161.049H163.171V277.326Z" fill="white"/>
<path d="M163.171 277.326H57.0779V161.049H163.171V277.326ZM57.9266 276.478H162.322V161.898H57.9266V276.478Z" fill="#3F3D56"/>
<path d="M148.742 266.344H126.675V267.239H148.742V266.344Z" fill="#3F3D56"/>
<path d="M148.742 269.028H126.675V269.923H148.742V269.028Z" fill="#3F3D56"/>
<path d="M148.742 271.712H126.675V272.607H148.742V271.712Z" fill="#3F3D56"/>
<path d="M110.124 181.843V191.179C115.664 191.179 121.079 192.822 125.685 195.899C130.291 198.977 133.881 203.351 136.001 208.469C138.12 213.587 138.675 219.218 137.594 224.652C136.514 230.085 133.846 235.075 129.929 238.992L136.531 245.594C141.754 240.371 145.31 233.717 146.751 226.473C148.192 219.229 147.453 211.72 144.626 204.896C141.8 198.072 137.013 192.24 130.872 188.136C124.73 184.033 117.51 181.843 110.124 181.843Z" fill="#E6E6E6"/>
<path d="M136.531 245.594L129.929 238.992C125.141 243.782 118.778 246.674 112.021 247.132C105.264 247.59 98.5699 245.583 93.1787 241.484L87.5278 248.919C94.7173 254.384 103.643 257.058 112.653 256.446C121.663 255.835 130.145 251.98 136.531 245.594Z" fill="#575A89"/>
<path d="M82.1157 219.187C82.1157 215.509 82.8402 211.867 84.2477 208.469C85.6553 205.071 87.7184 201.983 90.3192 199.382C92.92 196.782 96.0076 194.718 99.4058 193.311C102.804 191.903 106.446 191.179 110.124 191.179V181.843C102.306 181.843 94.6859 184.296 88.3366 188.857C81.9873 193.418 77.2294 199.856 74.7337 207.265C72.2379 214.674 72.1301 222.679 74.4255 230.152C76.7209 237.625 81.3036 244.189 87.5278 248.919L93.1787 241.484C89.738 238.874 86.9486 235.503 85.0292 231.635C83.1098 227.766 82.1126 223.506 82.1157 219.187Z" fill="#1890FF"/>
<path d="M320.187 205.183H214.095V88.9056H320.187V205.183Z" fill="white"/>
<path d="M320.187 205.183H214.095V88.9056H320.187V205.183ZM214.944 204.335H319.339V89.7544H214.944V204.335Z" fill="#3F3D56"/>
<path d="M248.469 159.988H229.372V190.542H248.469V159.988Z" fill="#575A89"/>
<path d="M276.053 139.194H256.956V190.543H276.053V139.194Z" fill="#E6E6E6"/>
<path d="M303.637 115.005H284.54V190.542H303.637V115.005Z" fill="#1890FF"/>
<path d="M310.003 191.392H224.28V102.698H225.128V190.543H310.003V191.392Z" fill="#3F3D56"/>
<path d="M289.335 92.0013C292.563 92.0013 295.18 89.3844 295.18 86.1564C295.18 82.9283 292.563 80.3115 289.335 80.3115C286.107 80.3115 283.49 82.9283 283.49 86.1564C283.49 89.3844 286.107 92.0013 289.335 92.0013Z" fill="#FFB8B8"/>
<path d="M409.432 286.888H318.349C318.22 286.888 318.096 286.837 318.004 286.746C317.913 286.654 317.862 286.531 317.862 286.401C317.862 286.272 317.913 286.148 318.004 286.057C318.096 285.966 318.22 285.914 318.349 285.914H409.432C409.561 285.914 409.685 285.966 409.777 286.057C409.868 286.148 409.919 286.272 409.919 286.401C409.919 286.531 409.868 286.654 409.777 286.746C409.685 286.837 409.561 286.888 409.432 286.888Z" fill="#CCCCCC"/>
<path d="M160.061 91.9595H25.8134C25.702 91.9595 25.5952 91.9152 25.5164 91.8364C25.4376 91.7576 25.3933 91.6507 25.3933 91.5393V27.1946C25.3933 27.0832 25.4376 26.9763 25.5164 26.8975C25.5951 26.8187 25.702 26.7745 25.8134 26.7745C25.9249 26.7745 26.0317 26.8187 26.1105 26.8975C26.1893 26.9763 26.2336 27.0832 26.2336 27.1946V91.1192H160.061C160.116 91.119 160.171 91.1297 160.222 91.1508C160.273 91.1718 160.32 91.2027 160.359 91.2417C160.398 91.2808 160.429 91.3272 160.45 91.3782C160.471 91.4293 160.482 91.484 160.482 91.5393C160.482 91.5946 160.471 91.6494 160.45 91.7004C160.429 91.7515 160.398 91.7979 160.359 91.8369C160.32 91.8759 160.273 91.9069 160.222 91.9279C160.171 91.9489 160.116 91.9597 160.061 91.9595Z" fill="#3F3D56"/>
<path d="M54.4963 87.338H42.286C41.9553 87.3376 41.6383 87.2061 41.4045 86.9723C41.1707 86.7385 41.0392 86.4215 41.0388 86.0909V69.2589C41.0392 68.9283 41.1707 68.6113 41.4045 68.3775C41.6383 68.1437 41.9553 68.0122 42.286 68.0118H54.4963C54.8269 68.0122 55.1439 68.1437 55.3777 68.3775C55.6115 68.6113 55.7431 68.9283 55.7435 69.2589V86.0909C55.7431 86.4215 55.6115 86.7385 55.3777 86.9723C55.1439 87.2061 54.8269 87.3376 54.4963 87.338Z" fill="#1890FF"/>
<path d="M76.7633 87.338H64.553C64.2223 87.3376 63.9053 87.2061 63.6715 86.9723C63.4377 86.7385 63.3062 86.4215 63.3058 86.0909V53.2939C63.3062 52.9632 63.4377 52.6463 63.6715 52.4125C63.9053 52.1787 64.2223 52.0472 64.553 52.0468H76.7633C77.0939 52.0472 77.4109 52.1787 77.6447 52.4125C77.8785 52.6463 78.01 52.9632 78.0104 53.2939V86.0909C78.01 86.4215 77.8785 86.7385 77.6447 86.9723C77.4109 87.2061 77.0939 87.3376 76.7633 87.338Z" fill="#1890FF"/>
<path d="M99.0304 87.338H86.82C86.4894 87.3376 86.1724 87.2061 85.9386 86.9723C85.7048 86.7385 85.5733 86.4215 85.5729 86.0909V69.2589C85.5733 68.9283 85.7048 68.6113 85.9386 68.3775C86.1724 68.1437 86.4894 68.0122 86.82 68.0118H99.0304C99.361 68.0122 99.678 68.1437 99.9118 68.3775C100.146 68.6113 100.277 68.9283 100.278 69.2589V86.0909C100.277 86.4215 100.146 86.7385 99.9118 86.9723C99.678 87.2061 99.361 87.3376 99.0304 87.338Z" fill="#1890FF"/>
<path d="M121.297 87.338H109.087C108.764 87.3449 108.451 87.2235 108.217 87.0004C107.984 86.7772 107.848 86.4705 107.84 86.1474V46.9354C107.848 46.6123 107.984 46.3056 108.217 46.0825C108.451 45.8593 108.764 45.7379 109.087 45.7449H121.297C121.62 45.7379 121.933 45.8593 122.167 46.0825C122.401 46.3056 122.536 46.6123 122.544 46.9354V86.1474C122.536 86.4705 122.401 86.7772 122.167 87.0004C121.933 87.2235 121.62 87.3449 121.297 87.338Z" fill="#1890FF"/>
<path d="M143.564 87.338H131.354C131.023 87.3376 130.706 87.2061 130.473 86.9723C130.239 86.7385 130.107 86.4215 130.107 86.0909V35.6483C130.107 35.3177 130.239 35.0007 130.473 34.7669C130.706 34.5331 131.023 34.4016 131.354 34.4012H143.564C143.895 34.4016 144.212 34.5331 144.446 34.7669C144.68 35.0007 144.811 35.3177 144.812 35.6483V86.0909C144.811 86.4215 144.68 86.7385 144.446 86.9723C144.212 87.2061 143.895 87.3376 143.564 87.338Z" fill="#1890FF"/>
<path d="M48.3912 62.9703C49.7834 62.9703 50.912 61.8417 50.912 60.4495C50.912 59.0573 49.7834 57.9287 48.3912 57.9287C46.999 57.9287 45.8704 59.0573 45.8704 60.4495C45.8704 61.8417 46.999 62.9703 48.3912 62.9703Z" fill="#3F3D56"/>
<path d="M70.6582 46.5851C72.0504 46.5851 73.179 45.4565 73.179 44.0643C73.179 42.6721 72.0504 41.5435 70.6582 41.5435C69.266 41.5435 68.1375 42.6721 68.1375 44.0643C68.1375 45.4565 69.266 46.5851 70.6582 46.5851Z" fill="#3F3D56"/>
<path d="M92.9252 62.9703C94.3174 62.9703 95.446 61.8417 95.446 60.4495C95.446 59.0573 94.3174 57.9287 92.9252 57.9287C91.533 57.9287 90.4044 59.0573 90.4044 60.4495C90.4044 61.8417 91.533 62.9703 92.9252 62.9703Z" fill="#3F3D56"/>
<path d="M115.192 38.6026C116.585 38.6026 117.713 37.474 117.713 36.0818C117.713 34.6896 116.585 33.561 115.192 33.561C113.8 33.561 112.672 34.6896 112.672 36.0818C112.672 37.474 113.8 38.6026 115.192 38.6026Z" fill="#3F3D56"/>
<path d="M137.459 29.3597C138.851 29.3597 139.98 28.2311 139.98 26.8389C139.98 25.4467 138.851 24.3181 137.459 24.3181C136.067 24.3181 134.938 25.4467 134.938 26.8389C134.938 28.2311 136.067 29.3597 137.459 29.3597Z" fill="#3F3D56"/>
<path d="M92.9781 61.0141L70.6583 44.2962L48.6429 60.7857L48.1393 60.113L70.6583 43.2461L92.8719 59.8846L114.947 35.728L115.035 35.692L137.302 26.72L137.616 27.4998L115.438 36.4358L92.9781 61.0141Z" fill="#3F3D56"/>
</g>
<defs>
<clipPath id="clip0">
<rect width="409.919" height="286.888" fill="white"/>
</clipPath>
</defs>
</svg>
