<svg width="107" height="41" viewBox="0 0 107 41" fill="none" xmlns="http://www.w3.org/2000/svg">
<path d="M50.0548 5.95016H53.4332L49.896 24.1899H46.518L47.1784 20.3264C46.458 21.6197 45.5247 22.6258 44.373 23.3498C43.2213 24.0737 41.9106 24.4386 40.4461 24.4386C38.0427 24.4386 36.2323 23.5707 35.0099 21.8408C33.7875 20.1108 33.4396 17.8558 33.9709 15.0701C34.3241 13.2348 35.0006 11.599 35.9955 10.1674C36.9904 8.73588 38.191 7.63592 39.5978 6.86226C41.0043 6.08849 42.493 5.7016 44.0682 5.7016C45.5326 5.7016 46.7112 6.06629 47.5994 6.79592C48.4874 7.52568 49.0437 8.53147 49.2732 9.81378L50.0547 5.95028L50.0548 5.95016ZM38.0634 19.3148C38.7802 20.3431 39.8908 20.857 41.3956 20.857C42.9004 20.857 44.2246 20.3207 45.3633 19.2485C46.5019 18.1762 47.2327 16.7723 47.5609 15.0367C47.8778 13.3234 47.6787 11.9361 46.9586 10.875C46.2384 9.81366 45.1386 9.28305 43.6642 9.28305C42.1694 9.28305 40.8611 9.80274 39.7343 10.8416C38.6075 11.8808 37.8661 13.2903 37.5157 15.0701C37.1641 16.8718 37.3466 18.2868 38.0634 19.3148ZM62.6256 0.179932L57.9704 24.1899H54.5014L59.1568 0.179932H62.6257H62.6256ZM82.2763 5.95016L73.9332 15.0702L78.7393 24.1899H74.7703L71.4038 17.8224L65.5751 24.1899H61.6062L69.9643 15.0702L65.1431 5.95016H69.1121L72.4786 12.3176L78.3072 5.95016H82.2762H82.2763ZM98.6368 5.95016H102.015L98.478 24.1899H95.0998L95.7602 20.3264C95.0399 21.6197 94.1066 22.6258 92.955 23.3498C91.8031 24.0737 90.4925 24.4386 89.0281 24.4386C86.6245 24.4386 84.814 23.5707 83.5919 21.8408C82.3694 20.1108 82.0212 17.8558 82.5528 15.0701C82.906 13.2348 83.5826 11.599 84.5775 10.1674C85.5723 8.73588 86.773 7.63592 88.1796 6.86226C89.5863 6.08849 91.0748 5.7016 92.6503 5.7016C94.1146 5.7016 95.2933 6.06629 96.1815 6.79592C97.0695 7.52568 97.6257 8.53147 97.8553 9.81378L98.6369 5.95028L98.6368 5.95016ZM86.6453 19.3148C87.3621 20.3431 88.4728 20.857 89.9776 20.857C91.4823 20.857 92.8065 20.3207 93.9451 19.2485C95.0839 18.1762 95.8145 16.7723 96.1429 15.0367C96.4595 13.3234 96.2606 11.9361 95.5404 10.875C94.8203 9.81366 93.7205 9.28305 92.2461 9.28305C90.7513 9.28305 89.443 9.80274 88.3162 10.8416C87.1895 11.8808 86.4481 13.2903 86.0977 15.0701C85.746 16.8718 85.9286 18.2868 86.6453 19.3148Z" fill="#4D4D4D"/>
<path fill-rule="evenodd" clip-rule="evenodd" d="M31 24.041L18 0H13L26 24.041H31Z" fill="#60B3FF" fill-opacity="0.5"/>
<path fill-rule="evenodd" clip-rule="evenodd" d="M1 24.041L13.5 0H18L18.5 1H18L6 24L1 24.041Z" fill="#60B3FF"/>
<path d="M62.2929 26.8438H101.205L107.02 40.7092H69.6729L62.2929 26.8438Z" fill="#7BDAAA"/>
<path d="M75.4967 33.8347C76.0357 33.8347 76.4236 33.706 76.6607 33.4487C76.8979 33.1914 77.0161 32.8318 77.0161 32.3703C77.0161 32.1663 76.9853 31.9803 76.9242 31.8129C76.8628 31.6454 76.769 31.5024 76.6424 31.384C76.5199 31.2613 76.3624 31.1675 76.1704 31.1022C75.9824 31.0367 75.7581 31.004 75.4965 31.004H74.418V33.8347H75.4965H75.4967ZM75.4967 29.4539C76.1257 29.4539 76.6651 29.5294 77.1142 29.6806C77.5676 29.8276 77.9395 30.0319 78.2292 30.2934C78.5233 30.5549 78.7396 30.8633 78.8787 31.2185C79.0179 31.5741 79.0873 31.9581 79.0873 32.3704C79.0873 32.8158 79.0154 33.2242 78.8728 33.5959C78.73 33.9675 78.5111 34.2862 78.2171 34.5518C77.923 34.8172 77.5495 35.0256 77.096 35.1766C76.6467 35.3236 76.1137 35.3972 75.4968 35.3972H74.4183V38.3809H72.3474V29.4539H75.4968H75.4967ZM85.5174 36.7267V38.3809H80.1378V29.4539H82.2087V36.7267H85.5174ZM90.1218 36.7452C90.3995 36.7452 90.6463 36.7003 90.863 36.6105C91.0837 36.5165 91.2695 36.3838 91.4206 36.2121C91.5713 36.0406 91.6859 35.8321 91.7638 35.5871C91.8453 35.338 91.8863 35.0561 91.8863 34.7417V29.454H93.9574V34.7417C93.9574 35.2888 93.8673 35.7914 93.6877 36.249C93.5118 36.7062 93.259 37.1005 92.9279 37.4313C92.5969 37.7623 92.1946 38.0195 91.7209 38.2034C91.2466 38.3871 90.7136 38.479 90.1217 38.479C89.5249 38.479 88.99 38.3871 88.5165 38.2034C88.0423 38.0195 87.6402 37.7623 87.3095 37.4313C86.9786 37.1004 86.725 36.7062 86.5497 36.249C86.3737 35.7914 86.286 35.2888 86.286 34.7417V29.454H88.3571V34.7354C88.3571 35.0499 88.3958 35.3317 88.4736 35.581C88.5551 35.8261 88.6712 36.0363 88.8227 36.2121C88.9735 36.3837 89.1571 36.5164 89.374 36.6105C89.5947 36.7003 89.8434 36.7452 90.1216 36.7452H90.1218ZM100.507 31.2676C100.446 31.3655 100.38 31.4391 100.311 31.4881C100.245 31.5372 100.16 31.5617 100.054 31.5617C99.9597 31.5617 99.8574 31.533 99.7472 31.4758C99.6412 31.4147 99.5187 31.3472 99.3797 31.2736C99.2448 31.2002 99.0898 31.1349 98.9141 31.0777C98.7381 31.0163 98.5383 30.9857 98.3136 30.9857C97.9257 30.9857 97.6353 31.0693 97.4436 31.237C97.2554 31.4001 97.1618 31.6227 97.1618 31.9048C97.1618 32.0845 97.2188 32.2337 97.3331 32.352C97.4478 32.4703 97.5966 32.5727 97.7806 32.6584C97.9686 32.744 98.1808 32.8237 98.4179 32.8973C98.6586 32.9668 98.9038 33.0465 99.1531 33.1363C99.4023 33.222 99.6449 33.3241 99.8821 33.4427C100.123 33.561 100.335 33.7122 100.519 33.896C100.707 34.0796 100.858 34.3044 100.973 34.57C101.087 34.8314 101.144 35.148 101.144 35.5197C101.144 35.9321 101.072 36.3181 100.93 36.6778C100.787 37.0372 100.579 37.3517 100.305 37.6212C100.035 37.8868 99.7 38.097 99.3001 38.2523C98.9035 38.4035 98.4524 38.479 97.9459 38.479C97.6684 38.479 97.3841 38.4506 97.0944 38.3934C96.808 38.3362 96.5305 38.2565 96.2609 38.1543C95.9914 38.0484 95.7383 37.9236 95.5012 37.7806C95.264 37.6378 95.0582 37.4784 94.8824 37.3025L95.4951 36.3345C95.5443 36.2652 95.6073 36.208 95.685 36.163C95.7665 36.1138 95.8548 36.0895 95.9486 36.0895C96.0711 36.0895 96.1937 36.1282 96.3161 36.2057C96.443 36.2835 96.5839 36.3693 96.7388 36.4632C96.8981 36.557 97.0801 36.6429 97.2842 36.7205C97.4883 36.7982 97.7296 36.837 98.0071 36.837C98.3827 36.837 98.675 36.7553 98.8832 36.5917C99.0916 36.4243 99.1958 36.1608 99.1958 35.8014C99.1958 35.593 99.1388 35.4234 99.0243 35.2927C98.9097 35.1622 98.7589 35.0538 98.5709 34.9682C98.3871 34.8823 98.177 34.8068 97.9399 34.7414C97.7027 34.6758 97.4601 34.6045 97.2106 34.527C96.9612 34.4453 96.7188 34.3473 96.4816 34.2329C96.2445 34.1144 96.0324 33.9613 95.8443 33.7733C95.6604 33.5813 95.5116 33.3444 95.3972 33.0626C95.2826 32.7765 95.2256 32.4255 95.2256 32.0086C95.2256 31.6738 95.293 31.347 95.4278 31.0284C95.5626 30.7098 95.7606 30.4258 96.0221 30.1766C96.2837 29.9276 96.6043 29.7296 96.984 29.5825C97.364 29.4312 97.7989 29.3557 98.2891 29.3557C98.5632 29.3557 98.8283 29.3782 99.0857 29.4231C99.3472 29.4638 99.5944 29.5273 99.827 29.6129C100.06 29.6946 100.276 29.7948 100.477 29.9133C100.681 30.0277 100.862 30.1583 101.022 30.3054L100.507 31.2673L100.507 31.2676Z" fill="white"/>
<path fill-rule="evenodd" clip-rule="evenodd" d="M13 24.041L25 1H30.0823L18 24.041H13Z" fill="#60B3FF"/>
<path fill-rule="evenodd" clip-rule="evenodd" d="M12 23.041L24 0H29.0823L17 23.041H12Z" fill="#1890FF"/>
<path fill-rule="evenodd" clip-rule="evenodd" d="M0 23.041L12 0H17.0823L5 23.041H0Z" fill="#1890FF"/>
</svg>
