<?xml version="1.0" encoding="UTF-8"?>
<!DOCTYPE svg PUBLIC "-//W3C//DTD SVG 1.1//EN" "http://www.w3.org/Graphics/SVG/1.1/DTD/svg11.dtd">
<!-- Creator: CorelDRAW 2021 (64 Bit) -->
<svg xmlns="http://www.w3.org/2000/svg" xml:space="preserve" width="103.02mm" height="40.709mm" version="1.1" style="shape-rendering:geometricPrecision; text-rendering:geometricPrecision; image-rendering:optimizeQuality; fill-rule:evenodd; clip-rule:evenodd"
viewBox="0 0 8214.66 3246.08"
 xmlns:xlink="http://www.w3.org/1999/xlink"
 xmlns:xodm="http://www.corel.com/coreldraw/odm/2003">
 <defs>
  <style type="text/css">
   <![CDATA[
    .fil4 {fill:#1890FF}
    .fil3 {fill:#60B3FF}
    .fil0 {fill:#4D4D4D;fill-rule:nonzero}
    .fil1 {fill:#7BDAAA;fill-rule:nonzero}
    .fil2 {fill:white;fill-rule:nonzero}
   ]]>
  </style>
 </defs>
 <g id="Camada_x0020_1">
  <metadata id="CorelCorpID_0Corel-Layer"/>
  <path class="fil0" d="M3672.34 474.45l269.39 0 -282.05 1454.41 -269.36 0 52.66 -308.07c-57.44,103.13 -131.86,183.35 -223.7,241.08 -91.83,57.73 -196.35,86.82 -313.12,86.82 -191.65,0 -336.01,-69.2 -433.48,-207.14 -97.47,-137.95 -125.21,-317.76 -82.85,-539.89 28.17,-146.34 82.11,-276.78 161.44,-390.93 79.33,-114.15 175.07,-201.86 287.24,-263.55 112.16,-61.7 230.86,-92.55 356.47,-92.55 116.77,0 210.75,29.08 281.57,87.26 70.81,58.19 115.17,138.39 133.47,240.64l62.31 -308.07zm-956.18 1065.68c57.16,81.99 145.72,122.97 265.71,122.97 119.99,0 225.58,-42.76 316.38,-128.26 90.79,-85.5 149.06,-197.45 175.23,-335.84 25.27,-136.62 9.39,-247.24 -48.03,-331.85 -57.42,-84.63 -145.12,-126.94 -262.69,-126.94 -119.19,0 -223.51,41.44 -313.36,124.28 -89.85,82.86 -148.97,195.25 -176.91,337.17 -28.04,143.67 -13.48,256.5 43.67,338.47zm1958.56 -1525.79l-371.2 1914.52 -276.61 0 371.21 -1914.52 276.61 0zm1566.92 460.11l-665.27 727.22 383.23 727.19 -316.48 0 -268.44 -507.73 -464.77 507.73 -316.48 0 666.47 -727.19 -384.44 -727.22 316.48 0 268.44 507.73 464.77 -507.73 316.48 0zm1304.56 0l269.38 0 -282.04 1454.41 -269.37 0 52.66 -308.07c-57.44,103.13 -131.86,183.35 -223.69,241.08 -91.85,57.73 -196.35,86.82 -313.12,86.82 -191.66,0 -336.03,-69.2 -433.48,-207.14 -97.48,-137.95 -125.24,-317.76 -82.85,-539.89 28.16,-146.34 82.11,-276.78 161.44,-390.93 79.33,-114.15 175.07,-201.86 287.23,-263.55 112.17,-61.7 230.86,-92.55 356.49,-92.55 116.76,0 210.75,29.08 281.57,87.26 70.81,58.19 115.16,138.39 133.47,240.64l62.32 -308.07zm-956.18 1065.68c57.15,81.99 145.72,122.97 265.71,122.97 119.98,0 225.57,-42.76 316.36,-128.26 90.81,-85.5 149.07,-197.45 175.25,-335.84 25.25,-136.62 9.39,-247.24 -48.04,-331.85 -57.42,-84.63 -145.12,-126.94 -262.68,-126.94 -119.2,0 -223.52,41.44 -313.37,124.28 -89.84,82.86 -148.96,195.25 -176.9,337.17 -28.04,143.67 -13.48,256.5 43.67,338.47z"/>
  <polygon class="fil1" points="4648.19,2140.47 7751.02,2140.47 8214.66,3246.08 5236.66,3246.08 "/>
  <path class="fil2" d="M5701.04 2697.92c42.98,0 73.91,-10.26 92.82,-30.78 18.91,-20.52 28.34,-49.19 28.34,-85.99 0,-16.27 -2.46,-31.1 -7.33,-44.45 -4.9,-13.35 -12.38,-24.76 -22.47,-34.2 -9.77,-9.78 -22.33,-17.26 -37.64,-22.47 -14.99,-5.22 -32.87,-7.83 -53.73,-7.83l-86 0 0 225.72 86 0zm0 -349.32c50.16,0 93.17,6.02 128.98,18.08 36.15,11.72 65.81,28.01 88.91,48.86 23.45,20.85 40.7,45.44 51.79,73.77 11.1,28.35 16.63,58.97 16.63,91.85 0,35.51 -5.73,68.08 -17.1,97.72 -11.39,29.63 -28.84,55.04 -52.29,76.22 -23.45,21.16 -53.23,37.78 -89.39,49.82 -35.83,11.72 -78.33,17.59 -127.52,17.59l-86 0 0 237.92 -165.13 0 0 -711.83 251.13 0zm799.04 579.92l0 131.91 -428.96 0 0 -711.83 165.13 0 0 579.92 263.83 0zm367.15 1.48c22.14,0 41.82,-3.58 59.1,-10.74 17.6,-7.5 32.41,-18.08 44.46,-31.77 12.02,-13.68 21.16,-30.3 27.37,-49.84 6.5,-19.86 9.77,-42.34 9.77,-67.41l0 -421.63 165.14 0 0 421.63c0,43.63 -7.18,83.7 -21.5,120.19 -14.03,36.46 -34.19,67.9 -60.59,94.28 -26.39,26.39 -58.47,46.9 -96.24,61.56 -37.82,14.65 -80.32,21.98 -127.52,21.98 -47.59,0 -90.24,-7.33 -128,-21.98 -37.81,-14.66 -69.87,-35.17 -96.24,-61.56 -26.39,-26.39 -46.61,-57.82 -60.59,-94.28 -14.03,-36.49 -21.02,-76.56 -21.02,-120.19l0 -421.63 165.14 0 0 421.13c0,25.08 3.09,47.55 9.29,67.43 6.5,19.54 15.76,36.3 27.84,50.32 12.02,13.68 26.66,24.26 43.96,31.77 17.6,7.16 37.43,10.74 59.61,10.74zm828.1 -436.78c-4.89,7.81 -10.12,13.68 -15.64,17.58 -5.22,3.92 -12.06,5.87 -20.52,5.87 -7.48,0 -15.64,-2.29 -24.43,-6.85 -8.45,-4.87 -18.22,-10.25 -29.3,-16.12 -10.76,-5.85 -23.12,-11.06 -37.13,-15.62 -14.03,-4.9 -29.96,-7.34 -47.88,-7.34 -30.93,0 -54.09,6.67 -69.37,20.04 -15.01,13.01 -22.47,30.76 -22.47,53.25 0,14.33 4.54,26.23 13.66,35.66 9.14,9.43 21.01,17.6 35.68,24.43 14.99,6.83 31.91,13.18 50.82,19.05 19.19,5.54 38.74,11.9 58.62,19.06 19.87,6.83 39.22,14.97 58.13,24.43 19.21,9.43 36.15,21.49 50.82,36.15 14.99,14.64 27.02,32.56 36.15,53.74 9.12,20.84 13.68,46.09 13.68,75.73 0,32.88 -5.73,63.66 -17.1,92.34 -11.39,28.66 -28.01,53.74 -49.84,75.23 -21.5,21.18 -48.23,37.94 -80.12,50.32 -31.62,12.06 -67.59,18.08 -107.98,18.08 -22.13,0 -44.8,-2.27 -67.9,-6.83 -22.83,-4.56 -44.96,-10.91 -66.46,-19.06 -21.49,-8.45 -41.67,-18.4 -60.58,-29.8 -18.91,-11.39 -35.32,-24.1 -49.34,-38.12l48.86 -77.19c3.92,-5.53 8.94,-10.09 15.14,-13.68 6.5,-3.92 13.54,-5.86 21.02,-5.86 9.77,0 19.54,3.09 29.3,9.27 10.12,6.2 21.36,13.04 33.71,20.53 12.7,7.48 27.21,14.33 43.49,20.52 16.27,6.19 35.51,9.29 57.64,9.29 29.95,0 53.26,-6.52 69.86,-19.56 16.62,-13.35 24.93,-34.36 24.93,-63.02 0,-16.62 -4.55,-30.14 -13.68,-40.56 -9.14,-10.41 -21.16,-19.05 -36.15,-25.88 -14.66,-6.85 -31.41,-12.87 -50.32,-18.08 -18.91,-5.23 -38.26,-10.92 -58.15,-17.1 -19.89,-6.51 -39.22,-14.33 -58.13,-23.45 -18.91,-9.45 -35.82,-21.66 -50.82,-36.65 -14.66,-15.31 -26.53,-34.2 -35.65,-56.67 -9.14,-22.81 -13.68,-50.8 -13.68,-84.04 0,-26.7 5.37,-52.76 16.12,-78.16 10.75,-25.41 26.54,-48.05 47.39,-67.92 20.86,-19.86 46.42,-35.65 76.7,-47.38 30.3,-12.06 64.98,-18.08 104.07,-18.08 21.85,0 42.99,1.79 63.52,5.37 20.85,3.25 40.56,8.31 59.11,15.14 18.56,6.51 35.8,14.5 51.8,23.95 16.27,9.12 30.76,19.54 43.47,31.27l-41.03 76.7z"/>
  <polygon class="fil3" points="98.92,1943.28 1091.68,106 1461.03,106 485.56,1943.28 "/>
  <polygon class="fil3" points="1031.7,1943.28 2024.45,106 2393.8,106 1418.33,1943.28 "/>
  <polygon class="fil4" points="-0,1837.28 992.75,0 1362.1,0 386.63,1837.28 "/>
  <polygon class="fil4" points="932.77,1837.28 1925.52,0 2294.87,0 1319.4,1837.28 "/>
 </g>
</svg>
