<svg width="102" height="102" viewBox="0 0 102 102" fill="none" xmlns="http://www.w3.org/2000/svg">
<path d="M11.9001 20.4H8.5V76.5H11.9001V20.4Z" fill="#272634"/>
<path d="M22.1 20.4H17V68H22.1V20.4Z" fill="#272634"/>
<path d="M30.5999 20.4H27.1998V68H30.5999V20.4Z" fill="#272634"/>
<path d="M39.1 20.4H34V68H39.1V20.4Z" fill="#272634"/>
<path d="M45.9001 20.4H42.5V68H45.9001V20.4Z" fill="#272634"/>
<path d="M1.69993 10.2001C0.679934 10.2001 0 10.88 0 11.9V20.4001H3.40007V13.6001H10.2V10.2001H1.69993Z" fill="#272634"/>
<path d="M52.7002 20.4H49.3002V76.5H52.7002V20.4Z" fill="#272634"/>
<path d="M69.7001 20.4H64.6001V68H69.7001V20.4Z" fill="#272634"/>
<path d="M78.2002 20.4H74.8002V68H78.2002V20.4Z" fill="#272634"/>
<path d="M86.7 20.4H81.6V68H86.7V20.4Z" fill="#272634"/>
<path d="M93.5002 20.4H90.1001V76.5H93.5002V20.4Z" fill="#272634"/>
<path d="M3.40007 88.3999V81.6H0V90.1C0 91.12 0.679934 91.8 1.69993 91.8H10.2V88.3999H3.40007Z" fill="#272634"/>
<path d="M98.5999 81.6V88.3999H91.7999V91.8H100.3C101.32 91.8 102 91.12 102 90.1V81.6H98.5999Z" fill="#272634"/>
<path d="M100.3 10.2001H91.7999V13.6001H98.5999V20.4001H102V11.9C102 10.88 101.32 10.2001 100.3 10.2001Z" fill="#272634"/>
<path d="M18.7 71.4H15.2999V76.5H18.7V71.4Z" fill="#272634"/>
<path d="M25.5 71.4H22.1V76.5H25.5V71.4Z" fill="#272634"/>
<path d="M32.3001 71.4H28.9V76.5H32.3001V71.4Z" fill="#272634"/>
<path d="M39.1001 71.4H35.7001V76.5H39.1001V71.4Z" fill="#272634"/>
<path d="M45.9001 71.4H42.5V76.5H45.9001V71.4Z" fill="#272634"/>
<path d="M59.5 71.4H56.1V76.5H59.5V71.4Z" fill="#272634"/>
<path d="M66.3 71.4H62.8999V76.5H66.3V71.4Z" fill="#272634"/>
<path d="M73.1 71.4H69.7V76.5H73.1V71.4Z" fill="#272634"/>
<path d="M79.9001 71.4H76.5V76.5H79.9001V71.4Z" fill="#272634"/>
<path d="M86.7001 71.4H83.3V76.5H86.7001V71.4Z" fill="#272634"/>
<path d="M61.2001 20.4H57.8V68H61.2001V20.4Z" fill="#272634"/>
</svg>
