<svg width="298" height="278" viewBox="0 0 298 278" fill="none" xmlns="http://www.w3.org/2000/svg">
<g clip-path="url(#clip0)">
<path d="M237.346 197.515C237.346 197.515 274.213 199.416 265.626 210.993C257.039 222.569 234.475 204.202 234.475 204.202L237.346 197.515Z" fill="#FFB8B8"/>
<path d="M169.407 87.2539L176.911 89.1252C176.911 89.1252 181.289 102.224 184.415 114.075C187.542 125.927 193.795 161.481 193.795 161.481L242.276 195.371L236.494 208.273L171.909 182.884L157.526 126.55L169.407 87.2539Z" fill="#575A89"/>
<path opacity="0.2" d="M176.468 110.504L173.671 168.925L179.507 186.294L162.411 173.789L176.468 110.504Z" fill="black"/>
<path d="M186.604 214.187C186.604 214.187 194.734 236.019 195.984 250.989C197.235 265.959 198.486 277.81 198.486 277.81H160.34L152.836 266.583V277.81H108.438C108.438 277.81 95.9308 237.266 100.934 232.276C105.936 227.286 153.462 206.079 153.462 206.079L186.604 214.187Z" fill="#2F2E41"/>
<path d="M259.288 277.242H38.5608V278H259.288V277.242Z" fill="#3F3D56"/>
<path d="M138.766 63.5513C151.89 63.5513 162.529 52.9393 162.529 39.8486C162.529 26.758 151.89 16.146 138.766 16.146C125.642 16.146 115.004 26.758 115.004 39.8486C115.004 52.9393 125.642 63.5513 138.766 63.5513Z" fill="#FFB8B8"/>
<path d="M120.631 49.8286L118.755 77.2738L142.518 109.085L154.399 79.145C154.399 79.145 143.769 72.2837 150.022 57.9374L120.631 49.8286Z" fill="#FFB8B8"/>
<path d="M190.042 219.489C190.042 225.105 174.409 233.836 174.409 233.836V236.955L168.155 240.074L154.399 212.63L150.649 242.567C150.649 242.567 123.132 246.936 114.379 242.567C105.622 238.202 101.246 240.074 88.7392 235.708C76.2326 231.343 93.7426 172.708 93.7426 172.708L81.236 82.2638L108.559 68.6368L109.999 67.9168L113.756 67.2271L119.516 66.166L138.766 79.145L140.316 87.2546L141.269 92.2453L146.269 86.6293L150.045 74.2414L176.912 89.1266L169.409 149.004C169.409 149.004 190.042 213.877 190.042 219.489Z" fill="#575A89"/>
<path d="M98.1194 238.826C98.1194 238.826 126.885 261.905 113.127 266.271C99.3701 270.637 91.8661 242.568 91.8661 242.568L98.1194 238.826Z" fill="#FFB8B8"/>
<path d="M87.4888 83.5112L81.2355 82.2637C81.2355 82.2637 71.8555 87.2537 71.2301 97.2338C70.6048 107.214 62.4755 177.074 62.4755 177.074L88.7395 247.558L110.001 239.45L89.3648 173.332L104.998 115.946L87.4888 83.5112Z" fill="#575A89"/>
<path d="M141.516 102.546C142.775 102.546 143.796 101.528 143.796 100.273C143.796 99.017 142.775 97.999 141.516 97.999C140.257 97.999 139.237 99.017 139.237 100.273C139.237 101.528 140.257 102.546 141.516 102.546Z" fill="#2F2E41"/>
<path d="M141.516 117.325C142.775 117.325 143.796 116.307 143.796 115.052C143.796 113.796 142.775 112.778 141.516 112.778C140.257 112.778 139.237 113.796 139.237 115.052C139.237 116.307 140.257 117.325 141.516 117.325Z" fill="#2F2E41"/>
<path d="M154.433 214.715C155.692 214.715 156.713 213.697 156.713 212.442C156.713 211.186 155.692 210.168 154.433 210.168C153.174 210.168 152.154 211.186 152.154 212.442C152.154 213.697 153.174 214.715 154.433 214.715Z" fill="#2F2E41"/>
<path d="M118.704 15.5661L114.311 13.812C114.311 13.812 123.496 3.72575 136.274 4.60284L132.68 0.656025C132.68 0.656025 141.466 -2.8522 149.452 6.35694C153.651 11.198 158.508 16.8884 161.536 23.2985H166.241L164.277 27.6107L171.149 31.9229L164.096 31.1484C164.516 33.5098 164.581 35.9206 164.287 38.301C163.985 40.6821 162.766 42.8529 160.89 44.3551C160.89 44.3551 155.442 33.1073 155.442 31.3532V35.7385C155.442 35.7385 151.049 31.7918 151.049 29.1606L148.653 32.2303H132.68L135.076 28.2835L125.891 29.5991L129.486 24.7752L115.265 44.6947C115.265 44.6947 107.123 22.1441 118.704 15.5661Z" fill="#2F2E41"/>
<path d="M260.009 183.239C280.991 183.239 298 166.273 298 145.344C298 124.415 280.991 107.449 260.009 107.449C239.027 107.449 222.018 124.415 222.018 145.344C222.018 166.273 239.027 183.239 260.009 183.239Z" fill="#3F3D56"/>
<path opacity="0.1" d="M260.009 177.934C278.053 177.934 292.681 163.343 292.681 145.345C292.681 127.346 278.053 112.755 260.009 112.755C241.965 112.755 227.337 127.346 227.337 145.345C227.337 163.343 241.965 177.934 260.009 177.934Z" fill="black"/>
<path d="M258.443 164.575V159.832C256.04 159.785 253.553 158.94 252.102 157.766L253.097 154.619C254.821 155.908 256.911 156.615 259.065 156.638C262.008 156.638 263.997 154.713 263.997 152.036C263.997 149.453 262.381 147.856 259.314 146.447C255.086 144.569 252.475 142.408 252.475 138.323C252.475 134.425 254.921 131.466 258.734 130.761V126.018H261.303V130.574C263.219 130.6 265.088 131.17 266.691 132.217L265.655 135.317C264.117 134.267 262.296 133.71 260.433 133.72C257.242 133.72 256.04 135.88 256.04 137.759C256.04 140.201 257.573 141.422 261.179 143.113C265.448 145.085 267.603 147.528 267.603 151.707C267.603 155.417 265.323 158.893 261.054 159.691V164.575H258.443Z" fill="#1890FF"/>
<path opacity="0.2" d="M94.9792 191.32L110.174 238.663L98.0166 189.4L94.9792 191.32Z" fill="black"/>
<path d="M17.5113 98.8314H7.86662C7.44626 98.8309 7.04326 98.6642 6.74603 98.3677C6.44879 98.0712 6.2816 97.6692 6.28113 97.2499V83.4208C6.2816 83.0015 6.44879 82.5996 6.74603 82.3031C7.04326 82.0066 7.44626 81.8398 7.86662 81.8394H17.5113C17.9316 81.8398 18.3346 82.0066 18.6319 82.3031C18.9291 82.5996 19.0963 83.0015 19.0968 83.4208V97.2499C19.0963 97.6692 18.9291 98.0712 18.6319 98.3677C18.3346 98.6642 17.9316 98.8309 17.5113 98.8314ZM7.86662 82.5973C7.64772 82.5975 7.43786 82.6844 7.28307 82.8388C7.12829 82.9932 7.04121 83.2025 7.04095 83.4208V97.2499C7.04121 97.4683 7.12829 97.6776 7.28307 97.832C7.43786 97.9864 7.64772 98.0732 7.86662 98.0735H17.5113C17.7302 98.0732 17.94 97.9864 18.0948 97.832C18.2496 97.6776 18.3367 97.4683 18.3369 97.2499V83.4208C18.3367 83.2025 18.2496 82.9932 18.0948 82.8388C17.94 82.6844 17.7302 82.5975 17.5113 82.5973H7.86662Z" fill="#3F3D56"/>
<path d="M35.1275 98.8314H26.4178C25.8735 98.8308 25.3517 98.6149 24.9669 98.231C24.582 97.8471 24.3655 97.3266 24.3649 96.7837V68.8554C24.3655 68.3125 24.582 67.792 24.9669 67.4081C25.3517 67.0242 25.8735 66.8083 26.4178 66.8076H35.1275C35.6718 66.8083 36.1936 67.0242 36.5785 67.4081C36.9634 67.792 37.1799 68.3125 37.1805 68.8554V96.7837C37.1799 97.3266 36.9634 97.8471 36.5785 98.231C36.1936 98.6149 35.6718 98.8308 35.1275 98.8314ZM26.4178 67.5655C26.075 67.5659 25.7463 67.7019 25.5039 67.9437C25.2614 68.1855 25.1251 68.5134 25.1247 68.8554V96.7837C25.1251 97.1257 25.2614 97.4535 25.5039 97.6953C25.7463 97.9372 26.075 98.0732 26.4178 98.0735H35.1275C35.4704 98.0732 35.7991 97.9372 36.0415 97.6953C36.2839 97.4535 36.4203 97.1257 36.4207 96.7837V68.8554C36.4203 68.5134 36.2839 68.1855 36.0415 67.9437C35.7991 67.7019 35.4704 67.5659 35.1275 67.5655L26.4178 67.5655Z" fill="#3F3D56"/>
<path d="M52.8749 98.8314H44.8378C44.2043 98.8307 43.597 98.5794 43.1491 98.1326C42.7012 97.6858 42.4492 97.08 42.4485 96.4482V55.3618C42.4492 54.7299 42.7012 54.1241 43.1491 53.6773C43.597 53.2306 44.2043 52.9792 44.8378 52.9785H52.8749C53.5083 52.9792 54.1156 53.2306 54.5635 53.6773C55.0114 54.1241 55.2634 54.7299 55.2641 55.3618V96.4482C55.2634 97.08 55.0114 97.6858 54.5635 98.1326C54.1156 98.5794 53.5083 98.8307 52.8749 98.8314ZM44.8378 53.7364C44.4058 53.7369 43.9916 53.9083 43.6861 54.213C43.3806 54.5177 43.2088 54.9308 43.2083 55.3618V96.4482C43.2088 96.8791 43.3806 97.2922 43.6861 97.5969C43.9916 97.9016 44.4058 98.073 44.8378 98.0735H52.8749C53.3069 98.073 53.721 97.9016 54.0265 97.5969C54.332 97.2922 54.5038 96.8791 54.5043 96.4482V55.3618C54.5038 54.9308 54.332 54.5177 54.0265 54.213C53.721 53.9083 53.3069 53.7369 52.8749 53.7364H44.8378Z" fill="#3F3D56"/>
<path d="M16.3057 84.4731H9.07227V96.1979H16.3057V84.4731Z" fill="#1890FF"/>
<path d="M34.3894 69.5918H27.1559V96.1978H34.3894V69.5918Z" fill="#1890FF"/>
<path d="M52.4731 55.7627H45.2396V96.1979H52.4731V55.7627Z" fill="#1890FF"/>
<path d="M274.674 55.252H224.147C224.097 55.2521 224.047 55.2423 224.001 55.2232C223.955 55.2042 223.913 55.1763 223.878 55.1411C223.843 55.1059 223.815 55.0641 223.795 55.0181C223.776 54.9721 223.767 54.9229 223.767 54.8731V3.71489C223.767 3.61438 223.807 3.518 223.878 3.44693C223.949 3.37586 224.046 3.33594 224.147 3.33594C224.247 3.33594 224.344 3.37586 224.415 3.44693C224.486 3.518 224.526 3.61438 224.526 3.71489V54.4941H274.674C274.775 54.4941 274.872 54.5341 274.943 54.6051C275.014 54.6762 275.054 54.7726 275.054 54.8731C275.054 54.9736 275.014 55.07 274.943 55.1411C274.872 55.2121 274.775 55.252 274.674 55.252Z" fill="#3F3D56"/>
<path d="M60.4056 104.137H0.379909C0.330015 104.137 0.280609 104.127 0.23451 104.108C0.188412 104.089 0.146524 104.061 0.111244 104.026C0.0759632 103.991 0.0479797 103.949 0.028892 103.903C0.00980441 103.857 -1.29647e-05 103.808 1.28493e-08 103.758V44.2627C1.28493e-08 44.1622 0.0400258 44.0658 0.111273 43.9948C0.182519 43.9237 0.279151 43.8838 0.379909 43.8838C0.480668 43.8838 0.577299 43.9237 0.648546 43.9948C0.719793 44.0658 0.759819 44.1622 0.759819 44.2627V103.379H60.4056C60.5063 103.379 60.603 103.419 60.6742 103.49C60.7455 103.561 60.7855 103.657 60.7855 103.758C60.7855 103.858 60.7455 103.955 60.6742 104.026C60.603 104.097 60.5063 104.137 60.4056 104.137Z" fill="#3F3D56"/>
<path d="M241.584 50.5028H231.939C231.519 50.5024 231.116 50.3356 230.818 50.0391C230.521 49.7426 230.354 49.3406 230.353 48.9213V35.0922C230.354 34.6729 230.521 34.2709 230.818 33.9744C231.116 33.6779 231.519 33.5112 231.939 33.5107H241.584C242.004 33.5112 242.407 33.678 242.704 33.9745C243.001 34.271 243.169 34.673 243.169 35.0922V48.9213C243.169 49.3406 243.001 49.7425 242.704 50.039C242.407 50.3355 242.004 50.5023 241.584 50.5028ZM231.939 34.2686C231.72 34.2689 231.51 34.3557 231.355 34.5101C231.201 34.6645 231.114 34.8739 231.113 35.0922V48.9213C231.114 49.1397 231.201 49.349 231.355 49.5034C231.51 49.6578 231.72 49.7447 231.939 49.7449H241.584C241.803 49.7446 242.012 49.6578 242.167 49.5034C242.322 49.349 242.409 49.1397 242.409 48.9213V35.0922C242.409 34.8739 242.322 34.6646 242.167 34.5102C242.012 34.3558 241.803 34.2689 241.584 34.2686H231.939Z" fill="#3F3D56"/>
<path d="M261.335 50.5031H252.458C251.936 50.5025 251.435 50.2954 251.066 49.9271C250.697 49.5588 250.489 49.0594 250.489 48.5386V23.4902C250.489 22.9694 250.697 22.4701 251.066 22.1018C251.435 21.7336 251.936 21.5264 252.458 21.5259H261.335C261.857 21.5264 262.358 21.7336 262.727 22.1018C263.096 22.4701 263.304 22.9694 263.304 23.4902V48.5386C263.304 49.0594 263.096 49.5588 262.727 49.9271C262.358 50.2954 261.857 50.5025 261.335 50.5031ZM252.458 22.2838C252.137 22.2841 251.83 22.4113 251.603 22.6375C251.376 22.8637 251.249 23.1703 251.248 23.4902V48.5386C251.249 48.8585 251.376 49.1652 251.603 49.3914C251.83 49.6176 252.137 49.7449 252.458 49.7452H261.335C261.656 49.7449 261.963 49.6176 262.19 49.3914C262.417 49.1652 262.544 48.8585 262.544 48.5386V23.4902C262.544 23.1703 262.417 22.8637 262.19 22.6375C261.963 22.4113 261.656 22.2841 261.335 22.2838H252.458Z" fill="#3F3D56"/>
<path d="M240.205 36.2759H232.971V48.0006H240.205V36.2759Z" fill="#1890FF"/>
<path d="M260.513 24.6714H253.28V47.3567H260.513V24.6714Z" fill="#1890FF"/>
<path d="M236.683 29.4837C238.572 29.4837 240.103 27.9567 240.103 26.0731C240.103 24.1896 238.572 22.6626 236.683 22.6626C234.795 22.6626 233.264 24.1896 233.264 26.0731C233.264 27.9567 234.795 29.4837 236.683 29.4837Z" fill="#1890FF"/>
<path d="M256.819 16.5994C258.707 16.5994 260.238 15.0725 260.238 13.1889C260.238 11.3053 258.707 9.77832 256.819 9.77832C254.93 9.77832 253.4 11.3053 253.4 13.1889C253.4 15.0725 254.93 16.5994 256.819 16.5994Z" fill="#1890FF"/>
</g>
<defs>
<clipPath id="clip0">
<rect width="298" height="278" fill="white"/>
</clipPath>
</defs>
</svg>
