<svg width="94" height="14" viewBox="0 0 94 14" fill="none" xmlns="http://www.w3.org/2000/svg">
<path d="M14 7C14 10.866 10.866 14 7 14C4.962 14 3.12743 13.1291 1.84829 11.7391C1.51229 11.3743 1.21486 10.9734 0.961714 10.5434C0.350571 9.504 0 8.29286 0 7C0 3.134 3.134 0 7 0C8.29314 0 9.50428 0.350571 10.5434 0.962C10.9734 1.21486 11.374 1.51229 11.7389 1.84857C13.1289 3.12714 14 4.962 14 7Z" fill="#F0CD00"/>
<path d="M14 7.00002C14 10.7789 11.006 13.8583 7.26055 13.9952C3.51512 13.8583 0.521118 10.7789 0.521118 7.00002C0.521118 3.22117 3.51512 0.14174 7.26055 0.00488281C11.006 0.14174 14 3.22117 14 7.00002Z" fill="#FFDE50"/>
<path d="M11.7389 1.84849L1.8483 11.7391C1.5123 11.3742 1.21487 10.9733 0.961731 10.5433L10.5434 0.961914C10.9734 1.21477 11.374 1.5122 11.7389 1.84849Z" fill="#FFEA94"/>
<path d="M13.5172 4.44103L4.44062 13.5176C3.79805 13.265 3.20176 12.9202 2.66833 12.4993L12.4992 2.66846C12.92 3.20189 13.2649 3.79817 13.5172 4.44103Z" fill="#FFEA94"/>
<path d="M12.4393 6.99997C12.4393 10.004 10.0039 12.4394 6.99991 12.4394C5.95363 12.4394 4.97649 12.144 4.14706 11.632C3.78563 11.4091 3.45249 11.1448 3.15363 10.846C2.93391 10.6265 2.73277 10.388 2.55306 10.1334C2.30563 9.78283 2.09849 9.40169 1.93877 8.99683C1.7022 8.39826 1.56906 7.7474 1.56106 7.06683C1.56049 7.04455 1.56049 7.02226 1.56049 6.99997C1.56049 3.99598 3.99563 1.56055 6.99991 1.56055C7.0222 1.56055 7.04477 1.56055 7.06706 1.56112C7.74763 1.56912 8.3982 1.70255 8.99677 1.93883C9.40163 2.09883 9.78277 2.30569 10.1333 2.55312C10.3879 2.73312 10.6262 2.93398 10.8459 3.15369C11.1448 3.45226 11.4091 3.78569 11.6319 4.14712C12.1439 4.97655 12.4393 5.95369 12.4393 6.99997Z" fill="#FAA300"/>
<path d="M10.8459 3.15369L3.15363 10.846C2.93391 10.6265 2.73277 10.388 2.55306 10.1334C2.30563 9.78283 2.09849 9.40169 1.93877 8.99683C1.7022 8.39826 1.56906 7.7474 1.56106 7.06683C1.56049 7.04455 1.56049 7.02226 1.56049 6.99998C1.56049 3.99598 3.99563 1.56055 6.99991 1.56055C7.0222 1.56055 7.04477 1.56055 7.06706 1.56112C7.74763 1.56912 8.3982 1.70255 8.99677 1.93883C9.40163 2.09883 9.78277 2.30569 10.1333 2.55312C10.3879 2.73312 10.6262 2.93398 10.8459 3.15369Z" fill="#FFBD00"/>
<path d="M12.4393 6.99997C12.4393 10.004 10.0038 12.4394 6.99983 12.4394C6.89669 12.4394 6.7944 12.4365 6.69269 12.4308C9.55383 12.2717 11.8247 9.90083 11.8247 6.99997C11.8247 4.09912 9.55383 1.72826 6.69269 1.56912C6.7944 1.5634 6.89669 1.56055 6.99983 1.56055C10.0038 1.56055 12.4393 3.99598 12.4393 6.99997Z" fill="#F68E00"/>
<path d="M6.82083 6.58189V4.379C7.16414 4.5684 7.39728 4.93394 7.39728 5.353C7.39728 5.6486 7.63691 5.88823 7.93251 5.88823C8.22811 5.88823 8.46774 5.6486 8.46774 5.353C8.46774 4.3344 7.76611 3.47674 6.82083 3.23749V2.80183C6.82083 2.50623 6.5812 2.2666 6.2856 2.2666C5.99 2.2666 5.75037 2.50623 5.75037 2.80183V3.23746C4.80508 3.47674 4.10345 4.33437 4.10345 5.35297C4.10345 5.96117 4.28208 6.43546 4.64954 6.80292C4.91745 7.07083 5.27334 7.26909 5.75037 7.41443V9.62077C5.40705 9.43137 5.17391 9.06586 5.17391 8.6468C5.17391 8.3512 4.93428 8.11157 4.63868 8.11157C4.34308 8.11157 4.10345 8.3512 4.10345 8.6468C4.10345 9.6654 4.80508 10.523 5.75037 10.7623V11.1979C5.75037 11.4935 5.99 11.7332 6.2856 11.7332C6.5812 11.7332 6.82083 11.4935 6.82083 11.1979V10.7623C7.76611 10.523 8.46774 9.66543 8.46774 8.6468C8.46774 8.04703 8.28145 7.55666 7.91408 7.18929C7.64708 6.92226 7.28677 6.72209 6.82083 6.58189ZM5.40648 6.046C5.2982 5.93774 5.17394 5.76112 5.17394 5.35297C5.17394 4.93392 5.40708 4.5684 5.7504 4.37897V6.27372C5.60603 6.20686 5.49174 6.13129 5.40648 6.046ZM6.82083 9.62077V7.72017C7.286 7.9368 7.39728 8.24672 7.39728 8.6468C7.39728 9.06586 7.16414 9.43137 6.82083 9.62077Z" fill="#F68E00"/>
<path d="M7.53518 6.58189V4.379C7.8785 4.5684 8.11164 4.93394 8.11164 5.353C8.11164 5.6486 8.35127 5.88823 8.64687 5.88823C8.94247 5.88823 9.1821 5.6486 9.1821 5.353C9.1821 4.3344 8.48047 3.47674 7.53518 3.23749V2.80183C7.53518 2.50623 7.29555 2.2666 6.99995 2.2666C6.70435 2.2666 6.46472 2.50623 6.46472 2.80183V3.23746C5.51944 3.47674 4.81781 4.33437 4.81781 5.35297C4.81781 5.96117 4.99644 6.43546 5.3639 6.80292C5.63181 7.07083 5.9877 7.26909 6.46472 7.41443V9.62077C6.12141 9.43137 5.88827 9.06586 5.88827 8.6468C5.88827 8.3512 5.64864 8.11157 5.35304 8.11157C5.05744 8.11157 4.81781 8.3512 4.81781 8.6468C4.81781 9.6654 5.51944 10.523 6.46472 10.7623V11.1979C6.46472 11.4935 6.70435 11.7332 6.99995 11.7332C7.29555 11.7332 7.53518 11.4935 7.53518 11.1979V10.7623C8.48047 10.523 9.1821 9.66543 9.1821 8.6468C9.1821 8.04703 8.99581 7.55666 8.62844 7.18929C8.36144 6.92226 8.0011 6.72209 7.53518 6.58189ZM6.12081 6.046C6.01252 5.93774 5.88827 5.76112 5.88827 5.35297C5.88827 4.93392 6.12141 4.5684 6.46472 4.37897V6.27372C6.32038 6.20686 6.2061 6.13129 6.12081 6.046ZM7.53518 9.62077V7.72017C8.00035 7.9368 8.11164 8.24672 8.11164 8.6468C8.11161 9.06586 7.8785 9.43137 7.53518 9.62077Z" fill="#FFEA94"/>
<path d="M26.52 8.71989L24.816 4.2639C24.6933 3.95989 24.5707 3.57589 24.448 3.11189C24.3893 3.34123 24.328 3.55456 24.264 3.75189C24.2053 3.94923 24.1467 4.12523 24.088 4.27989L22.392 8.71989H26.52ZM29.888 12.9999H28.576C28.4267 12.9999 28.304 12.9626 28.208 12.8879C28.112 12.8132 28.0427 12.7172 28 12.5999L26.984 9.93589H21.92L20.904 12.5999C20.8667 12.7012 20.7973 12.7946 20.696 12.8799C20.5947 12.9599 20.472 12.9999 20.328 12.9999H19.016L23.592 1.51189H25.312L29.888 12.9999Z" fill="#404040"/>
<path d="M32.571 1.19189V12.9999H31.003V1.19189H32.571Z" fill="#404040"/>
<path d="M41.6151 12.9999H40.1111C39.9884 12.9999 39.8898 12.9679 39.8151 12.9039C39.7458 12.8346 39.6898 12.7626 39.6471 12.6879L37.6871 9.5919C37.6604 9.6719 37.6338 9.74923 37.6071 9.82389C37.5804 9.89856 37.5458 9.96789 37.5031 10.0319L35.7031 12.6879C35.6498 12.7626 35.5884 12.8346 35.5191 12.9039C35.4498 12.9679 35.3591 12.9999 35.2471 12.9999H33.8551L36.6871 8.8159L33.9671 4.87189H35.4711C35.5938 4.87189 35.6818 4.89056 35.7351 4.92789C35.7938 4.96523 35.8444 5.02123 35.8871 5.09589L37.8151 8.06389C37.8418 7.98389 37.8711 7.90656 37.9031 7.83189C37.9351 7.75189 37.9778 7.66923 38.0311 7.58389L39.6871 5.1279C39.7831 4.95723 39.9111 4.87189 40.0711 4.87189H41.5031L38.7831 8.74389L41.6151 12.9999Z" fill="#404040"/>
<path d="M47.2296 9.3919C46.5949 9.41323 46.0563 9.46389 45.6136 9.54389C45.1709 9.61856 44.8109 9.71989 44.5336 9.84789C44.2563 9.97589 44.0563 10.1279 43.9336 10.3039C43.8109 10.4746 43.7496 10.6666 43.7496 10.8799C43.7496 11.0826 43.7816 11.2586 43.8456 11.4079C43.9149 11.5519 44.0056 11.6719 44.1176 11.7679C44.2349 11.8586 44.3709 11.9252 44.5256 11.9679C44.6803 12.0106 44.8483 12.0319 45.0296 12.0319C45.2696 12.0319 45.4883 12.0079 45.6856 11.9599C45.8883 11.9119 46.0776 11.8452 46.2536 11.7599C46.4296 11.6692 46.5976 11.5599 46.7576 11.4319C46.9176 11.3039 47.0749 11.1572 47.2296 10.9919V9.3919ZM42.6536 6.00789C43.1069 5.57589 43.5976 5.25323 44.1256 5.03989C44.6589 4.82656 45.2429 4.71989 45.8776 4.71989C46.3416 4.71989 46.7523 4.79723 47.1096 4.95189C47.4669 5.10123 47.7683 5.31189 48.0136 5.58389C48.2589 5.85589 48.4429 6.18123 48.5656 6.55989C48.6936 6.93856 48.7576 7.35723 48.7576 7.8159V12.9999H48.0616C47.9069 12.9999 47.7896 12.9759 47.7096 12.9279C47.6296 12.8746 47.5656 12.7786 47.5176 12.6399L47.3496 11.9279C47.1416 12.1199 46.9363 12.2906 46.7336 12.4399C46.5309 12.5839 46.3176 12.7092 46.0936 12.8159C45.8749 12.9172 45.6403 12.9946 45.3896 13.0479C45.139 13.1012 44.8616 13.1279 44.5576 13.1279C44.2376 13.1279 43.9363 13.0852 43.6536 12.9999C43.3763 12.9092 43.1336 12.7732 42.9256 12.5919C42.7176 12.4106 42.5523 12.1839 42.4296 11.9119C42.3123 11.6399 42.2536 11.3226 42.2536 10.9599C42.2536 10.6399 42.3389 10.3332 42.5096 10.0399C42.6856 9.74123 42.9683 9.47456 43.3576 9.23989C43.7523 9.00523 44.2643 8.81323 44.8936 8.66389C45.5283 8.51456 46.3069 8.42923 47.2296 8.4079V7.8159C47.2296 7.20256 47.0989 6.7439 46.8376 6.43989C46.5763 6.13589 46.1923 5.98389 45.6856 5.98389C45.3443 5.98389 45.0563 6.02656 44.8216 6.11189C44.5923 6.19723 44.3923 6.29323 44.2216 6.39989C44.0563 6.50123 43.9096 6.59456 43.7816 6.6799C43.6589 6.76523 43.5309 6.80789 43.3976 6.80789C43.2909 6.80789 43.1976 6.77856 43.1176 6.71989C43.0429 6.66123 42.9816 6.59189 42.9336 6.51189L42.6536 6.00789Z" fill="#404040"/>
<path d="M64.5889 7.40789V11.8879C64.0075 12.3039 63.3889 12.6159 62.7329 12.8239C62.0769 13.0266 61.3622 13.1279 60.5889 13.1279C59.6609 13.1279 58.8209 12.9839 58.0689 12.6959C57.3222 12.4079 56.6849 12.0052 56.1569 11.4879C55.6289 10.9706 55.2209 10.3519 54.9329 9.6319C54.6502 8.91189 54.5089 8.11989 54.5089 7.25589C54.5089 6.38656 54.6449 5.59189 54.9169 4.87189C55.1942 4.14656 55.5889 3.52789 56.1009 3.01589C56.6129 2.49856 57.2315 2.09856 57.9569 1.81589C58.6875 1.52789 59.5062 1.38389 60.4129 1.38389C60.8715 1.38389 61.2955 1.41856 61.6849 1.4879C62.0795 1.55723 62.4449 1.65589 62.7809 1.78389C63.1169 1.91189 63.4262 2.06656 63.7089 2.24789C63.9969 2.42389 64.2635 2.62389 64.5089 2.84789L64.0209 3.61589C63.9462 3.73856 63.8475 3.81589 63.7249 3.84789C63.6022 3.87989 63.4689 3.85056 63.3249 3.75989C63.1862 3.67989 63.0315 3.58656 62.8609 3.47989C62.6955 3.37323 62.4955 3.27456 62.2609 3.18389C62.0315 3.09323 61.7622 3.01589 61.4529 2.95189C61.1435 2.88789 60.7782 2.8559 60.3569 2.8559C59.7275 2.8559 59.1595 2.95989 58.6529 3.16789C58.1462 3.37056 57.7142 3.66389 57.3569 4.04789C56.9995 4.43189 56.7249 4.89589 56.5329 5.43989C56.3409 5.97856 56.2449 6.58389 56.2449 7.25589C56.2449 7.95989 56.3462 8.59189 56.5489 9.15189C56.7515 9.70656 57.0369 10.1786 57.4049 10.5679C57.7782 10.9519 58.2289 11.2452 58.7569 11.4479C59.2902 11.6506 59.8849 11.7519 60.5409 11.7519C60.7969 11.7519 61.0342 11.7386 61.2529 11.7119C61.4769 11.6799 61.6902 11.6372 61.8929 11.5839C62.0955 11.5306 62.2902 11.4639 62.4769 11.3839C62.6689 11.3039 62.8582 11.2159 63.0449 11.1199V8.71189H61.3489C61.2422 8.71189 61.1542 8.67989 61.0849 8.61589C61.0209 8.55189 60.9889 8.47189 60.9889 8.37589V7.40789H64.5889Z" fill="#404040"/>
<path d="M69.935 4.74389C70.5323 4.74389 71.071 4.84256 71.551 5.03989C72.0363 5.23189 72.447 5.51189 72.783 5.87989C73.1243 6.24256 73.3857 6.68256 73.567 7.19989C73.7483 7.71189 73.839 8.28789 73.839 8.92789C73.839 9.56789 73.7483 10.1466 73.567 10.6639C73.3857 11.1812 73.1243 11.6212 72.783 11.9839C72.447 12.3466 72.0363 12.6266 71.551 12.8239C71.071 13.0159 70.5323 13.1119 69.935 13.1119C69.3323 13.1119 68.7883 13.0159 68.303 12.8239C67.823 12.6266 67.4123 12.3466 67.071 11.9839C66.7297 11.6212 66.4657 11.1812 66.279 10.6639C66.0977 10.1466 66.007 9.56789 66.007 8.92789C66.007 8.28789 66.0977 7.71189 66.279 7.19989C66.4657 6.68256 66.7297 6.24256 67.071 5.87989C67.4123 5.51189 67.823 5.23189 68.303 5.03989C68.7883 4.84256 69.3323 4.74389 69.935 4.74389ZM69.935 11.8959C70.703 11.8959 71.2763 11.6372 71.655 11.1199C72.0337 10.6026 72.223 9.87456 72.223 8.93589C72.223 7.99723 72.0337 7.26923 71.655 6.75189C71.2763 6.22923 70.703 5.96789 69.935 5.96789C69.1563 5.96789 68.575 6.22923 68.191 6.75189C67.8123 7.26923 67.623 7.99723 67.623 8.93589C67.623 9.87456 67.8123 10.6026 68.191 11.1199C68.575 11.6372 69.1563 11.8959 69.935 11.8959Z" fill="#404040"/>
<path d="M77.1804 1.19189V12.9999H75.6124V1.19189H77.1804Z" fill="#404040"/>
<path d="M84.6485 6.8399C84.3925 6.5039 84.1152 6.26923 83.8165 6.13589C83.5232 6.00256 83.1925 5.93589 82.8245 5.93589C82.1098 5.93589 81.5552 6.19456 81.1605 6.71189C80.7712 7.22389 80.5765 7.97323 80.5765 8.9599C80.5765 9.47723 80.6192 9.9199 80.7045 10.2879C80.7952 10.6506 80.9232 10.9492 81.0885 11.1839C81.2592 11.4132 81.4672 11.5839 81.7125 11.6959C81.9578 11.8026 82.2352 11.8559 82.5445 11.8559C82.9978 11.8559 83.3898 11.7546 83.7205 11.5519C84.0512 11.3492 84.3605 11.0639 84.6485 10.6959V6.8399ZM86.2165 1.19189V12.9999H85.2725C85.0538 12.9999 84.9178 12.8959 84.8645 12.6879L84.7285 11.7519C84.3818 12.1626 83.9872 12.4932 83.5445 12.7439C83.1072 12.9892 82.6005 13.1119 82.0245 13.1119C81.5605 13.1119 81.1392 13.0212 80.7605 12.8399C80.3872 12.6586 80.0672 12.3946 79.8005 12.0479C79.5338 11.6959 79.3285 11.2612 79.1845 10.7439C79.0405 10.2266 78.9685 9.6319 78.9685 8.9599C78.9685 8.35723 79.0485 7.79723 79.2085 7.27989C79.3685 6.76256 79.6005 6.31456 79.9045 5.93589C80.2085 5.55723 80.5765 5.26123 81.0085 5.0479C81.4405 4.82923 81.9285 4.71989 82.4725 4.71989C82.9632 4.71989 83.3792 4.79989 83.7205 4.9599C84.0672 5.11989 84.3765 5.34656 84.6485 5.63989V1.19189H86.2165Z" fill="#404040"/>
<path d="M93.1849 6.27189C93.1422 6.34123 93.0969 6.39189 93.0489 6.42389C93.0009 6.45056 92.9395 6.46389 92.8649 6.46389C92.7795 6.46389 92.6835 6.43456 92.5769 6.37589C92.4755 6.31723 92.3502 6.25323 92.2009 6.1839C92.0569 6.11456 91.8862 6.05056 91.6889 5.99189C91.4915 5.93323 91.2569 5.90389 90.9849 5.90389C90.7609 5.90389 90.5555 5.93323 90.3689 5.99189C90.1875 6.04523 90.0329 6.12256 89.9049 6.22389C89.7769 6.31989 89.6782 6.43723 89.6089 6.5759C89.5395 6.70923 89.5049 6.85323 89.5049 7.00789C89.5049 7.21056 89.5635 7.37856 89.6809 7.51189C89.8035 7.64523 89.9609 7.75989 90.1529 7.8559C90.3502 7.9519 90.5715 8.0399 90.8169 8.11989C91.0675 8.19456 91.3209 8.27456 91.5769 8.35989C91.8382 8.44523 92.0915 8.5439 92.3369 8.6559C92.5875 8.76256 92.8089 8.89856 93.0009 9.0639C93.1982 9.2239 93.3555 9.41856 93.4729 9.64789C93.5955 9.87723 93.6569 10.1572 93.6569 10.4879C93.6569 10.8666 93.5875 11.2186 93.4489 11.5439C93.3155 11.8639 93.1155 12.1412 92.8489 12.3759C92.5875 12.6106 92.2622 12.7946 91.8729 12.9279C91.4835 13.0612 91.0382 13.1279 90.5369 13.1279C89.9769 13.1279 89.4595 13.0346 88.9849 12.8479C88.5102 12.6612 88.1129 12.4239 87.7929 12.1359L88.1609 11.5359C88.2035 11.4612 88.2569 11.4052 88.3209 11.3679C88.3849 11.3252 88.4702 11.3039 88.5769 11.3039C88.6782 11.3039 88.7822 11.3412 88.8889 11.4159C88.9955 11.4906 89.1235 11.5732 89.2729 11.6639C89.4222 11.7492 89.6035 11.8292 89.8169 11.9039C90.0302 11.9732 90.2969 12.0079 90.6169 12.0079C90.8835 12.0079 91.1155 11.9759 91.3129 11.9119C91.5102 11.8426 91.6729 11.7519 91.8009 11.6399C91.9342 11.5226 92.0329 11.3892 92.0969 11.2399C92.1609 11.0906 92.1929 10.9332 92.1929 10.7679C92.1929 10.5546 92.1315 10.3786 92.0089 10.2399C91.8915 10.0959 91.7342 9.97323 91.5369 9.87189C91.3449 9.77056 91.1235 9.68256 90.8729 9.60789C90.6222 9.53323 90.3662 9.45323 90.1049 9.3679C89.8435 9.28256 89.5875 9.18389 89.3369 9.07189C89.0862 8.95989 88.8622 8.81856 88.6649 8.64789C88.4729 8.47723 88.3155 8.26923 88.1929 8.0239C88.0755 7.77856 88.0169 7.4799 88.0169 7.1279C88.0169 6.81323 88.0809 6.51189 88.2089 6.22389C88.3422 5.93589 88.5315 5.68256 88.7769 5.46389C89.0275 5.24523 89.3342 5.07189 89.6969 4.94389C90.0649 4.81056 90.4835 4.74389 90.9529 4.74389C91.4915 4.74389 91.9769 4.82923 92.4089 4.9999C92.8462 5.17056 93.2195 5.40523 93.5289 5.70389L93.1849 6.27189Z" fill="#404040"/>
</svg>
