<svg width="91" height="91" viewBox="0 0 91 91" fill="none" xmlns="http://www.w3.org/2000/svg">
<path d="M91 45.5C91 70.629 70.629 91 45.5 91C32.253 91 20.3283 85.3394 12.0139 76.3044C9.82986 73.9328 7.89657 71.3273 6.25114 68.5323C2.27871 61.776 0 53.9036 0 45.5C0 20.371 20.371 0 45.5 0C53.9054 0 61.7778 2.27871 68.5323 6.253C71.3273 7.89657 73.931 9.82985 76.3026 12.0157C85.3376 20.3264 91 32.253 91 45.5Z" fill="#F0CD00"/>
<path d="M90.9998 45.5002C90.9998 70.0627 71.5388 90.079 47.1936 90.9686C22.8483 90.079 3.38727 70.0627 3.38727 45.5002C3.38727 20.9376 22.8483 0.92131 47.1936 0.0317383C71.5388 0.92131 90.9998 20.9376 90.9998 45.5002Z" fill="#FFDE50"/>
<path d="M76.3031 12.0166L12.0144 76.3053C9.83036 73.9338 7.89708 71.3282 6.25165 68.5332L68.5328 6.25391C71.3278 7.89748 73.9315 9.83076 76.3031 12.0166Z" fill="#FFEA94"/>
<path d="M87.8618 28.865L28.864 87.8627C24.6873 86.221 20.8115 83.9794 17.3442 81.2438L81.2448 17.3433C83.9803 20.8105 86.2219 24.6864 87.8618 28.865Z" fill="#FFEA94"/>
<path d="M80.8561 45.4998C80.8561 65.0258 65.0258 80.8561 45.4998 80.8561C38.699 80.8561 32.3476 78.9358 26.9563 75.6078C24.607 74.1593 22.4416 72.4414 20.499 70.4988C19.0708 69.0725 17.7634 67.5218 16.5953 65.8671C14.987 63.5884 13.6406 61.111 12.6024 58.4794C11.0647 54.5887 10.1993 50.3581 10.1473 45.9344C10.1436 45.7895 10.1436 45.6447 10.1436 45.4998C10.1436 25.9738 25.972 10.1436 45.4998 10.1436C45.6447 10.1436 45.7914 10.1436 45.9363 10.1473C50.36 10.1993 54.5887 11.0666 58.4794 12.6024C61.111 13.6424 63.5884 14.987 65.8671 16.5953C67.5218 17.7653 69.0707 19.0708 70.4988 20.499C72.4414 22.4397 74.1593 24.607 75.6078 26.9563C78.9358 32.3476 80.8561 38.699 80.8561 45.4998Z" fill="#FAA300"/>
<path d="M70.4988 20.499L20.499 70.4988C19.0708 69.0726 17.7634 67.5218 16.5953 65.8671C14.987 63.5884 13.6406 61.111 12.6024 58.4794C11.0647 54.5887 10.1993 50.3581 10.1473 45.9344C10.1436 45.7896 10.1436 45.6447 10.1436 45.4998C10.1436 25.9738 25.972 10.1436 45.4998 10.1436C45.6447 10.1436 45.7914 10.1436 45.9363 10.1473C50.36 10.1993 54.5887 11.0666 58.4794 12.6024C61.111 13.6424 63.5884 14.987 65.8671 16.5953C67.5218 17.7653 69.0707 19.0708 70.4988 20.499Z" fill="#FFBD00"/>
<path d="M80.8548 45.4998C80.8548 65.0258 65.0245 80.8561 45.4985 80.8561C44.8281 80.8561 44.1632 80.8375 43.5021 80.8004C62.0995 79.766 76.8601 64.3554 76.8601 45.4998C76.8601 26.6443 62.0995 11.2337 43.5021 10.1993C44.1632 10.1621 44.8281 10.1436 45.4985 10.1436C65.0245 10.1436 80.8548 25.9738 80.8548 45.4998Z" fill="#F68E00"/>
<path d="M44.3358 42.7823V28.4635C46.5673 29.6946 48.0827 32.0706 48.0827 34.7945C48.0827 36.7159 49.6403 38.2735 51.5617 38.2735C53.4831 38.2735 55.0407 36.7159 55.0407 34.7945C55.0407 28.1736 50.4801 22.5988 44.3358 21.0437V18.2119C44.3358 16.2905 42.7782 14.7329 40.8568 14.7329C38.9354 14.7329 37.3778 16.2905 37.3778 18.2119V21.0435C31.2334 22.5988 26.6729 28.1734 26.6729 34.7943C26.6729 38.7476 27.8339 41.8305 30.2224 44.219C31.9639 45.9604 34.2771 47.2491 37.3778 48.1938V62.535C35.1463 61.3039 33.6308 58.9281 33.6308 56.2042C33.6308 54.2828 32.0732 52.7252 30.1518 52.7252C28.2304 52.7252 26.6729 54.2828 26.6729 56.2042C26.6729 62.8251 31.2334 68.3997 37.3778 69.9551V72.7866C37.3778 74.708 38.9354 76.2656 40.8568 76.2656C42.7782 76.2656 44.3358 74.708 44.3358 72.7866V69.9551C50.4801 68.3997 55.0407 62.8253 55.0407 56.2042C55.0407 52.3057 53.8299 49.1183 51.4419 46.7304C49.7064 44.9947 47.3644 43.6936 44.3358 42.7823ZM35.1425 39.299C34.4387 38.5953 33.631 37.4473 33.631 34.7943C33.631 32.0705 35.1464 29.6946 37.378 28.4633V40.7792C36.4396 40.3446 35.6967 39.8534 35.1425 39.299ZM44.3358 62.535V50.1811C47.3594 51.5892 48.0827 53.6037 48.0827 56.2042C48.0827 58.9281 46.5673 61.3039 44.3358 62.535Z" fill="#F68E00"/>
<path d="M48.9791 42.7823V28.4635C51.2106 29.6946 52.726 32.0706 52.726 34.7945C52.726 36.7159 54.2836 38.2735 56.205 38.2735C58.1264 38.2735 59.684 36.7159 59.684 34.7945C59.684 28.1736 55.1234 22.5988 48.9791 21.0437V18.2119C48.9791 16.2905 47.4215 14.7329 45.5001 14.7329C43.5787 14.7329 42.0211 16.2905 42.0211 18.2119V21.0435C35.8768 22.5988 31.3162 28.1734 31.3162 34.7943C31.3162 38.7476 32.4772 41.8305 34.8657 44.219C36.6072 45.9604 38.9204 47.2491 42.0211 48.1938V62.535C39.7896 61.3039 38.2741 58.9281 38.2741 56.2042C38.2741 54.2828 36.7165 52.7252 34.7951 52.7252C32.8737 52.7252 31.3162 54.2828 31.3162 56.2042C31.3162 62.8251 35.8768 68.3997 42.0211 69.9551V72.7866C42.0211 74.708 43.5787 76.2656 45.5001 76.2656C47.4215 76.2656 48.9791 74.708 48.9791 72.7866V69.9551C55.1234 68.3997 59.684 62.8253 59.684 56.2042C59.684 52.3057 58.4732 49.1183 56.0852 46.7304C54.3497 44.9947 52.0075 43.6936 48.9791 42.7823ZM39.7857 39.299C39.0818 38.5953 38.2741 37.4473 38.2741 34.7943C38.2741 32.0705 39.7896 29.6946 42.0211 28.4633V40.7792C41.0829 40.3446 40.34 39.8534 39.7857 39.299ZM48.9791 62.535V50.1811C52.0027 51.5892 52.726 53.6037 52.726 56.2042C52.7259 58.9281 51.2106 61.3039 48.9791 62.535Z" fill="#FFEA94"/>
</svg>
