<svg width="97" height="27" viewBox="0 0 97 27" fill="none" xmlns="http://www.w3.org/2000/svg">
<path d="M2.68125 15.4594L9.03906 18.0289V20.0195L0.73125 16.1703V14.6875L9.03906 10.8484V12.8391L2.68125 15.4594ZM11.5477 16.4141C11.5477 14.7281 11.9471 13.374 12.7461 12.3516C13.5451 11.3224 14.5911 10.8078 15.8844 10.8078C17.1708 10.8078 18.1898 11.2479 18.9414 12.1281V6.4H20.8203V22H19.0937L19.0023 20.8219C18.2508 21.7427 17.2047 22.2031 15.8641 22.2031C14.5911 22.2031 13.5518 21.6818 12.7461 20.6391C11.9471 19.5964 11.5477 18.2354 11.5477 16.5563V16.4141ZM13.4266 16.6273C13.4266 17.8732 13.6839 18.8482 14.1984 19.5523C14.713 20.2565 15.424 20.6086 16.3312 20.6086C17.5229 20.6086 18.393 20.0737 18.9414 19.0039V13.9563C18.3794 12.9203 17.5161 12.4023 16.3516 12.4023C15.4307 12.4023 14.713 12.7578 14.1984 13.4688C13.6839 14.1797 13.4266 15.2326 13.4266 16.6273ZM30.5297 22C30.4214 21.7833 30.3333 21.3974 30.2656 20.8422C29.3922 21.7495 28.3495 22.2031 27.1375 22.2031C26.0542 22.2031 25.1638 21.8984 24.4664 21.2891C23.7758 20.6729 23.4305 19.8943 23.4305 18.9531C23.4305 17.8089 23.8638 16.9219 24.7305 16.2922C25.6039 15.6557 26.8294 15.3375 28.407 15.3375H30.2352V14.4742C30.2352 13.8174 30.0388 13.2961 29.6461 12.9102C29.2534 12.5174 28.6745 12.3211 27.9094 12.3211C27.2391 12.3211 26.6771 12.4904 26.2234 12.8289C25.7698 13.1674 25.543 13.5771 25.543 14.0578H23.6539C23.6539 13.5094 23.8469 12.9813 24.2328 12.4734C24.6255 11.9589 25.1536 11.5526 25.8172 11.2547C26.4875 10.9568 27.2221 10.8078 28.0211 10.8078C29.2872 10.8078 30.2792 11.126 30.9969 11.7625C31.7146 12.3922 32.087 13.2622 32.1141 14.3727V19.4305C32.1141 20.4393 32.2427 21.2417 32.5 21.8375V22H30.5297ZM27.4117 20.568C28.0008 20.568 28.5594 20.4156 29.0875 20.1109C29.6156 19.8063 29.9982 19.4102 30.2352 18.9227V16.668H28.7625C26.4604 16.668 25.3094 17.3417 25.3094 18.6891C25.3094 19.2781 25.5057 19.7385 25.8984 20.0703C26.2911 20.4021 26.7956 20.568 27.4117 20.568ZM44.3422 16.6273C44.3422 18.2997 43.9596 19.6471 43.1945 20.6695C42.4294 21.6919 41.3935 22.2031 40.0867 22.2031C38.7529 22.2031 37.7034 21.7799 36.9383 20.9336V26.225H35.0594V11.0109H36.7758L36.8672 12.2297C37.6323 11.2818 38.6953 10.8078 40.0562 10.8078C41.3766 10.8078 42.4193 11.3055 43.1844 12.3008C43.9562 13.2961 44.3422 14.6807 44.3422 16.4547V16.6273ZM42.4633 16.4141C42.4633 15.175 42.1992 14.1966 41.6711 13.4789C41.143 12.7612 40.4185 12.4023 39.4977 12.4023C38.3602 12.4023 37.507 12.9068 36.9383 13.9156V19.1664C37.5003 20.1685 38.3602 20.6695 39.518 20.6695C40.4185 20.6695 41.1328 20.3141 41.6609 19.6031C42.1958 18.8854 42.4633 17.8224 42.4633 16.4141ZM50.4359 18.6688C50.4359 17.951 50.463 17.2299 50.5172 16.5055C50.5714 15.781 50.6424 15.0464 50.7305 14.3016H49.8063L49.918 13.682H50.8117C50.9065 12.9914 51.0013 12.3008 51.0961 11.6102C51.1977 10.9128 51.2891 10.2154 51.3703 9.51797H52.4062C52.3927 9.66693 52.3724 9.88359 52.3453 10.168C52.325 10.4456 52.2979 10.7706 52.2641 11.143C52.237 11.5086 52.2099 11.9115 52.1828 12.3516C52.1557 12.7849 52.1286 13.2284 52.1016 13.682H54.0719L53.9703 14.3016H52.0609C52.0339 14.6875 52.0102 15.0667 51.9898 15.4391C51.9695 15.8115 51.9492 16.1669 51.9289 16.5055C51.9154 16.8372 51.9052 17.1453 51.8984 17.4297C51.8917 17.7073 51.8883 17.9477 51.8883 18.1508C51.8883 18.6654 51.9018 19.0953 51.9289 19.4406C51.9628 19.7859 52.0102 20.0635 52.0711 20.2734C52.1388 20.4833 52.2201 20.6323 52.3148 20.7203C52.4164 20.8083 52.5315 20.8523 52.6602 20.8523C52.8294 20.8523 53.0156 20.7677 53.2187 20.5984C53.4286 20.4224 53.6453 20.1888 53.8687 19.8977C54.0922 19.6065 54.319 19.268 54.5492 18.882C54.7794 18.4893 55.0029 18.0729 55.2195 17.6328L55.3211 17.4195L55.7375 17.7344L55.6359 17.9477C55.3245 18.5773 55.013 19.1427 54.7016 19.6438C54.3969 20.1448 54.0956 20.5714 53.7977 20.9234C53.4997 21.2688 53.2086 21.5362 52.9242 21.7258C52.6398 21.9086 52.3656 22 52.1016 22C51.8375 22 51.6005 21.9391 51.3906 21.8172C51.1875 21.6953 51.0148 21.5023 50.8727 21.2383C50.7305 20.9674 50.6221 20.6221 50.5477 20.2023C50.4732 19.7826 50.4359 19.2714 50.4359 18.6688ZM58.3273 20.8523C58.5643 20.8523 58.8047 20.7914 59.0484 20.6695C59.299 20.5477 59.5495 20.3581 59.8 20.1008C60.0573 19.8435 60.3214 19.5117 60.5922 19.1055C60.863 18.6924 61.1406 18.2016 61.425 17.6328L61.5266 17.4195L61.943 17.7344L61.8414 17.9477C61.4758 18.6721 61.1102 19.2917 60.7445 19.8063C60.3857 20.3208 60.0302 20.7406 59.6781 21.0656C59.3328 21.3906 58.9909 21.6276 58.6523 21.7766C58.3138 21.9255 57.9888 22 57.6773 22C57.2372 22 56.8445 21.9086 56.4992 21.7258C56.1539 21.543 55.8628 21.2958 55.6258 20.9844C55.3888 20.6661 55.2094 20.3005 55.0875 19.8875C54.9589 19.4677 54.8945 19.0276 54.8945 18.5672C54.8945 17.8359 54.9961 17.1724 55.1992 16.5766C55.3956 15.974 55.6596 15.4594 55.9914 15.0328C56.3299 14.6063 56.7125 14.2745 57.1391 14.0375C57.5656 13.8005 58.0091 13.682 58.4695 13.682C58.9367 13.682 59.2922 13.8005 59.5359 14.0375C59.7865 14.2745 59.9117 14.5724 59.9117 14.9313C59.9117 15.2766 59.8135 15.6016 59.6172 15.9063C59.4208 16.2042 59.1534 16.4987 58.8148 16.7898C58.4831 17.0742 58.0971 17.3586 57.657 17.643C57.2169 17.9206 56.7531 18.2083 56.2656 18.5063C56.313 18.8583 56.3943 19.1799 56.5094 19.4711C56.6245 19.7555 56.7701 20.0026 56.9461 20.2125C57.1221 20.4156 57.3253 20.5747 57.5555 20.6898C57.7857 20.7982 58.043 20.8523 58.3273 20.8523ZM58.6422 15.2359C58.6422 14.9651 58.5677 14.7518 58.4187 14.5961C58.2766 14.4404 58.1005 14.3625 57.8906 14.3625C57.7146 14.3625 57.5284 14.4268 57.332 14.5555C57.1357 14.6773 56.9562 14.8771 56.7937 15.1547C56.6312 15.4255 56.4958 15.7742 56.3875 16.2008C56.2792 16.6273 56.225 17.1453 56.225 17.7547V17.9883C56.4552 17.8664 56.7091 17.7073 56.9867 17.5109C57.2711 17.3078 57.5352 17.0844 57.7789 16.8406C58.0227 16.5969 58.2258 16.3396 58.3883 16.0688C58.5576 15.7911 58.6422 15.5135 58.6422 15.2359ZM64.9594 16.2008C65.0406 16.0721 65.1083 15.913 65.1625 15.7234C65.2234 15.5339 65.2539 15.3443 65.2539 15.1547C65.2539 14.9245 65.1964 14.7247 65.0812 14.5555C64.9661 14.3862 64.7596 14.3016 64.4617 14.3016C64.2654 14.3016 64.0656 14.3727 63.8625 14.5148C63.6594 14.657 63.4698 14.8703 63.2937 15.1547C63.1245 15.4391 62.9857 15.7979 62.8773 16.2313C62.769 16.6646 62.7148 17.1724 62.7148 17.7547C62.7148 18.2151 62.7622 18.6349 62.857 19.0141C62.9518 19.3932 63.0906 19.7182 63.2734 19.9891C63.4562 20.2599 63.6763 20.4732 63.9336 20.6289C64.1977 20.7779 64.4922 20.8523 64.8172 20.8523C65.0542 20.8523 65.2945 20.7914 65.5383 20.6695C65.7888 20.5477 66.0393 20.3581 66.2898 20.1008C66.5471 19.8435 66.8112 19.5117 67.082 19.1055C67.3529 18.6924 67.6305 18.2016 67.9148 17.6328L68.0164 17.4195L68.4328 17.7344L68.3312 17.9477C67.9656 18.6721 67.6 19.2917 67.2344 19.8063C66.8755 20.3208 66.5201 20.7406 66.168 21.0656C65.8159 21.3906 65.4706 21.6276 65.132 21.7766C64.8003 21.9255 64.4786 22 64.1672 22C63.7271 22 63.3344 21.9086 62.9891 21.7258C62.6437 21.543 62.3526 21.2958 62.1156 20.9844C61.8786 20.6661 61.6958 20.3005 61.5672 19.8875C61.4453 19.4677 61.3844 19.0276 61.3844 18.5672C61.3844 17.8359 61.4826 17.1724 61.6789 16.5766C61.882 15.974 62.1427 15.4594 62.4609 15.0328C62.7792 14.6063 63.138 14.2745 63.5375 14.0375C63.937 13.8005 64.3398 13.682 64.7461 13.682C65.0576 13.682 65.3182 13.726 65.5281 13.8141C65.738 13.9021 65.9073 14.0138 66.0359 14.1492C66.1646 14.2846 66.256 14.4302 66.3102 14.5859C66.3643 14.7417 66.3914 14.8906 66.3914 15.0328C66.3914 15.175 66.3609 15.324 66.3 15.4797C66.2391 15.6286 66.1477 15.7708 66.0258 15.9063C65.9107 16.0349 65.7719 16.1534 65.6094 16.2617C65.4469 16.3633 65.2641 16.4378 65.0609 16.4852L64.9594 16.2008ZM71.9367 14.3828C71.7471 14.3828 71.5338 14.4674 71.2969 14.6367C71.0667 14.806 70.8331 15.026 70.5961 15.2969C70.3591 15.5609 70.1289 15.8589 69.9055 16.1906C69.6888 16.5224 69.4992 16.8508 69.3367 17.1758C69.3164 17.7716 69.2961 18.4216 69.2758 19.1258C69.2622 19.8299 69.2555 20.5815 69.2555 21.3805C69.2555 21.482 69.2081 21.5734 69.1133 21.6547C69.0253 21.7292 68.9203 21.7935 68.7984 21.8477C68.6766 21.8951 68.5513 21.9323 68.4227 21.9594C68.294 21.9865 68.1891 22 68.1078 22C68.0062 22 67.9115 21.9695 67.8234 21.9086C67.7354 21.8477 67.6914 21.7122 67.6914 21.5023C67.6914 21.4008 67.7016 21.2755 67.7219 21.1266C67.7422 20.9708 67.7693 20.8049 67.8031 20.6289C67.8302 20.4529 67.8641 20.2734 67.9047 20.0906C67.9385 19.901 67.9724 19.725 68.0062 19.5625V14.5961C68.0062 14.4607 68.0096 14.3557 68.0164 14.2813C68.0164 14.2 68.0266 14.1391 68.0469 14.0984C68.0875 14.0036 68.1586 13.9292 68.2602 13.875C68.3617 13.8208 68.47 13.7802 68.5852 13.7531C68.7003 13.7193 68.812 13.699 68.9203 13.6922C69.0286 13.6854 69.1133 13.682 69.1742 13.682C69.2893 13.682 69.3672 13.7125 69.4078 13.7734C69.4552 13.8344 69.4789 13.9427 69.4789 14.0984C69.4789 14.0781 69.462 14.244 69.4281 14.5961C69.401 14.9482 69.3773 15.4526 69.357 16.1094C69.5602 15.7911 69.7802 15.4865 70.0172 15.1953C70.2542 14.9042 70.5013 14.6469 70.7586 14.4234C71.0159 14.2 71.2799 14.0206 71.5508 13.8852C71.8284 13.7497 72.1094 13.682 72.3937 13.682C72.9016 13.682 73.274 13.8445 73.5109 14.1695C73.7479 14.4878 73.8664 14.9211 73.8664 15.4695C73.8664 15.8148 73.8427 16.2008 73.7953 16.6273C73.7547 17.0471 73.7039 17.4771 73.643 17.9172C73.5888 18.3505 73.538 18.7771 73.4906 19.1969C73.45 19.6099 73.4297 19.9891 73.4297 20.3344C73.4297 20.7813 73.5685 21.0047 73.8461 21.0047C73.9341 21.0047 74.0357 20.9607 74.1508 20.8727C74.2727 20.7779 74.4216 20.6052 74.5977 20.3547C74.7805 20.1042 74.9971 19.7622 75.2477 19.3289C75.4982 18.8888 75.7961 18.3234 76.1414 17.6328L76.243 17.4195L76.6594 17.7344L76.5578 17.9477C76.1516 18.7602 75.7893 19.4271 75.4711 19.9484C75.1596 20.4698 74.8753 20.8828 74.618 21.1875C74.3607 21.4922 74.1203 21.7055 73.8969 21.8273C73.6734 21.9424 73.45 22 73.2266 22C73.0844 22 72.9422 21.9797 72.8 21.9391C72.6578 21.8984 72.5325 21.8273 72.4242 21.7258C72.3159 21.6242 72.2279 21.4888 72.1602 21.3195C72.0924 21.1435 72.0586 20.9201 72.0586 20.6492C72.0586 20.243 72.0857 19.7859 72.1398 19.2781C72.194 18.7703 72.2549 18.2625 72.3227 17.7547C72.3904 17.2469 72.4513 16.7695 72.5055 16.3227C72.5596 15.869 72.5867 15.5 72.5867 15.2156C72.5867 14.9651 72.5325 14.7654 72.4242 14.6164C72.3159 14.4607 72.1534 14.3828 71.9367 14.3828ZM78.0508 23.2695H76.4359L82.6109 7.2125H84.2156L78.0508 23.2695ZM92.8992 15.3984L86.1859 12.768V10.8383L94.8594 14.6773V16.1602L86.1859 20.0094V18.0594L92.8992 15.3984Z" fill="black"/>
</svg>
