<svg width="103" height="25" viewBox="0 0 103 25" fill="none" xmlns="http://www.w3.org/2000/svg">
<path d="M50.0548 5.95016H53.4332L49.896 24.1899H46.518L47.1784 20.3264C46.458 21.6197 45.5247 22.6258 44.373 23.3498C43.2213 24.0737 41.9106 24.4386 40.4461 24.4386C38.0427 24.4386 36.2323 23.5707 35.0099 21.8408C33.7875 20.1108 33.4396 17.8558 33.9709 15.0701C34.3241 13.2348 35.0006 11.599 35.9955 10.1674C36.9904 8.73588 38.191 7.63592 39.5978 6.86226C41.0043 6.08849 42.493 5.7016 44.0682 5.7016C45.5326 5.7016 46.7112 6.06629 47.5994 6.79592C48.4874 7.52568 49.0437 8.53147 49.2732 9.81378L50.0547 5.95028L50.0548 5.95016ZM38.0634 19.3148C38.7802 20.3431 39.8908 20.857 41.3956 20.857C42.9004 20.857 44.2246 20.3207 45.3633 19.2485C46.5019 18.1762 47.2327 16.7723 47.5609 15.0367C47.8778 13.3234 47.6787 11.9361 46.9586 10.875C46.2384 9.81366 45.1386 9.28305 43.6642 9.28305C42.1694 9.28305 40.8611 9.80275 39.7343 10.8416C38.6075 11.8808 37.8661 13.2903 37.5157 15.0701C37.1641 16.8718 37.3466 18.2868 38.0634 19.3148V19.3148ZM62.6256 0.179932L57.9704 24.1899H54.5014L59.1568 0.179932H62.6257H62.6256ZM82.2763 5.95016L73.9332 15.0702L78.7393 24.1899H74.7703L71.4038 17.8224L65.5751 24.1899H61.6062L69.9643 15.0702L65.1431 5.95016H69.1121L72.4786 12.3176L78.3072 5.95016H82.2762H82.2763ZM98.6368 5.95016H102.015L98.478 24.1899H95.0998L95.7602 20.3264C95.0399 21.6197 94.1066 22.6258 92.955 23.3498C91.8031 24.0737 90.4925 24.4386 89.0281 24.4386C86.6245 24.4386 84.814 23.5707 83.5919 21.8408C82.3694 20.1108 82.0212 17.8558 82.5528 15.0701C82.906 13.2348 83.5826 11.599 84.5775 10.1674C85.5723 8.73588 86.773 7.63592 88.1796 6.86226C89.5863 6.08849 91.0748 5.7016 92.6503 5.7016C94.1146 5.7016 95.2933 6.06629 96.1815 6.79592C97.0695 7.52568 97.6257 8.53147 97.8553 9.81378L98.6369 5.95028L98.6368 5.95016ZM86.6453 19.3148C87.3621 20.3431 88.4728 20.857 89.9776 20.857C91.4823 20.857 92.8065 20.3207 93.9451 19.2485C95.0839 18.1762 95.8145 16.7723 96.1429 15.0367C96.4595 13.3234 96.2606 11.9361 95.5404 10.875C94.8203 9.81366 93.7205 9.28305 92.2461 9.28305C90.7513 9.28305 89.443 9.80275 88.3162 10.8416C87.1895 11.8808 86.4481 13.2903 86.0977 15.0701C85.746 16.8718 85.9286 18.2868 86.6453 19.3148V19.3148Z" fill="#4D4D4D"/>
<path fill-rule="evenodd" clip-rule="evenodd" d="M31 24.041L18 0H13L26 24.041H31Z" fill="#60B3FF" fill-opacity="0.5"/>
<path fill-rule="evenodd" clip-rule="evenodd" d="M1 24.041L13.5 0H18L18.5 1H18L6 24L1 24.041Z" fill="#60B3FF"/>
<path fill-rule="evenodd" clip-rule="evenodd" d="M0 23.041L12 0H17.0823L5 23.041H0Z" fill="#1890FF"/>
<path fill-rule="evenodd" clip-rule="evenodd" d="M13 24.041L25 1H30.0823L18 24.041H13Z" fill="#60B3FF"/>
<path fill-rule="evenodd" clip-rule="evenodd" d="M12 23.041L24 0H29.0823L17 23.041H12Z" fill="#1890FF"/>
</svg>
