<?xml version="1.0" encoding="UTF-8"?>
<!DOCTYPE svg PUBLIC "-//W3C//DTD SVG 1.1//EN" "http://www.w3.org/Graphics/SVG/1.1/DTD/svg11.dtd">
<!-- Creator: CorelDRAW 2021 (64 Bit) -->
<svg xmlns="http://www.w3.org/2000/svg" xml:space="preserve" width="98.0149mm" height="24.4385mm" version="1.1" style="shape-rendering:geometricPrecision; text-rendering:geometricPrecision; image-rendering:optimizeQuality; fill-rule:evenodd; clip-rule:evenodd"
viewBox="0 0 7435.87 1854.02"
 xmlns:xlink="http://www.w3.org/1999/xlink"
 xmlns:xodm="http://www.corel.com/coreldraw/odm/2003">
 <defs>
  <style type="text/css">
   <![CDATA[
    .fil2 {fill:#1890FF}
    .fil1 {fill:#60B3FF}
    .fil0 {fill:#4D4D4D;fill-rule:nonzero}
   ]]>
  </style>
 </defs>
 <g id="Camada_x0020_1">
  <metadata id="CorelCorpID_0Corel-Layer"/>
  <path class="fil0" d="M3493.93 451.4l256.3 0 -268.35 1383.75 -256.27 0 50.1 -293.1c-54.65,98.12 -125.46,174.44 -212.83,229.37 -87.37,54.93 -186.81,82.6 -297.91,82.6 -182.34,0 -319.69,-65.84 -412.42,-197.07 -92.74,-131.25 -119.13,-302.32 -78.82,-513.66 26.8,-139.23 78.13,-263.33 153.6,-371.94 75.48,-108.61 166.56,-192.05 273.29,-250.75 106.71,-58.7 219.64,-88.06 339.15,-88.06 111.1,0 200.51,27.67 267.89,83.02 67.37,55.36 109.57,131.66 126.99,228.94l59.28 -293.1zm-909.72 1013.91c54.38,78 138.64,117 252.8,117 114.16,0 214.62,-40.68 301.01,-122.03 86.38,-81.35 141.82,-187.86 166.72,-319.53 24.04,-129.98 8.93,-235.23 -45.7,-315.73 -54.63,-80.52 -138.07,-120.78 -249.93,-120.78 -113.39,0 -212.65,39.43 -298.14,118.24 -85.48,78.84 -141.73,185.76 -168.31,320.79 -26.67,136.69 -12.83,244.03 41.55,322.02zm1863.4 -1451.66l-353.17 1821.5 -263.17 0 353.17 -1821.5 263.17 0zm1490.79 437.75l-632.95 691.89 364.61 691.86 -301.11 0 -255.4 -483.06 -442.19 483.06 -301.11 0 634.09 -691.86 -365.76 -691.89 301.11 0 255.4 483.06 442.19 -483.06 301.11 0zm1241.18 0l256.29 0 -268.34 1383.75 -256.28 0 50.1 -293.1c-54.65,98.12 -125.45,174.44 -212.82,229.37 -87.39,54.93 -186.81,82.6 -297.91,82.6 -182.35,0 -319.7,-65.84 -412.42,-197.07 -92.74,-131.25 -119.15,-302.32 -78.82,-513.66 26.8,-139.23 78.12,-263.33 153.6,-371.94 75.48,-108.61 166.56,-192.05 273.27,-250.75 106.72,-58.7 219.64,-88.06 339.17,-88.06 111.09,0 200.51,27.67 267.89,83.02 67.37,55.36 109.56,131.66 126.99,228.94l59.29 -293.1zm-909.72 1013.91c54.37,78 138.64,117 252.8,117 114.15,0 214.61,-40.68 300.99,-122.03 86.39,-81.35 141.83,-187.86 166.74,-319.53 24.03,-129.98 8.93,-235.23 -45.71,-315.73 -54.63,-80.52 -138.07,-120.78 -249.92,-120.78 -113.41,0 -212.66,39.43 -298.15,118.24 -85.48,78.84 -141.72,185.76 -168.31,320.79 -26.68,136.69 -12.83,244.03 41.55,322.02z"/>
  <polygon class="fil1" points="94.12,1848.87 1038.64,100.85 1390.05,100.85 461.97,1848.87 "/>
  <polygon class="fil1" points="981.58,1848.87 1926.1,100.85 2277.5,100.85 1349.43,1848.87 "/>
  <polygon class="fil2" points="-0,1748.02 944.52,0 1295.93,0 367.85,1748.02 "/>
  <polygon class="fil2" points="887.45,1748.02 1831.97,0 2183.38,0 1255.3,1748.02 "/>
 </g>
</svg>
