<svg width="362" height="247" viewBox="0 0 362 247" fill="none" xmlns="http://www.w3.org/2000/svg">
<g clip-path="url(#clip0)">
<path d="M320.372 115.628H46.8007V245.442H320.372V115.628Z" fill="#E6E6E6"/>
<path d="M312.549 126.76H54.6235V235.068H312.549V126.76Z" fill="white"/>
<path d="M269.415 146.92H262.737V153.598H269.415V146.92Z" fill="#E6E6E6"/>
<path d="M91.266 146.92H84.5871V153.598H91.266V146.92Z" fill="#1890FF"/>
<path d="M106.657 166.051H84.3938V188.314H106.657V166.051Z" fill="#E6E6E6"/>
<path d="M320.255 108.128H46.684V119.75H320.255V108.128Z" fill="#1890FF"/>
<path d="M55.3207 118.672C56.5104 118.672 57.4748 117.707 57.4748 116.517C57.4748 115.328 56.5104 114.363 55.3207 114.363C54.131 114.363 53.1666 115.328 53.1666 116.517C53.1666 117.707 54.131 118.672 55.3207 118.672Z" fill="white"/>
<path d="M63.497 118.672C64.6867 118.672 65.6511 117.707 65.6511 116.517C65.6511 115.328 64.6867 114.363 63.497 114.363C62.3073 114.363 61.3429 115.328 61.3429 116.517C61.3429 117.707 62.3073 118.672 63.497 118.672Z" fill="white"/>
<path d="M71.6736 118.672C72.8633 118.672 73.8278 117.707 73.8278 116.517C73.8278 115.328 72.8633 114.363 71.6736 114.363C70.484 114.363 69.5195 115.328 69.5195 116.517C69.5195 117.707 70.484 118.672 71.6736 118.672Z" fill="white"/>
<path d="M362 245.443H0V246.22H362V245.443Z" fill="#E6E6E6"/>
<path d="M184.293 168.278H129.748V171.409H184.293V168.278Z" fill="#E6E6E6"/>
<path d="M213.978 179.699H129.748V182.83H213.978V179.699Z" fill="#1890FF"/>
<path d="M198.393 190.459H129.748V193.59H198.393V190.459Z" fill="#E6E6E6"/>
<path d="M169.822 201.179H129.748V204.311H169.822V201.179Z" fill="#E6E6E6"/>
<path d="M190.23 211.899H129.748V215.03H190.23V211.899Z" fill="#E6E6E6"/>
<path d="M280.919 146.92H274.24V153.598H280.919V146.92Z" fill="#E6E6E6"/>
<path d="M292.421 146.92H285.742V153.598H292.421V146.92Z" fill="#E6E6E6"/>
<path opacity="0.997" d="M278.857 204.31C286.348 204.31 292.421 198.238 292.421 190.746C292.421 183.255 286.348 177.182 278.857 177.182C271.366 177.182 265.293 183.255 265.293 190.746C265.293 198.238 271.366 204.31 278.857 204.31Z" fill="#1890FF"/>
<path d="M73.2901 36.7277C81.7237 36.7277 88.5605 29.8909 88.5605 21.4572C88.5605 13.0235 81.7237 6.18671 73.2901 6.18671C64.8564 6.18671 58.0196 13.0235 58.0196 21.4572C58.0196 29.8909 64.8564 36.7277 73.2901 36.7277Z" fill="#2F2E41"/>
<path d="M35.2874 152.114H28.5996L25.4185 126.324H35.2867L35.2874 152.114Z" fill="#FEB8B8"/>
<path d="M23.8255 150.203H36.7203V158.322H15.7064C15.7064 156.169 16.5618 154.103 18.0844 152.581C19.6071 151.058 21.6722 150.203 23.8255 150.203Z" fill="#2F2E41"/>
<path d="M24.8501 148.382L18.4709 146.38L23.1571 120.82L32.5722 123.775L24.8501 148.382Z" fill="#FEB8B8"/>
<path d="M14.4824 143.128L26.7859 146.989L24.3548 154.736L4.30502 148.444C4.62427 147.427 5.14077 146.482 5.82503 145.664C6.50928 144.847 7.3479 144.172 8.29299 143.678C9.23807 143.185 10.2711 142.882 11.3332 142.788C12.3952 142.693 13.4654 142.809 14.4827 143.128L14.4824 143.128Z" fill="#2F2E41"/>
<path d="M27.0256 138.091C26.7334 138.091 26.4436 138.038 26.1701 137.935L21.2495 136.091C20.6973 135.882 20.2385 135.482 19.9568 134.963C19.6751 134.444 19.5892 133.841 19.7148 133.264C20.9532 127.695 25.174 108.738 27.4852 98.5695C30.226 86.5084 70.2117 84.2672 71.9124 84.1777L72.0524 84.1703L76.5504 89.8204C78.1757 95.0447 77.6605 99.1197 75.0192 101.932C67.3114 110.139 44.2993 105.047 41.5554 104.402L29.3247 136.511C29.1465 136.976 28.8314 137.375 28.4211 137.658C28.0109 137.94 27.5247 138.091 27.0267 138.091H27.0256Z" fill="#2F2E41"/>
<path d="M34.1155 141.909C33.8233 141.909 33.5335 141.856 33.26 141.753L28.341 139.909C27.7887 139.7 27.3299 139.299 27.0482 138.78C26.7664 138.261 26.6806 137.658 26.8063 137.081C28.0447 131.513 32.2654 112.555 34.5766 102.387C37.3175 90.3258 77.3031 88.0846 79.0039 87.9952L79.1438 87.9878L83.6403 93.6395C85.2656 98.8638 84.7504 102.939 82.1091 105.751C74.4017 113.956 51.3892 108.866 48.6452 108.221L36.4131 140.328C36.2348 140.793 35.9198 141.193 35.5095 141.475C35.0992 141.757 34.613 141.908 34.1151 141.908L34.1155 141.909Z" fill="#2F2E41"/>
<path d="M19.884 63.3617C20.0646 63.6034 20.2259 63.859 20.3665 64.1261L47.2649 66.9599L51.1377 61.6508L59.9131 66.447L52.308 79.3297L19.3194 70.9185C18.4871 71.73 17.4275 72.2688 16.2814 72.4634C15.1354 72.658 13.9574 72.499 12.9039 72.0077C11.8504 71.5164 10.9715 70.716 10.3839 69.713C9.79644 68.71 9.52821 67.5519 9.61492 66.3928C9.70164 65.2336 10.1392 64.1283 10.8694 63.2239C11.5996 62.3194 12.5879 61.6587 13.7027 61.3297C14.8176 61.0006 16.0062 61.0187 17.1105 61.3816C18.2148 61.7445 19.1824 62.435 19.8847 63.3613L19.884 63.3617Z" fill="#FEB8B8"/>
<path d="M82.3918 95.8029C82.0028 95.802 81.6197 95.7087 81.2739 95.5307C75.8952 92.7957 65.4217 88.0594 55.7095 87.0682C55.3771 87.0357 55.0553 86.934 54.7645 86.7696C54.4738 86.6053 54.2206 86.382 54.0212 86.1141C53.818 85.8433 53.6728 85.5335 53.5946 85.2041C53.5164 84.8747 53.5069 84.5327 53.5667 84.1995C54.4431 79.348 56.4534 66.9942 56.1944 57.0934C56.1182 54.0492 57.08 51.0696 58.9217 48.6444C60.7634 46.2193 63.3755 44.4929 66.3285 43.7492C68.1057 43.2802 69.9109 42.9243 71.7332 42.6834C73.8282 42.4181 75.9563 42.6471 77.9469 43.3521C79.9376 44.0572 81.7354 45.2186 83.1965 46.7434C84.6575 48.2682 85.7411 50.114 86.3605 52.1329C86.9799 54.1518 87.1179 56.2877 86.7634 58.3695C85.0315 68.63 83.2853 82.9607 84.8029 92.9645C84.8726 93.4128 84.8168 93.8718 84.6417 94.2904C84.4667 94.709 84.1791 95.071 83.811 95.3363C83.3991 95.6379 82.9023 95.8013 82.3918 95.8029Z" fill="#CCCCCC"/>
<path d="M56.6925 69.7055C56.3572 69.7049 56.0256 69.6357 55.718 69.5021L48.711 66.4692C48.1141 66.2101 47.6444 65.7247 47.405 65.1197C47.1655 64.5147 47.1758 63.8394 47.4337 63.242L52.85 50.7298C53.1718 49.9716 53.6397 49.2842 54.2271 48.7069C54.8145 48.1295 55.5099 47.6736 56.2735 47.3649C57.0371 47.0563 57.854 46.9011 58.6776 46.9083C59.5012 46.9154 60.3154 47.0846 61.0736 47.4064C61.8317 47.7281 62.5191 48.196 63.0965 48.7834C63.6738 49.3708 64.1298 50.0662 64.4384 50.8298C64.747 51.5934 64.9022 52.4103 64.8951 53.2339C64.888 54.0575 64.7188 54.8717 64.397 55.6299C64.3853 55.6574 64.3734 55.6849 64.3613 55.7123L58.9449 68.2248C58.7543 68.664 58.4396 69.038 58.0395 69.301C57.6394 69.564 57.1713 69.7046 56.6925 69.7055Z" fill="#CCCCCC"/>
<path d="M72.7321 38.4269C80.13 38.4269 86.1272 32.4296 86.1272 25.0317C86.1272 17.6338 80.13 11.6365 72.7321 11.6365C65.3341 11.6365 59.3369 17.6338 59.3369 25.0317C59.3369 32.4296 65.3341 38.4269 72.7321 38.4269Z" fill="#FEB8B8"/>
<path d="M59.0958 18.4492C65.4406 22.3225 72.5936 24.6794 79.9981 25.3366L77.7946 22.6968C79.3989 23.2899 81.087 23.6251 82.7961 23.6899C83.6519 23.7147 84.5016 23.5386 85.277 23.1756C86.0524 22.8126 86.7319 22.273 87.2611 21.5999C87.693 20.9013 87.9496 20.1086 88.009 19.2894C88.0684 18.4701 87.9288 17.6487 87.6021 16.8951C86.9307 15.3914 85.8857 14.0846 84.5665 13.0989C82.2281 11.2492 79.4684 10.0066 76.5333 9.48205C73.5982 8.95749 70.5789 9.16721 67.7445 10.0925C65.8002 10.6735 64.0589 11.7905 62.7201 13.3155C61.4502 14.8821 59.0056 16.278 59.6557 18.1868L59.0958 18.4492Z" fill="#2F2E41"/>
<path d="M73.9297 7.16504C76.5997 4.45682 79.8308 2.3668 83.3957 1.04214C85.6584 0.0902658 88.1402 -0.21775 90.5669 0.15211C92.9594 0.63348 95.2216 2.28834 95.8892 4.6357C96.4336 6.55496 95.8713 8.62159 95.0244 10.4293C94.1776 12.2369 93.0469 13.9116 92.3617 15.7858C91.6628 17.6981 91.4526 19.7548 91.7502 21.769C92.0477 23.7832 92.8437 25.6912 94.0657 27.3197C95.2877 28.9483 96.8972 30.2459 98.7479 31.0946C100.599 31.9434 102.632 32.3165 104.664 32.18C102.313 32.4953 100.146 33.6 97.8489 34.1875C95.5513 34.775 92.8396 34.7357 91.1323 33.0894C89.3258 31.3479 89.2896 28.5164 89.3771 26.0089L89.7659 14.8254C89.832 12.9244 89.8888 10.9623 89.2029 9.18733C88.517 7.41233 86.8878 5.85896 84.9857 5.87529C83.5439 5.88734 82.2681 6.76104 81.1118 7.6223C79.9554 8.48356 78.7317 9.40236 77.2958 9.53067C75.8598 9.65899 74.2201 8.59748 74.3275 7.15881" fill="#2F2E41"/>
<path d="M50.2115 92.3618C49.3239 92.3607 48.4477 92.1628 47.6459 91.7822C46.844 91.4017 46.1366 90.8481 45.5744 90.1613C45.0123 89.4745 44.6095 88.6715 44.3951 87.8103C44.1807 86.949 44.1599 86.0509 44.3343 85.1807C44.5088 84.3105 44.874 83.4898 45.4038 82.7777C45.9336 82.0657 46.6147 81.4799 47.3981 81.0628C48.1815 80.6457 49.0477 80.4075 49.9342 80.3654C50.8208 80.3233 51.7056 80.4783 52.525 80.8194C52.7715 80.9235 53.0104 81.0445 53.2401 81.1818L77.641 70.2281L78.3265 63.6102L88.8448 63.3287L88.7752 74.3461C88.7624 75.6226 88.3384 76.8609 87.566 77.8772C86.7935 78.8935 85.714 79.6336 84.4875 79.9877L55.9533 88.1084C55.8983 88.2969 55.8334 88.4823 55.7589 88.664C55.3011 89.7575 54.5307 90.6916 53.5444 91.3493C52.5581 92.007 51.3997 92.3591 50.2142 92.3614L50.2115 92.3618Z" fill="#FEB8B8"/>
<path d="M87.954 68.7271C87.6548 68.8785 87.3278 68.9669 86.9932 68.9869L79.3721 69.4554C78.7227 69.4946 78.0842 69.2746 77.5968 68.8436C77.1093 68.4127 76.8127 67.806 76.772 67.1567L75.9356 53.5476C75.8354 51.8884 76.398 50.2573 77.4996 49.0126C78.6013 47.7679 80.152 47.0114 81.8111 46.9094C83.4702 46.8073 85.1019 47.368 86.3479 48.4683C87.5938 49.5685 88.352 51.1184 88.4559 52.7774L89.2927 66.3864C89.3217 66.8644 89.2106 67.3406 88.9729 67.7564C88.7353 68.1722 88.3814 68.5096 87.9547 68.7271H87.954Z" fill="#CCCCCC"/>
<path d="M72.608 89.9199H27.0882C26.7064 89.9199 26.3969 90.2294 26.3969 90.6113V93.0461C26.3969 93.4279 26.7064 93.7374 27.0882 93.7374H72.608C72.9899 93.7374 73.2994 93.4279 73.2994 93.0461V90.6113C73.2994 90.2294 72.9899 89.9199 72.608 89.9199Z" fill="#3F3D56"/>
<path d="M8.90613 90.1929V63.469C8.90726 62.5292 9.28111 61.6282 9.94567 60.9636C10.6102 60.2991 11.5113 59.9252 12.4511 59.9241H60.9898C61.9297 59.9251 62.8307 60.2989 63.4953 60.9635C64.1599 61.6281 64.5337 62.5292 64.5348 63.469V90.1929C64.5337 91.1327 64.1599 92.0338 63.4953 92.6984C62.8307 93.363 61.9297 93.7368 60.9898 93.7378H12.4511C11.5113 93.7367 10.6102 93.3628 9.94567 92.6983C9.28111 92.0337 8.90726 91.1327 8.90613 90.1929Z" fill="#3F3D56"/>
<path d="M37.3043 80.1047C39.1116 80.1047 40.5767 78.6396 40.5767 76.8323C40.5767 75.025 39.1116 73.5599 37.3043 73.5599C35.497 73.5599 34.0319 75.025 34.0319 76.8323C34.0319 78.6396 35.497 80.1047 37.3043 80.1047Z" fill="white"/>
</g>
<defs>
<clipPath id="clip0">
<rect width="362" height="246.22" fill="white"/>
</clipPath>
</defs>
</svg>
