<svg width="631" height="469" viewBox="0 0 631 469" fill="none" xmlns="http://www.w3.org/2000/svg">
<g clip-path="url(#clip0)">
<path d="M569.915 15.5991H0.24292V285.59H569.915V15.5991Z" fill="#E6E6E6"/>
<path d="M553.625 38.751H16.5328V264.013H553.625V38.751Z" fill="white"/>
<path d="M569.672 0H0V24.172H569.672V0Z" fill="#1890FF"/>
<path d="M17.9847 18.6938C20.462 18.6938 22.4703 16.6879 22.4703 14.2136C22.4703 11.7392 20.462 9.7334 17.9847 9.7334C15.5073 9.7334 13.499 11.7392 13.499 14.2136C13.499 16.6879 15.5073 18.6938 17.9847 18.6938Z" fill="white"/>
<path d="M35.0105 18.6938C37.4879 18.6938 39.4962 16.6879 39.4962 14.2136C39.4962 11.7392 37.4879 9.7334 35.0105 9.7334C32.5332 9.7334 30.5249 11.7392 30.5249 14.2136C30.5249 16.6879 32.5332 18.6938 35.0105 18.6938Z" fill="white"/>
<path d="M52.0374 18.6938C54.5147 18.6938 56.523 16.6879 56.523 14.2136C56.523 11.7392 54.5147 9.7334 52.0374 9.7334C49.56 9.7334 47.5518 11.7392 47.5518 14.2136C47.5518 16.6879 49.56 18.6938 52.0374 18.6938Z" fill="white"/>
<path d="M401.664 72.9995H326.021V78.6781H401.664V72.9995Z" fill="#E6E6E6"/>
<path d="M442.83 89.6699H326.021V95.3485H442.83V89.6699Z" fill="#1890FF"/>
<path d="M422.433 105.546H327.236V111.225H422.433V105.546Z" fill="#E6E6E6"/>
<path d="M381.596 122.966H326.021V128.645H381.596V122.966Z" fill="#E6E6E6"/>
<path d="M409.898 139.982H326.021V145.661H409.898V139.982Z" fill="#1890FF"/>
<path d="M300.807 71.2129H291.545V80.464H300.807V71.2129Z" fill="#E6E6E6"/>
<path d="M300.807 87.8838H291.545V97.1349H300.807V87.8838Z" fill="#1890FF"/>
<path d="M300.807 103.76H291.545V113.011H300.807V103.76Z" fill="#E6E6E6"/>
<path d="M300.807 121.18H291.545V130.431H300.807V121.18Z" fill="#E6E6E6"/>
<path d="M300.807 138.196H291.545V147.447H300.807V138.196Z" fill="#1890FF"/>
<path d="M401.664 157.104H326.021V162.783H401.664V157.104Z" fill="#E6E6E6"/>
<path d="M442.83 173.774H326.021V179.453H442.83V173.774Z" fill="#1890FF"/>
<path d="M422.433 189.651H327.236V195.329H422.433V189.651Z" fill="#E6E6E6"/>
<path d="M381.596 207.071H326.021V212.749H381.596V207.071Z" fill="#E6E6E6"/>
<path d="M409.898 224.087H326.021V229.766H409.898V224.087Z" fill="#E6E6E6"/>
<path d="M300.807 155.318H291.545V164.569H300.807V155.318Z" fill="#E6E6E6"/>
<path d="M300.807 171.988H291.545V181.239H300.807V171.988Z" fill="#1890FF"/>
<path d="M300.807 187.865H291.545V197.116H300.807V187.865Z" fill="#E6E6E6"/>
<path d="M300.807 205.285H291.545V214.536H300.807V205.285Z" fill="#E6E6E6"/>
<path d="M300.807 222.3H291.545V231.551H300.807V222.3Z" fill="#E6E6E6"/>
<path d="M162.37 201.647H86.7268V207.326H162.37V201.647Z" fill="#3F3D56"/>
<path d="M171.802 216.403H76.6057V222.081H171.802V216.403Z" fill="#3F3D56"/>
<path d="M173.712 130.014C173.709 138.549 171.49 146.937 167.271 154.359C163.053 161.781 156.979 167.984 149.643 172.361C142.308 176.738 133.961 179.14 125.418 179.332C116.875 179.525 108.428 177.501 100.902 173.459L100.893 173.449C93.2052 169.313 86.7531 163.215 82.1937 155.777C77.6343 148.339 75.1305 139.827 74.9375 131.108C74.7445 122.388 76.8692 113.774 81.095 106.142C85.3209 98.51 91.4968 92.1333 98.9937 87.6617C106.49 83.19 115.04 80.7833 123.772 80.6866C132.503 80.59 141.104 82.8069 148.698 87.1115C156.292 91.4161 162.608 97.6545 167.002 105.191C171.396 112.728 173.712 121.293 173.712 130.014Z" fill="#3F3D56"/>
<path d="M124.574 127.619C131.989 127.619 138 121.615 138 114.209C138 106.803 131.989 100.799 124.574 100.799C117.158 100.799 111.147 106.803 111.147 114.209C111.147 121.615 117.158 127.619 124.574 127.619Z" fill="white"/>
<path d="M147.499 155.328C132.489 160.591 116.123 160.527 101.154 155.149L101.144 155.142L111.147 135.421H138L147.499 155.328Z" fill="white"/>
<path d="M531.209 458.851H521.283L516.56 420.609L531.211 420.61L531.209 458.851Z" fill="#FFB7B7"/>
<path d="M533.74 468.462L501.733 468.46V468.056C501.733 464.756 503.046 461.591 505.382 459.258C507.719 456.924 510.887 455.613 514.191 455.613H514.192L533.741 455.614L533.74 468.462Z" fill="#2F2E41"/>
<path d="M555.454 458.851H565.38L570.102 420.609L555.452 420.61L555.454 458.851Z" fill="#FFB7B7"/>
<path d="M552.922 455.614L572.471 455.613H572.471C575.775 455.613 578.944 456.924 581.28 459.258C583.617 461.591 584.929 464.756 584.93 468.056V468.46L552.922 468.462L552.922 455.614Z" fill="#2F2E41"/>
<path d="M529.003 160.004C533.267 151.433 529.766 141.033 521.185 136.775C512.604 132.516 502.191 136.012 497.927 144.583C493.664 153.154 497.164 163.554 505.745 167.813C514.327 172.071 524.739 168.575 529.003 160.004Z" fill="#FFB7B7"/>
<path d="M500.689 271.505C500.689 271.505 495.21 294.306 497.95 305.251C500.689 316.195 508.908 390.983 508.908 390.983L514.386 450.266L536.302 452.09L533.563 382.775L536.302 322.58L551.826 380.951V450.473L575.068 451.385L575.568 360.886C575.568 360.886 577.394 289.746 565.523 280.626C553.652 271.505 551.826 269.681 551.826 269.681L500.689 271.505Z" fill="#2F2E41"/>
<path d="M533.773 171.18L554.565 182.124L557.305 276.977C557.305 276.977 545.434 269.681 527.171 278.801C508.908 287.922 497.037 281.537 497.037 281.537L507.994 240.495L503.429 185.772L509.959 179.852L533.773 171.18Z" fill="#CBCBCB"/>
<path d="M509.961 178.126L506.168 181.212C506.168 181.212 482.426 193.069 481.513 201.277L497.95 245.967C497.95 245.967 502.516 256 498.863 259.648C495.21 263.296 491.558 272.417 492.471 276.977C493.384 281.537 486.992 300.69 494.297 300.69C501.602 300.69 518.952 256.912 518.039 239.583C517.126 222.254 516.494 176.864 509.961 178.126Z" fill="#2F2E41"/>
<path d="M525.923 172.207L534.287 170.817C534.287 170.817 565.334 179.026 569.9 192.707L557.116 224.628C557.116 224.628 566.247 282.999 563.508 282.999H560.769C560.769 282.999 568.074 288.471 563.508 290.296C558.942 292.12 547.984 306.712 545.245 300.328C542.506 293.944 526.069 218.244 527.895 201.827C529.721 185.41 524.301 173.927 525.923 172.207Z" fill="#2F2E41"/>
<path d="M529.553 135.326L530.366 133.692L526.277 131.663C526.277 131.663 521.766 124.333 513.604 126.393C505.441 128.453 501.769 129.686 501.769 129.686L497.69 131.736L499.737 133.77L496.065 135.003L498.519 136.22L495.664 137.859L497.201 146.26C497.201 146.26 499.753 139.888 504.66 142.323C509.566 144.758 518.541 141.064 518.541 141.064L526.339 156.136C526.339 156.136 527.947 150.853 530.815 152.261C530.815 152.261 538.142 140.607 529.553 135.326Z" fill="#2F2E41"/>
<path d="M554.952 295.367C554.501 294.266 554.296 293.081 554.354 291.893C554.411 290.706 554.728 289.545 555.283 288.494C555.838 287.442 556.617 286.524 557.565 285.806C558.513 285.087 559.608 284.585 560.771 284.335L564.286 255.65L575.74 265.379L570.646 291.127C570.938 293.107 570.492 295.126 569.393 296.799C568.294 298.473 566.619 299.687 564.684 300.209C562.75 300.732 560.691 300.527 558.897 299.635C557.103 298.742 555.699 297.224 554.952 295.367Z" fill="#FFB7B7"/>
<path d="M505.964 293.392C506.296 292.251 506.373 291.05 506.19 289.875C506.007 288.701 505.569 287.58 504.905 286.593C504.242 285.606 503.37 284.776 502.351 284.162C501.332 283.548 500.19 283.165 499.006 283.039L492.466 254.888L482.11 265.775L489.909 290.839C489.829 292.839 490.486 294.798 491.757 296.346C493.027 297.895 494.822 298.924 496.801 299.238C498.78 299.553 500.806 299.132 502.495 298.054C504.184 296.977 505.418 295.318 505.964 293.392Z" fill="#FFB7B7"/>
<path d="M555.393 185.274C555.393 185.274 567.264 180.714 570.917 194.395C574.57 208.075 579.135 235.437 579.135 235.437C579.362 250.651 578.553 250.651 579.135 265.534L576.396 279.215L560.872 277.391L561.549 242.564L553.567 207.163L555.393 185.274Z" fill="#2F2E41"/>
<path d="M489.731 195.805L484.103 196.406C484.103 196.406 478.774 200.365 478.774 209.486C478.774 218.606 477.86 245.968 477.86 245.968C477.86 245.968 477.342 246.608 481.513 269.681C483.546 280.927 487.059 286.234 487.059 286.234L498.394 275.721L497.037 248.704L500.689 234.111L489.731 195.805Z" fill="#2F2E41"/>
<path d="M630.19 469H448.822C448.607 469 448.401 468.915 448.249 468.763C448.098 468.612 448.012 468.406 448.012 468.192C448.012 467.977 448.098 467.771 448.249 467.62C448.401 467.468 448.607 467.383 448.822 467.383H630.19C630.405 467.383 630.611 467.468 630.763 467.62C630.915 467.771 631 467.977 631 468.192C631 468.406 630.915 468.612 630.763 468.763C630.611 468.915 630.405 469 630.19 469Z" fill="#CBCBCB"/>
<path d="M252.879 469H156.527C156.313 469 156.107 468.915 155.955 468.763C155.803 468.612 155.718 468.406 155.718 468.192C155.718 467.977 155.803 467.771 155.955 467.62C156.107 467.468 156.313 467.383 156.527 467.383H252.879C253.094 467.383 253.3 467.468 253.452 467.62C253.604 467.771 253.689 467.977 253.689 468.192C253.689 468.406 253.604 468.612 253.452 468.763C253.3 468.915 253.094 469 252.879 469Z" fill="#CBCBCB"/>
<path d="M210.035 434.6C194.238 446.362 189.761 467.057 189.761 467.057C189.761 467.057 210.896 468.682 226.694 456.92C242.491 445.158 246.969 424.463 246.969 424.463C246.969 424.463 225.833 422.838 210.035 434.6Z" fill="#F2F2F2"/>
<path d="M216.616 440.123C209.024 458.283 190.008 467.641 190.008 467.641C190.008 467.641 183.303 447.556 190.896 429.395C198.488 411.235 217.503 401.877 217.503 401.877C217.503 401.877 224.208 421.962 216.616 440.123Z" fill="#F2F2F2"/>
</g>
<defs>
<clipPath id="clip0">
<rect width="631" height="469" fill="white"/>
</clipPath>
</defs>
</svg>
