<svg width="179" height="160" viewBox="0 0 179 160" fill="none" xmlns="http://www.w3.org/2000/svg">
<g clip-path="url(#clip0)">
<path d="M89.854 2.23975L33.6791 36.8267C33.6791 36.8267 33.6791 108.162 89.854 147.072C146.029 108.162 146.029 36.8267 146.029 36.8267L89.854 2.23975Z" fill="#3F3D56"/>
<path opacity="0.04" d="M90.1894 2.23975L89.2291 2.83098V146.398C89.548 146.623 89.8668 146.849 90.1894 147.072C146.364 108.162 146.364 36.8267 146.364 36.8267L90.1894 2.23975Z" fill="#1890FF"/>
<g opacity="0.7">
<path opacity="0.7" d="M76.2544 72.3263L86.8443 82.0387L99.9721 63.0908L105.267 67.5056L86.8443 90.8682L71.8419 74.0922L76.2544 72.3263Z" fill="url(#paint0_linear)"/>
</g>
<path d="M78.7538 72.9097L87.3441 80.7882L99.5138 62.8823L103.809 66.4635L87.3441 87.9506L75.1744 74.3422L78.7538 72.9097Z" fill="#3AD29F"/>
<path opacity="0.5" d="M34.4274 9.99388C34.2552 9.91885 34.1166 9.78308 34.038 9.61243C33.9594 9.44178 33.9462 9.24815 34.001 9.06841C34.0098 9.04085 34.0154 9.01235 34.0176 8.98348C34.0226 8.90113 34.001 8.81936 33.9559 8.75027C33.9108 8.68118 33.8447 8.62845 33.7674 8.5999C33.69 8.57135 33.6055 8.56849 33.5264 8.59174C33.4473 8.61499 33.3777 8.66312 33.3281 8.72899C33.311 8.75237 33.2968 8.77768 33.2856 8.80439C33.2106 8.97668 33.0749 9.11536 32.9044 9.19403C32.7338 9.27271 32.5403 9.28589 32.3606 9.23107C32.3331 9.2222 32.3046 9.21661 32.2758 9.21442C32.1934 9.20941 32.1117 9.23105 32.0427 9.27615C31.9736 9.32124 31.9209 9.38739 31.8924 9.4648C31.8638 9.5422 31.861 9.62674 31.8842 9.7059C31.9074 9.78506 31.9556 9.85462 32.0214 9.90429C32.0448 9.92137 32.07 9.93563 32.0968 9.94678C32.2689 10.0218 32.4076 10.1576 32.4862 10.3282C32.5648 10.4989 32.578 10.6925 32.5232 10.8723C32.5143 10.8998 32.5088 10.9283 32.5066 10.9572C32.5016 11.0395 32.5232 11.1213 32.5683 11.1904C32.6133 11.2595 32.6795 11.3122 32.7568 11.3408C32.8342 11.3693 32.9187 11.3722 32.9978 11.3489C33.0769 11.3257 33.1464 11.2775 33.1961 11.2117C33.2132 11.1883 33.2274 11.163 33.2386 11.1363C33.3136 10.964 33.4492 10.8253 33.6198 10.7466C33.7904 10.6679 33.9839 10.6548 34.1636 10.7096C34.1911 10.7185 34.2196 10.7241 34.2484 10.7262C34.3307 10.7313 34.4125 10.7096 34.4815 10.6645C34.5506 10.6194 34.6033 10.5533 34.6318 10.4759C34.6604 10.3985 34.6632 10.3139 34.64 10.2348C34.6167 10.1556 34.5686 10.086 34.5028 10.0364C34.4794 10.0193 34.4541 10.005 34.4274 9.99388Z" fill="#4D8AF0"/>
<path opacity="0.5" d="M4.01777 77.7209C3.84557 77.6459 3.70696 77.5101 3.62832 77.3395C3.54969 77.1688 3.53651 76.9752 3.59131 76.7955C3.60017 76.7679 3.60576 76.7394 3.60795 76.7105C3.61296 76.6282 3.59133 76.5464 3.54625 76.4773C3.50118 76.4082 3.43507 76.3555 3.3577 76.327C3.28034 76.2984 3.19584 76.2955 3.11672 76.3188C3.0376 76.342 2.96808 76.3902 2.91843 76.456C2.90136 76.4794 2.88711 76.5047 2.87596 76.5314C2.80097 76.7037 2.66527 76.8424 2.49471 76.9211C2.32414 76.9998 2.13062 77.013 1.95097 76.9581C1.92343 76.9493 1.89494 76.9437 1.86609 76.9415C1.78378 76.9365 1.70204 76.9581 1.63299 77.0032C1.56394 77.0483 1.51124 77.1145 1.4827 77.1919C1.45416 77.2693 1.4513 77.3538 1.47454 77.433C1.49778 77.5121 1.54589 77.5817 1.61173 77.6314C1.63509 77.6484 1.66038 77.6627 1.68709 77.6738C1.85928 77.7489 1.99789 77.8846 2.07653 78.0553C2.15517 78.226 2.16834 78.4196 2.11354 78.5993C2.10468 78.6269 2.09909 78.6554 2.0969 78.6843C2.09189 78.7666 2.11353 78.8484 2.1586 78.9175C2.20367 78.9866 2.26979 79.0393 2.34715 79.0678C2.42451 79.0964 2.50901 79.0992 2.58813 79.076C2.66725 79.0527 2.73678 79.0046 2.78642 78.9387C2.80349 78.9154 2.81775 78.8901 2.82889 78.8633C2.90389 78.6911 3.03958 78.5524 3.21015 78.4737C3.38071 78.395 3.57424 78.3818 3.75388 78.4367C3.78143 78.4455 3.80992 78.4511 3.83877 78.4533C3.92107 78.4583 4.00281 78.4367 4.07186 78.3916C4.14091 78.3465 4.19361 78.2803 4.22215 78.2029C4.25069 78.1255 4.25355 78.041 4.23031 77.9618C4.20707 77.8827 4.15897 77.8131 4.09312 77.7634C4.06976 77.7464 4.04447 77.7321 4.01777 77.7209Z" fill="#4D8AF0"/>
<path opacity="0.5" d="M155.88 54.1819C156.571 54.1819 157.13 53.6221 157.13 52.9315C157.13 52.241 156.571 51.6812 155.88 51.6812C155.19 51.6812 154.631 52.241 154.631 52.9315C154.631 53.6221 155.19 54.1819 155.88 54.1819Z" fill="#F55F44"/>
<path opacity="0.5" d="M25.2856 143.582C25.9758 143.582 26.5353 143.022 26.5353 142.332C26.5353 141.641 25.9758 141.082 25.2856 141.082C24.5954 141.082 24.0359 141.641 24.0359 142.332C24.0359 143.022 24.5954 143.582 25.2856 143.582Z" fill="#F55F44"/>
<path opacity="0.5" d="M177.125 102.321C177.816 102.321 178.375 101.761 178.375 101.07C178.375 100.38 177.816 99.8198 177.125 99.8198C176.435 99.8198 175.876 100.38 175.876 101.07C175.876 101.761 176.435 102.321 177.125 102.321Z" fill="#F55F44"/>
<path opacity="0.5" d="M146.693 16.0368C146.521 15.9618 146.382 15.8261 146.304 15.6554C146.225 15.4847 146.212 15.2911 146.267 15.1114C146.275 15.0838 146.281 15.0553 146.283 15.0265C146.288 14.9441 146.267 14.8623 146.222 14.7932C146.176 14.7241 146.11 14.6714 146.033 14.6429C145.956 14.6143 145.871 14.6115 145.792 14.6347C145.713 14.658 145.643 14.7061 145.594 14.772C145.577 14.7953 145.562 14.8206 145.551 14.8474C145.476 15.0196 145.341 15.1583 145.17 15.237C144.999 15.3157 144.806 15.3289 144.626 15.274C144.599 15.2652 144.57 15.2596 144.541 15.2574C144.459 15.2524 144.377 15.274 144.308 15.3191C144.239 15.3642 144.187 15.4304 144.158 15.5078C144.129 15.5852 144.127 15.6697 144.15 15.7489C144.173 15.828 144.221 15.8976 144.287 15.9473C144.31 15.9643 144.336 15.9786 144.362 15.9898C144.535 16.0648 144.673 16.2005 144.752 16.3712C144.83 16.5419 144.844 16.7355 144.789 16.9152C144.78 16.9428 144.774 16.9713 144.772 17.0001C144.767 17.0825 144.789 17.1643 144.834 17.2334C144.879 17.3025 144.945 17.3552 145.022 17.3837C145.1 17.4123 145.184 17.4151 145.263 17.3919C145.343 17.3686 145.412 17.3205 145.462 17.2546C145.479 17.2313 145.493 17.206 145.504 17.1792C145.579 17.007 145.715 16.8683 145.885 16.7896C146.056 16.7109 146.25 16.6977 146.429 16.7526C146.457 16.7614 146.485 16.767 146.514 16.7692C146.596 16.7742 146.678 16.7526 146.747 16.7075C146.816 16.6624 146.869 16.5962 146.897 16.5188C146.926 16.4414 146.929 16.3569 146.906 16.2777C146.882 16.1986 146.834 16.129 146.768 16.0793C146.745 16.0623 146.72 16.048 146.693 16.0368Z" fill="#4D8AF0"/>
<path opacity="0.5" d="M167.522 146.907C167.349 146.832 167.211 146.697 167.132 146.526C167.053 146.355 167.04 146.162 167.095 145.982C167.104 145.954 167.11 145.926 167.112 145.897C167.117 145.815 167.095 145.733 167.05 145.664C167.005 145.595 166.939 145.542 166.861 145.513C166.784 145.485 166.7 145.482 166.62 145.505C166.541 145.529 166.472 145.577 166.422 145.643C166.405 145.666 166.391 145.691 166.38 145.718C166.305 145.89 166.169 146.029 165.998 146.108C165.828 146.186 165.634 146.199 165.455 146.145C165.427 146.136 165.399 146.13 165.37 146.128C165.288 146.123 165.206 146.145 165.137 146.19C165.068 146.235 165.015 146.301 164.986 146.378C164.958 146.456 164.955 146.54 164.978 146.619C165.002 146.699 165.05 146.768 165.116 146.818C165.139 146.835 165.164 146.849 165.191 146.86C165.363 146.935 165.502 147.071 165.58 147.242C165.659 147.412 165.672 147.606 165.617 147.786C165.608 147.813 165.603 147.842 165.601 147.871C165.596 147.953 165.617 148.035 165.662 148.104C165.707 148.173 165.774 148.226 165.851 148.254C165.928 148.283 166.013 148.286 166.092 148.262C166.171 148.239 166.241 148.191 166.29 148.125C166.307 148.102 166.322 148.077 166.333 148.05C166.408 147.878 166.543 147.739 166.714 147.66C166.884 147.582 167.078 147.568 167.258 147.623C167.285 147.632 167.314 147.638 167.343 147.64C167.425 147.645 167.507 147.623 167.576 147.578C167.645 147.533 167.697 147.467 167.726 147.389C167.754 147.312 167.757 147.227 167.734 147.148C167.711 147.069 167.663 147 167.597 146.95C167.574 146.933 167.548 146.919 167.522 146.907Z" fill="#4D8AF0"/>
<path opacity="0.5" d="M2.55976 38.1267C2.38756 38.0517 2.24895 37.9159 2.17032 37.7452C2.09168 37.5746 2.0785 37.381 2.1333 37.2012C2.14217 37.1737 2.14775 37.1452 2.14994 37.1163C2.15495 37.0339 2.13332 36.9522 2.08825 36.8831C2.04317 36.814 1.97706 36.7613 1.89969 36.7327C1.82233 36.7042 1.73783 36.7013 1.65871 36.7245C1.57959 36.7478 1.51007 36.7959 1.46043 36.8618C1.44336 36.8852 1.4291 36.9105 1.41796 36.9372C1.34296 37.1095 1.20726 37.2482 1.0367 37.3268C0.866134 37.4055 0.672609 37.4187 0.49296 37.3639C0.465419 37.355 0.436929 37.3494 0.408078 37.3472C0.32577 37.3422 0.244036 37.3639 0.174984 37.409C0.105932 37.4541 0.0532331 37.5202 0.0246942 37.5976C-0.00384477 37.675 -0.00670677 37.7595 0.0165326 37.8387C0.039772 37.9179 0.0878774 37.9874 0.153722 38.0371C0.177083 38.0542 0.202377 38.0684 0.22908 38.0796C0.401277 38.1546 0.539887 38.2904 0.618524 38.461C0.697161 38.6317 0.710333 38.8253 0.655537 39.0051C0.64667 39.0326 0.641086 39.0611 0.638896 39.09C0.633885 39.1723 0.655518 39.2541 0.700591 39.3232C0.745663 39.3923 0.811778 39.445 0.889143 39.4736C0.966507 39.5021 1.05101 39.505 1.13012 39.4817C1.20924 39.4585 1.27877 39.4103 1.32841 39.3445C1.34548 39.3211 1.35974 39.2958 1.37088 39.2691C1.44588 39.0968 1.58157 38.9581 1.75214 38.8794C1.9227 38.8008 2.11623 38.7876 2.29588 38.8424C2.32342 38.8513 2.35191 38.8569 2.38076 38.859C2.46307 38.8641 2.5448 38.8424 2.61385 38.7973C2.6829 38.7522 2.7356 38.6861 2.76414 38.6087C2.79268 38.5313 2.79554 38.4467 2.7723 38.3676C2.74906 38.2884 2.70096 38.2188 2.63512 38.1692C2.61175 38.1521 2.58646 38.1378 2.55976 38.1267Z" fill="#4D8AF0"/>
<path opacity="0.5" d="M16.5377 60.4338C17.2279 60.4338 17.7874 59.874 17.7874 59.1835C17.7874 58.4929 17.2279 57.9331 16.5377 57.9331C15.8475 57.9331 15.288 58.4929 15.288 59.1835C15.288 59.874 15.8475 60.4338 16.5377 60.4338Z" fill="#47E6B1"/>
<path opacity="0.5" d="M177.75 70.4367C178.441 70.4367 179 69.8769 179 69.1864C179 68.4958 178.441 67.936 177.75 67.936C177.06 67.936 176.501 68.4958 176.501 69.1864C176.501 69.8769 177.06 70.4367 177.75 70.4367Z" fill="#47E6B1"/>
<g opacity="0.5">
<path opacity="0.5" d="M122.138 0H121.513V3.54266H122.138V0Z" fill="#47E6B1"/>
<path opacity="0.5" d="M123.596 2.08367V1.4585L120.055 1.4585V2.08367H123.596Z" fill="#47E6B1"/>
</g>
<g opacity="0.5">
<path opacity="0.5" d="M124.429 138.789H123.804V142.332H124.429V138.789Z" fill="#47E6B1"/>
<path opacity="0.5" d="M125.887 140.873V140.248H122.346V140.873H125.887Z" fill="#47E6B1"/>
</g>
<g opacity="0.5">
<path opacity="0.5" d="M6.12339 146.291H5.49854V149.834H6.12339V146.291Z" fill="#47E6B1"/>
<path opacity="0.5" d="M7.58142 148.375V147.75H4.04057V148.375H7.58142Z" fill="#47E6B1"/>
</g>
<g opacity="0.5">
<path opacity="0.5" d="M148.382 82.5229H147.757V86.0656H148.382V82.5229Z" fill="#47E6B1"/>
<path opacity="0.5" d="M149.84 84.6066V83.9814H146.299V84.6066H149.84Z" fill="#47E6B1"/>
</g>
<path opacity="0.5" d="M165.713 25.636L167.055 26.8668L168.956 24.0693L169.627 24.6289L167.055 27.9859L165.154 25.8598L165.713 25.636Z" fill="#47E6B1"/>
<path d="M127.402 49.8624L122.772 50.042L123.003 55.997L127.632 55.8174L127.402 49.8624Z" fill="#1890FF"/>
<path d="M106.519 70.718C106.519 70.718 100.108 67.6534 100.211 70.3001C100.313 72.9467 106.673 74.688 106.673 74.688L106.519 70.718Z" fill="#FFB9B9"/>
<path d="M110.036 93.1118C110.036 93.1118 107.012 100.518 105.894 105.863C104.777 111.208 103.075 118.563 105.264 123.779C107.453 128.996 113.677 144.326 113.741 145.981C113.805 147.635 113.208 149.315 114.531 149.263C115.853 149.212 123.051 146.945 123.343 145.939C123.635 144.934 120.887 142.39 120.887 142.39L114.102 121.117L121.182 107.258L126.288 127.933L127.288 153.738C127.288 153.738 132.197 152.223 132.909 153.52C132.909 153.52 135.109 150.453 135.388 149.117C135.667 147.781 134.349 122.319 134.349 122.319C134.349 122.319 138.855 93.319 135.218 93.4601C131.58 93.6012 117.334 84.8768 110.036 93.1118Z" fill="#1890FF"/>
<path d="M114.479 147.94C114.479 147.94 111.124 155.36 110.806 155.703C110.489 156.047 108.302 159.445 109.955 159.381C111.609 159.317 115.513 157.509 118.386 154.747C121.259 151.984 125.048 147.199 124.704 146.881C124.361 146.563 122.008 145.66 122.008 145.66L114.479 147.94Z" fill="#575A89"/>
<path d="M127.885 152.058C127.885 152.058 127.683 155.38 127.073 156.729C126.463 158.078 126.54 160.063 128.193 159.998C129.846 159.934 134.119 159.106 134.119 159.106C134.119 159.106 134.373 157.108 134.03 156.79C133.686 156.472 132.222 152.884 132.845 151.866C133.468 150.848 127.885 152.058 127.885 152.058Z" fill="#575A89"/>
<path d="M130.331 44.2817C130.331 44.2817 133.856 49.7776 135.23 51.0496C136.604 52.3216 132.738 55.1222 132.738 55.1222L125.82 56.0533C125.82 56.0533 125.907 49.7546 125.551 49.1058C125.195 48.457 130.331 44.2817 130.331 44.2817Z" fill="#FFB9B9"/>
<path d="M124.318 51.473C124.318 51.473 125.743 54.0684 127.066 54.017C128.389 53.9657 135.23 51.0497 135.522 50.0443C135.814 49.039 137.788 57.2457 137.788 57.2457L121.048 86.7208L116.965 83.8972L118.943 66.5914L120.568 57.2511L124.318 51.473Z" fill="#1890FF"/>
<path d="M136.139 77.8519C135.472 79.2495 135.055 80.7069 135.112 82.199C135.115 82.2652 135.118 82.3313 135.123 82.3974C135.282 85.4593 136.409 89.0006 136.814 91.5759C137.107 93.4232 137.024 94.7716 135.943 95.0886C133.324 95.8529 136.325 96.3991 126.19 99.7743C116.055 103.149 114.286 100.236 114.261 99.5744C114.235 98.9128 115.696 93.8862 115.352 93.5682C115.009 93.2502 110.546 97.7306 109.198 97.1202C107.85 96.5099 109.044 93.1503 109.044 93.1503C109.044 93.1503 112.082 86.0745 112.017 84.4204C111.953 82.7662 116.618 74.9646 116.618 74.9646L119.791 54.2991C119.791 54.2991 121.011 51.6012 122.652 51.2062C124.292 50.8112 125.653 51.7524 125.653 51.7524L122.908 57.8228L120.012 68.5377L120.496 72.4949C120.496 72.4949 123.865 65.4063 126.077 62.6698C128.289 59.9334 133.005 53.4552 133.005 53.4552C133.005 53.4552 134.106 49.738 133.275 48.6271C132.443 47.513 136.742 47.3462 138.575 51.9137C139.546 54.3345 141.123 57.9444 142.111 61.3055C142.992 64.2831 143.408 67.0667 142.535 68.6578C141.202 71.0885 137.849 74.2834 136.139 77.8519Z" fill="#575A89"/>
<path opacity="0.1" d="M142.535 68.6579C141.202 71.0886 137.849 74.2835 136.139 77.852C135.693 76.2425 135.148 74.5771 135.148 74.5771C135.148 74.5771 133.059 63.393 139.239 60.5026C140.263 60.4036 141.287 60.6899 142.111 61.3056C142.992 64.2833 143.408 67.0669 142.535 68.6579Z" fill="black"/>
<path d="M118.002 67.9531L112.763 69.4817L105.488 69.764L104.74 76.0882L116.695 76.9497C116.695 76.9497 119.681 68.5506 118.002 67.9531Z" fill="#575A89"/>
<path d="M126.546 89.2173C126.546 89.2173 119.537 90.3808 121.136 92.4911C122.736 94.6014 128.945 92.3828 128.945 92.3828L126.546 89.2173Z" fill="#FFB9B9"/>
<path opacity="0.1" d="M135.123 82.3975C135.282 85.4594 136.409 89.0007 136.814 91.576C134.581 93.6903 132.458 95.5552 131.657 95.5863C130.004 95.6504 127.346 95.4222 126.367 95.7916C125.388 96.1609 124.813 89.8879 124.813 89.8879C124.813 89.8879 125.398 87.8773 128.005 86.7821C129.764 86.0413 133.137 84.0318 135.123 82.3975Z" fill="black"/>
<path d="M139.162 58.5174C139.162 58.5174 144.758 57.6377 144.455 66.9266C144.153 76.2155 145.045 82.1449 142.795 83.8888C140.544 85.6328 133.234 93.537 131.58 93.6011C129.927 93.6653 127.269 93.4371 126.29 93.8064C125.311 94.1757 124.736 87.9027 124.736 87.9027C124.736 87.9027 125.321 85.8921 127.928 84.797C130.534 83.7018 136.676 79.8189 136.625 78.4956C136.573 77.1723 135.071 72.5919 135.071 72.5919C135.071 72.5919 132.982 61.4078 139.162 58.5174Z" fill="#575A89"/>
<path d="M125.397 52.4196C129.418 52.4196 132.677 49.1585 132.677 45.1358C132.677 41.1131 129.418 37.8521 125.397 37.8521C121.376 37.8521 118.117 41.1131 118.117 45.1358C118.117 49.1585 121.376 52.4196 125.397 52.4196Z" fill="#FFB9B9"/>
<path d="M120.495 34.6961C120.32 34.8475 120.109 34.9531 119.883 35.0034C119.769 35.0237 119.652 34.9982 119.558 34.9325C119.463 34.8667 119.398 34.7661 119.377 34.6526C119.21 34.9982 119.022 35.3666 118.682 35.5439C118.342 35.7212 117.816 35.5725 117.767 35.192C117.718 35.4809 117.59 35.7507 117.398 35.9722C117.187 36.1735 116.804 36.2243 116.62 35.9982C116.769 36.8125 116.677 37.6499 116.724 38.4764C116.771 39.3028 116.991 40.179 117.615 40.7225C118.525 41.5151 119.894 41.3195 121.091 41.1693C121.272 41.1313 121.46 41.1416 121.636 41.1991C122.084 41.3902 122.064 42.0146 122.07 42.5021C122.106 43.3574 122.445 44.1722 123.025 44.8016C123.605 45.431 124.389 45.8343 125.238 45.94C125.714 46.0134 126.198 45.895 126.586 45.6108C126.926 45.3226 127.1 44.8527 127.49 44.6361C128.123 44.2839 128.892 44.7976 129.355 45.3554C129.818 45.9132 130.275 46.5994 130.992 46.7015C131.942 46.8365 132.664 45.8688 133.019 44.9776C133.508 43.7287 133.743 42.3943 133.709 41.0532C133.674 39.7122 133.372 38.3916 132.819 37.1693C130.838 32.847 124.068 32.1633 120.495 34.6961Z" fill="#2F2E41"/>
</g>
<defs>
<linearGradient id="paint0_linear" x1="71.8419" y1="76.9796" x2="105.267" y2="76.9796" gradientUnits="userSpaceOnUse">
<stop stop-color="#808080" stop-opacity="0.25"/>
<stop offset="0.53514" stop-color="#808080" stop-opacity="0.12"/>
<stop offset="1" stop-color="#808080" stop-opacity="0.1"/>
</linearGradient>
<clipPath id="clip0">
<rect width="179" height="160" fill="white"/>
</clipPath>
</defs>
</svg>
