<svg width="91" height="91" viewBox="0 0 91 91" fill="none" xmlns="http://www.w3.org/2000/svg">
<g clip-path="url(#clip0)">
<path d="M89.5494 70.2724L54.7668 10.0273C52.8327 6.67734 49.3685 4.67712 45.5 4.67712C41.6316 4.67712 38.1672 6.67734 36.2331 10.0273L1.45071 70.2722C-0.48357 73.6225 -0.48357 77.6226 1.45071 80.9727C3.38499 84.3228 6.84903 86.3228 10.7176 86.3228H80.2823C84.1507 86.3228 87.6149 84.3226 89.5494 80.9728C91.4837 77.6226 91.4837 73.6225 89.5494 70.2724ZM84.9322 78.3072C83.9616 79.9882 82.2234 80.9917 80.2823 80.9917H10.7176C8.77637 80.9917 7.03813 79.9882 6.06771 78.3072C5.09728 76.6262 5.09728 74.6192 6.06771 72.9382L40.8504 12.6931C41.8209 11.0121 43.5591 10.0086 45.5001 10.0086C47.441 10.0086 49.1794 11.0121 50.1498 12.6931L84.9324 72.9382C85.9026 74.6192 85.9026 76.6262 84.9322 78.3072Z" fill="#FD9001"/>
<path d="M48.1655 31.2831H42.8342V57.94H48.1655V31.2831Z" fill="#FD9001"/>
<path d="M45.4999 63.2715C43.54 63.2715 41.9456 64.8659 41.9456 66.8258C41.9456 68.7857 43.54 70.3801 45.4999 70.3801C47.4596 70.3801 49.0542 68.7857 49.0542 66.8258C49.0542 64.8659 47.4598 63.2715 45.4999 63.2715Z" fill="#FD9001"/>
</g>
<defs>
<clipPath id="clip0">
<rect width="91" height="91" fill="white"/>
</clipPath>
</defs>
</svg>
