<svg width="578" height="230" viewBox="0 0 578 230" fill="none" xmlns="http://www.w3.org/2000/svg">
<path d="M241 67H40V229H241V67Z" fill="#E6E6E6"/>
<path d="M157.5 182H123.5V228H157.5V182Z" fill="#1890FF"/>
<path d="M488.026 71.784L493.376 57.518L543.307 28.986L577.189 21.853L488.026 71.784Z" fill="#1890FF"/>
<path d="M304.352 71.784L299.002 57.518L249.071 28.986L215.189 21.853L304.352 71.784Z" fill="#1890FF"/>
<path d="M491.593 75.35H300.785L284.736 0.453979H507.642L491.593 75.35Z" fill="#1890FF"/>
<path opacity="0.1" d="M491.593 75.35H300.785L284.736 0.453979H507.642L491.593 75.35Z" fill="black"/>
<path d="M492.485 70.8916H299.893V229H492.485V70.8916Z" fill="#1890FF"/>
<path d="M413.189 181.977H379.189V227.977H413.189V181.977Z" fill="#3F3D56"/>
<path d="M576.737 229.19H0V227.008H577L576.737 229.19Z" fill="#3F3D56"/>
<path d="M436.189 103.25H356.189V128.25H436.189V103.25Z" fill="white"/>
<path d="M179.969 103.25H99.9692V128.25H179.969V103.25Z" fill="white"/>
</svg>
